{
.appVersion = "1161";
classes = (
{
code = "zero\012one\012two\012three\012four\012five\012six\012seven\012eight\012nine";
name = figures;
},
{
code = "zero.dnom\012one.dnom\012two.dnom\012three.dnom\012four.dnom\012five.dnom\012six.dnom\012seven.dnom\012eight.dnom\012nine.dnom";
name = dnom;
},
{
code = "zero.numr\012one.numr\012two.numr\012three.numr\012four.numr\012five.numr\012six.numr\012seven.numr\012eight.numr\012nine.numr";
name = numr;
},
{
automatic = 1;

glyphs = (
{
glyphname = A;
lastChange = "2018-07-29 23:24:57 +0000";
layers = (
{
anchors = (
{
name = bottom;
position = "{332, 0}";
},
{
name = ogonek;
position = "{711, 0}";
},
{
name = top;
position = "{452, 688}";
}
);
background = {
paths = (
{
closed = 1;
nodes = (
"570 688 LINE",
"313 688 LINE",
"-60 0 LINE",
"166 0 LINE",
"212 97 LINE",
"453 97 LINE",
"465 0 LINE",
"699 0 LINE"
);
},
{
closed = 1;
nodes = (
"422 361 LINE",
"435 251 LINE",
"286 251 LINE",
"338 361 LINE",
"402 496 LINE",
"406 496 LINE"
);
}
);
};
layerId = "9602D73B-DD3D-403F-8CEE-11CABA0497EF";
paths = (
{
closed = 1;
nodes = (
"184 0 LINE",
"230 97 LINE",
"472 97 LINE",
"484 0 LINE",
"711 0 LINE",
"583 688 LINE",
"326 688 LINE",
"-48 0 LINE"
);
},
{
closed = 1;
nodes = (
"355 361 LINE SMOOTH",
"376 406 OFFCURVE",
"398 451 OFFCURVE",
"419 496 CURVE",
"423 496 LINE",
"428 451 OFFCURVE",
"435 406 OFFCURVE",
"440 361 CURVE SMOOTH",
"453 251 LINE",
"303 251 LINE"
);
}
);
width = 757;
}
);
leftKerningGroup = A;
note = A;
rightKerningGroup = A;
unicode = 0041;
},
{
glyphname = AE;
lastChange = "2018-07-29 23:24:57 +0000";
layers = (
{
anchors = (
{
name = top;
position = "{663, 688}";
}
);
layerId = "9602D73B-DD3D-403F-8CEE-11CABA0497EF";
paths = (
{
closed = 1;
nodes = (
"173 0 LINE",
"224 97 LINE",
"458 97 LINE",
"463 0 LINE",
"917 0 LINE",
"946 165 LINE",
"657 165 LINE",
"652 270 LINE",
"902 270 LINE",
"930 428 LINE",
"643 428 LINE",
"638 523 LINE",
"1003 523 LINE",
"1032 688 LINE",
"353 688 LINE",
"-60 0 LINE"
);
},
{
closed = 1;
nodes = (
"437 496 LINE",
"441 496 LINE",
"452 251 LINE",
"307 251 LINE"
);
}
);
width = 1017;
}
);
leftKerningGroup = AE;
note = AE;
rightKerningGroup = AE;
unicode = 00C6;
},
{
glyphname = B;
lastChange = "2018-07-29 23:24:57 +0000";
layers = (
{
background = {
paths = (
{
closed = 1;
nodes = (
"137 688 LINE",
"15 0 LINE",
"479 0 LINE SMOOTH",
"590 0 OFFCURVE",
"692 73 OFFCURVE",
"712 183 CURVE SMOOTH",
"731 293 OFFCURVE",
"679 339 OFFCURVE",
"611 355 CURVE",
"612 359 LINE",
"677 377 OFFCURVE",
"737 419 OFFCURVE",
"755 519 CURVE SMOOTH",
"772 618 OFFCURVE",
"699 688 OFFCURVE",
"595 688 CURVE SMOOTH"
);
},
{
closed = 1;
nodes = (
"310 420 LINE",
"331 537 LINE",
"483 537 LINE SMOOTH",
"511 537 OFFCURVE",
"530 513 OFFCURVE",
"525 484 CURVE SMOOTH",
"517 442 OFFCURVE",
"493 420 OFFCURVE",
"462 420 CURVE SMOOTH"
);
},
{
closed = 1;
nodes = (
"265 160 LINE",
"285 278 LINE",
"453 278 LINE SMOOTH",
"482 278 OFFCURVE",
"500 254 OFFCURVE",
"495 224 CURVE SMOOTH",
"487 181 OFFCURVE",
"464 160 OFFCURVE",
"433 160 CURVE SMOOTH"
);
}
);
};
layerId = "9602D73B-DD3D-403F-8CEE-11CABA0497EF";
paths = (
{
closed = 1;
nodes = (
"484 0 LINE SMOOTH",
"614 0 OFFCURVE",
"716 80 OFFCURVE",
"716 215 CURVE SMOOTH",
"716 291 OFFCURVE",
"669 336 OFFCURVE",
"611 355 CURVE",
"612 359 LINE",
"699 375 OFFCURVE",
"756 451 OFFCURVE",
"756 534 CURVE SMOOTH",
"756 611 OFFCURVE",
"703 688 OFFCURVE",
"576 688 CURVE SMOOTH",
"137 688 LINE",
"15 0 LINE"
);
},
{
closed = 1;
nodes = (
"285 278 LINE",
"447 278 LINE SMOOTH",
"482 278 OFFCURVE",
"496 257 OFFCURVE",
"496 232 CURVE SMOOTH",
"496 194 OFFCURVE",
"475 160 OFFCURVE",
"435 160 CURVE SMOOTH",
"265 160 LINE"
);
},
{
closed = 1;
nodes = (
"331 537 LINE",
"481 537 LINE SMOOTH",
"511 537 OFFCURVE",
"525 514 OFFCURVE",
"525 489 CURVE SMOOTH",
"525 453 OFFCURVE",
"507 420 OFFCURVE",
"462 420 CURVE SMOOTH",
"310 420 LINE"
);
}
);
width = 775;
}
);
leftKerningGroup = H;
note = B;
rightKerningGroup = B;
unicode = 0042;
},
{
glyphname = C;
lastChange = "2018-07-29 23:24:57 +0000";
layers = (
{
anchors = (
{
name = bottom;
position = "{326, 0}";
},
{
name = top;
position = "{454, 688}";
}
);
background = {
paths = (
{
closed = 1;
nodes = (
"550 -12 OFFCURVE",
"689 90 OFFCURVE",
"723 279 CURVE",
"519 279 LINE",
"505 200 OFFCURVE",
"453 153 OFFCURVE",
"366 153 CURVE SMOOTH",
"276 153 OFFCURVE",
"250 218 OFFCURVE",
"266 312 CURVE SMOOTH",
"278 376 LINE SMOOTH",
"294 470 OFFCURVE",
"342 535 OFFCURVE",
"436 535 CURVE SMOOTH",
"515 535 OFFCURVE",
"548 484 OFFCURVE",
"534 405 CURVE",
"745 405 LINE",
"779 597 OFFCURVE",
"666 700 OFFCURVE",
"466 700 CURVE SMOOTH",
"231 700 OFFCURVE",
"87 579 OFFCURVE",
"46 344 CURVE SMOOTH",
"5 109 OFFCURVE",
"105 -12 OFFCURVE",
"340 -12 CURVE SMOOTH"
);
}
);
};
layerId = "9602D73B-DD3D-403F-8CEE-11CABA0497EF";
paths = (
{
closed = 1;
nodes = (
"566 -12 OFFCURVE",
"693 90 OFFCURVE",
"723 279 CURVE",
"519 279 LINE",
"505 200 OFFCURVE",
"453 153 OFFCURVE",
"366 153 CURVE SMOOTH",
"292 153 OFFCURVE",
"262 197 OFFCURVE",
"262 266 CURVE SMOOTH",
"262 280 OFFCURVE",
"264 296 OFFCURVE",
"266 312 CURVE SMOOTH",
"291 475 OFFCURVE",
"335 535 OFFCURVE",
"436 535 CURVE SMOOTH",
"503 535 OFFCURVE",
"537 498 OFFCURVE",
"537 438 CURVE SMOOTH",
"537 428 OFFCURVE",
"536 417 OFFCURVE",
"534 405 CURVE",
"745 405 LINE",
"749 428 OFFCURVE",
"751 449 OFFCURVE",
"751 469 CURVE SMOOTH",
"751 620 OFFCURVE",
"635 700 OFFCURVE",
"459 700 CURVE SMOOTH",
"333 700 OFFCURVE",
"254 673 OFFCURVE",
"179 611 CURVE SMOOTH",
"83 532 OFFCURVE",
"37 391 OFFCURVE",
"37 262 CURVE SMOOTH",
"37 85 OFFCURVE",
"146 -12 OFFCURVE",
"348 -12 CURVE SMOOTH"
);
}
);
width = 770;
}
);
leftKerningGroup = C;
note = C;
rightKerningGroup = C;
unicode = 0043;
},
{
glyphname = D;
lastChange = "2018-07-29 23:24:57 +0000";
layers = (
{
anchors = (
{
name = center;
position = "{214, 348}";
},
{
name = top;
position = "{429, 688}";
}
);
background = {
paths = (
{
closed = 1;
nodes = (
"137 688 LINE",
"15 0 LINE",
"313 0 LINE SMOOTH",
"548 0 OFFCURVE",
"694 109 OFFCURVE",
"735 344 CURVE SMOOTH",
"776 579 OFFCURVE",
"670 688 OFFCURVE",
"435 688 CURVE SMOOTH"
);
},
{
closed = 1;
nodes = (
"265 165 LINE",
"329 523 LINE",
"402 523 LINE SMOOTH",
"499 523 OFFCURVE",
"531 468 OFFCURVE",
"514 374 CURVE SMOOTH",
"504 314 LINE SMOOTH",
"487 220 OFFCURVE",
"435 165 OFFCURVE",
"338 165 CURVE SMOOTH"
);
}
);
};
layerId = "9602D73B-DD3D-403F-8CEE-11CABA0497EF";
paths = (
{
closed = 1;
nodes = (
"323 0 LINE SMOOTH",
"598 0 OFFCURVE",
"742 153 OFFCURVE",
"742 424 CURVE SMOOTH",
"742 598 OFFCURVE",
"632 688 OFFCURVE",
"434 688 CURVE SMOOTH",
"137 688 LINE",
"15 0 LINE"
);
},
{
closed = 1;
nodes = (
"329 523 LINE",
"402 523 LINE SMOOTH",
"483 523 OFFCURVE",
"518 485 OFFCURVE",
"518 418 CURVE SMOOTH",
"518 327 OFFCURVE",
"494 165 OFFCURVE",
"338 165 CURVE SMOOTH",
"265 165 LINE"
);
}
);
width = 778;
}
);
leftKerningGroup = D;
note = D;
rightKerningGroup = D;
unicode = 0044;
},
{
glyphname = Eth;
lastChange = "2018-07-29 23:24:57 +0000";
layers = (
{
layerId = "9602D73B-DD3D-403F-8CEE-11CABA0497EF";
paths = (
{
closed = 1;
nodes = (
"323 0 LINE SMOOTH",
"598 0 OFFCURVE",
"742 153 OFFCURVE",
"742 424 CURVE SMOOTH",
"742 598 OFFCURVE",
"632 688 OFFCURVE",
"434 688 CURVE SMOOTH",
"137 688 LINE",
"87 406 LINE",
"4 406 LINE",
"-16 288 LINE",
"66 288 LINE",
"15 0 LINE"
);
},
{
closed = 1;
nodes = (
"287 288 LINE",
"399 288 LINE",
"419 406 LINE",
"308 406 LINE",
"329 523 LINE",
"402 523 LINE SMOOTH",
"483 523 OFFCURVE",
"518 485 OFFCURVE",
"518 418 CURVE SMOOTH",
"518 327 OFFCURVE",
"494 165 OFFCURVE",
"338 165 CURVE SMOOTH",
"265 165 LINE"
);
}
);
width = 778;
}
);
leftKerningGroup = D;
note = Eth;
rightKerningGroup = D;
unicode = 00D0;
},
{
glyphname = E;
lastChange = "2018-07-29 23:24:57 +0000";
layers = (
{
anchors = (
{
name = bottom;
position = "{318, 0}";
},
{
name = ogonek;
position = "{617, 0}";
},
{
name = top;
position = "{438, 688}";
}
);
layerId = "9602D73B-DD3D-403F-8CEE-11CABA0497EF";
paths = (
{
closed = 1;
nodes = (
"617 0 LINE",
"646 165 LINE",
"265 165 LINE",
"284 270 LINE",
"604 270 LINE",
"632 428 LINE",
"312 428 LINE",
"329 523 LINE",
"703 523 LINE",
"732 688 LINE",
"137 688 LINE",
"15 0 LINE"
);
}
);
width = 717;
}
);
leftKerningGroup = H;
note = E;
rightKerningGroup = E;
unicode = 0045;
},
{
glyphname = F;
lastChange = "2018-07-29 23:24:57 +0000";
layers = (
{
layerId = "9602D73B-DD3D-403F-8CEE-11CABA0497EF";
paths = (
{
closed = 1;
nodes = (
"236 0 LINE",
"280 247 LINE",
"568 247 LINE",
"596 405 LINE",
"308 405 LINE",
"329 523 LINE",
"664 523 LINE",
"693 688 LINE",
"137 688 LINE",
"15 0 LINE"
);
}
);
width = 669;
}
);
leftKerningGroup = H;
note = F;
rightKerningGroup = F;
unicode = 0046;
},
{
glyphname = Fhook;
lastChange = "2018-07-29 23:24:57 +0000";
layers = (
{
layerId = "9602D73B-DD3D-403F-8CEE-11CABA0497EF";
paths = (
{
closed = 1;
nodes = (
"156 -210 OFFCURVE",
"208 -157 OFFCURVE",
"231 -29 CURVE SMOOTH",
"280 247 LINE",
"568 247 LINE",
"596 405 LINE",
"308 405 LINE",
"329 523 LINE",
"664 523 LINE",
"693 688 LINE",
"137 688 LINE",
"14 -9 LINE SMOOTH",
"7 -50 OFFCURVE",
"-13 -73 OFFCURVE",
"-53 -73 CURVE SMOOTH",
"-105 -73 LINE",
"-126 -192 LINE",
"-96 -202 OFFCURVE",
"-9 -210 OFFCURVE",
"26 -210 CURVE SMOOTH"
);
}
);
width = 669;
}
);
leftKerningGroup = j;
rightKerningGroup = F;
unicode = 0191;
},
{
glyphname = G;
lastChange = "2018-07-29 23:24:57 +0000";
layers = (
{
anchors = (
{
name = bottom;
position = "{349, 0}";
},
{
name = top;
position = "{473, 688}";
}
);
background = {
paths = (
{
closed = 1;
nodes = (
"777 384 LINE",
"410 384 LINE",
"385 244 LINE",
"541 244 LINE",
"532 189 OFFCURVE",
"465 153 OFFCURVE",
"395 153 CURVE SMOOTH",
"290 153 OFFCURVE",
"248 212 OFFCURVE",
"265 312 CURVE SMOOTH",
"277 376 LINE SMOOTH",
"294 476 OFFCURVE",
"358 535 OFFCURVE",
"463 535 CURVE SMOOTH",
"533 535 OFFCURVE",
"586 498 OFFCURVE",
"576 439 CURVE",
"787 439 LINE",
"817 612 OFFCURVE",
"676 700 OFFCURVE",
"483 700 CURVE SMOOTH",
"245 700 OFFCURVE",
"86 579 OFFCURVE",
"45 344 CURVE SMOOTH",
"4 109 OFFCURVE",
"96 -12 OFFCURVE",
"325 -12 CURVE SMOOTH",
"430 -12 OFFCURVE",
"514 15 OFFCURVE",
"585 68 CURVE",
"595 0 LINE",
"709 0 LINE"
);
}
);
};
layerId = "9602D73B-DD3D-403F-8CEE-11CABA0497EF";
paths = (
{
closed = 1;
nodes = (
"435 -12 OFFCURVE",
"514 15 OFFCURVE",
"585 68 CURVE",
"595 0 LINE",
"709 0 LINE",
"777 384 LINE",
"410 384 LINE",
"385 244 LINE",
"541 244 LINE",
"532 189 OFFCURVE",
"465 153 OFFCURVE",
"395 153 CURVE SMOOTH",
"305 153 OFFCURVE",
"262 197 OFFCURVE",
"262 273 CURVE SMOOTH",
"262 285 OFFCURVE",
"263 298 OFFCURVE",
"265 312 CURVE SMOOTH",
"291 474 OFFCURVE",
"340 535 OFFCURVE",
"463 535 CURVE SMOOTH",
"527 535 OFFCURVE",
"577 504 OFFCURVE",
"577 453 CURVE SMOOTH",
"577 449 OFFCURVE",
"577 444 OFFCURVE",
"576 439 CURVE",
"787 439 LINE",
"790 454 OFFCURVE",
"791 468 OFFCURVE",
"791 482 CURVE SMOOTH",
"791 626 OFFCURVE",
"649 700 OFFCURVE",
"473 700 CURVE SMOOTH",
"353 700 OFFCURVE",
"256 672 OFFCURVE",
"183 613 CURVE SMOOTH",
"85 534 OFFCURVE",
"37 395 OFFCURVE",
"37 261 CURVE SMOOTH",
"37 88 OFFCURVE",
"138 -12 OFFCURVE",
"330 -12 CURVE SMOOTH"
);
}
);
width = 830;
}
);
leftKerningGroup = O;
note = G;
rightKerningGroup = G;
unicode = 0047;
},
{
glyphname = H;
lastChange = "2018-07-29 23:24:57 +0000";
layers = (
{
anchors = (
{
name = bottom;
position = "{355, 0}";
},
{
name = center;
position = "{456, 560}";
},
{
name = top;
position = "{478, 688}";
}
);
layerId = "9602D73B-DD3D-403F-8CEE-11CABA0497EF";
paths = (
{
closed = 1;
nodes = (
"236 0 LINE",
"282 261 LINE",
"525 261 LINE",
"479 0 LINE",
"700 0 LINE",
"822 688 LINE",
"601 688 LINE",
"556 437 LINE",
"313 437 LINE",
"358 688 LINE",
"137 688 LINE",
"15 0 LINE"
);
}
);
width = 833;
}
);
leftKerningGroup = H;
note = H;
rightKerningGroup = H;
unicode = 0048;
},
{
glyphname = I;
lastChange = "2018-07-29 23:24:57 +0000";
layers = (
{
anchors = (
{
name = bottom;
position = "{125, 0}";
},
{
name = ogonek;
position = "{184, 0}";
},
{
name = top;
position = "{246, 688}";
}
);
layerId = "9602D73B-DD3D-403F-8CEE-11CABA0497EF";
paths = (
{
closed = 1;
nodes = (
"236 0 LINE",
"358 688 LINE",
"137 688 LINE",
"15 0 LINE"
);
}
);
width = 369;
}
);
leftKerningGroup = H;
note = I;
rightKerningGroup = H;
unicode = 0049;
},
{
glyphname = J;
lastChange = "2018-07-29 23:24:57 +0000";
layers = (
{
anchors = (
{
name = top;
position = "{540, 688}";
}
);
background = {
paths = (
{
closed = 1;
nodes = (
"419 -12 OFFCURVE",
"540 63 OFFCURVE",
"571 239 CURVE SMOOTH",
"650 688 LINE",
"429 688 LINE",
"350 240 LINE SMOOTH",
"338 176 OFFCURVE",
"310 153 OFFCURVE",
"263 153 CURVE SMOOTH",
"216 153 OFFCURVE",
"196 176 OFFCURVE",
"208 240 CURVE SMOOTH",
"209 248 LINE",
"2 248 LINE",
"1 239 LINE SMOOTH",
"-30 63 OFFCURVE",
"63 -12 OFFCURVE",
"241 -12 CURVE SMOOTH"
);
}
);
};
layerId = "9602D73B-DD3D-403F-8CEE-11CABA0497EF";
paths = (
{
closed = 1;
nodes = (
"424 -12 OFFCURVE",
"539 58 OFFCURVE",
"570 234 CURVE SMOOTH",
"650 688 LINE",
"429 688 LINE",
"350 240 LINE SMOOTH",
"338 176 OFFCURVE",
"306 153 OFFCURVE",
"259 153 CURVE SMOOTH",
"220 153 OFFCURVE",
"204 168 OFFCURVE",
"204 205 CURVE SMOOTH",
"204 217 OFFCURVE",
"206 231 OFFCURVE",
"209 248 CURVE",
"2 248 LINE",
"-2 224 OFFCURVE",
"-5 202 OFFCURVE",
"-5 181 CURVE SMOOTH",
"-5 51 OFFCURVE",
"82 -12 OFFCURVE",
"249 -12 CURVE SMOOTH"
);
}
);
width = 657;
}
);
leftKerningGroup = J;
note = J;
rightKerningGroup = J;
unicode = 004A;
},
{
glyphname = Jacute;
lastChange = "2018-08-03 01:09:45 +0000";
layers = (
{
background = {
paths = (
{
closed = 1;
nodes = (
"793 -12 OFFCURVE",
"908 58 OFFCURVE",
"939 234 CURVE SMOOTH",
"1019 688 LINE",
"798 688 LINE",
"719 240 LINE SMOOTH",
"707 176 OFFCURVE",
"675 153 OFFCURVE",
"628 153 CURVE SMOOTH",
"589 153 OFFCURVE",
"573 168 OFFCURVE",
"573 205 CURVE SMOOTH",
"573 217 OFFCURVE",
"575 231 OFFCURVE",
"578 248 CURVE",
"371 248 LINE",
"367 224 OFFCURVE",
"364 202 OFFCURVE",
"364 181 CURVE SMOOTH",
"364 51 OFFCURVE",
"451 -12 OFFCURVE",
"618 -12 CURVE SMOOTH"
);
},
{
closed = 1;
nodes = (
"236 0 LINE",
"358 688 LINE",
"137 688 LINE",
"15 0 LINE"
);
},
{
closed = 1;
nodes = (
"304 754 LINE",
"487 883 LINE",
"486 887 LINE",
"293 887 LINE",
"177 754 LINE"
);
},
{
closed = 1;
nodes = (
"953 752 LINE",
"1136 881 LINE",
"1135 885 LINE",
"942 885 LINE",
"826 752 LINE"
);
}
);
};
components = (
{
name = I;
},
{
name = acutecomb.case;
transform = "{1, 0, 0, 1, 111, 160}";
},
{
name = J;
transform = "{1, 0, 0, 1, 369, 0}";
},
{
name = acutecomb.case;
transform = "{1, 0, 0, 1, 774, 160}";
}
);
layerId = "9602D73B-DD3D-403F-8CEE-11CABA0497EF";
width = 1026;
}
);
leftKerningGroup = H;
rightKerningGroup = J;
},
{
glyphname = K;
lastChange = "2018-07-29 23:24:57 +0000";
layers = (
{
anchors = (
{
name = bottom;
position = "{361, 0}";
}
);
background = {
paths = (
{
closed = 1;
nodes = (
"358 688 LINE",
"137 688 LINE",
"15 0 LINE",
"236 0 LINE",
"262 144 LINE",
"399 257 LINE",
"499 0 LINE",
"760 0 LINE",
"580 405 LINE",
"877 688 LINE",
"603 688 LINE",
"306 394 LINE"
);
}
);
};
layerId = "9602D73B-DD3D-403F-8CEE-11CABA0497EF";
paths = (
{
closed = 1;
nodes = (
"236 0 LINE",
"261 135 LINE",
"405 259 LINE",
"507 0 LINE",
"760 0 LINE",
"580 405 LINE",
"877 688 LINE",
"594 688 LINE",
"308 407 LINE",
"358 688 LINE",
"137 688 LINE",
"15 0 LINE"
);
}
);
width = 829;
}
);
leftKerningGroup = H;
note = K;
rightKerningGroup = K;
unicode = 004B;
},
{
glyphname = L;
lastChange = "2018-07-29 23:24:57 +0000";
layers = (
{
anchors = (
{
name = bottom;
position = "{311, 0}";
},
{
name = center;
position = "{519, 390}";
},
{
name = top;
position = "{243, 688}";
},
{
name = topright;
position = "{430, 526}";
}
);
layerId = "9602D73B-DD3D-403F-8CEE-11CABA0497EF";
paths = (
{
closed = 1;
nodes = (
"579 0 LINE",
"610 176 LINE",
"267 176 LINE",
"358 688 LINE",
"137 688 LINE",
"15 0 LINE"
);
}
);
width = 654;
}
);
leftKerningGroup = H;
note = L;
rightKerningGroup = L;
unicode = 004C;
},
{
glyphname = Lslash;
lastChange = "2018-07-29 23:24:57 +0000";
layers = (
{
layerId = "9602D73B-DD3D-403F-8CEE-11CABA0497EF";
paths = (
{
closed = 1;
nodes = (
"587 0 LINE",
"618 176 LINE",
"265 176 LINE",
"296 352 LINE",
"462 447 LINE",
"480 547 LINE",
"314 452 LINE",
"356 688 LINE",
"135 688 LINE",
"68 310 LINE",
"-14 263 LINE",
"-32 165 LINE",
"51 212 LINE",
"13 0 LINE"
);
}
);
width = 654;
}
);
leftKerningGroup = H;
note = Lslash;
rightKerningGroup = L;
unicode = 0141;
},
{
glyphname = M;
lastChange = "2018-07-29 23:24:57 +0000";
layers = (
{
background = {
paths = (
{
closed = 1;
nodes = (
"449 688 LINE",
"137 688 LINE",
"15 0 LINE",
"218 0 LINE",
"262 248 LINE SMOOTH",
"280 352 OFFCURVE",
"282 465 OFFCURVE",
"282 465 CURVE",
"286 465 LINE",
"294 386 LINE",
"332 0 LINE",
"505 0 LINE",
"679 387 LINE",
"715 466 LINE",
"719 466 LINE",
"719 466 OFFCURVE",
"682 352 OFFCURVE",
"664 248 CURVE SMOOTH",
"620 0 LINE",
"839 0 LINE",
"961 688 LINE",
"660 688 LINE",
"554 446 LINE SMOOTH",
"532 394 OFFCURVE",
"509 343 OFFCURVE",
"487 291 CURVE",
"483 291 LINE",
"469 446 LINE"
);
}
);
};
layerId = "9602D73B-DD3D-403F-8CEE-11CABA0497EF";
paths = (
{
closed = 1;
nodes = (
"218 0 LINE",
"262 248 LINE SMOOTH",
"280 352 OFFCURVE",
"282 465 OFFCURVE",
"282 465 CURVE",
"286 465 LINE",
"294 386 LINE",
"327 0 LINE",
"502 0 LINE",
"679 387 LINE",
"715 466 LINE",
"719 466 LINE",
"719 466 OFFCURVE",
"682 352 OFFCURVE",
"664 248 CURVE SMOOTH",
"620 0 LINE",
"839 0 LINE",
"961 688 LINE",
"648 688 LINE",
"540 446 LINE SMOOTH",
"517 394 OFFCURVE",
"496 343 OFFCURVE",
"474 291 CURVE",
"470 291 LINE",
"466 343 OFFCURVE",
"461 394 OFFCURVE",
"457 446 CURVE SMOOTH",
"437 688 LINE",
"137 688 LINE",
"15 0 LINE"
);
}
);
width = 972;
}
);
leftKerningGroup = H;
note = M;
rightKerningGroup = H;
unicode = 004D;
},
{
glyphname = N;
lastChange = "2018-07-29 23:24:57 +0000";
layers = (
{
anchors = (
{
name = bottom;
position = "{355, 0}";
},
{
name = top;
position = "{477, 688}";
}
);
background = {
paths = (
{
closed = 1;
nodes = (
"327 688 LINE",
"137 688 LINE",
"15 0 LINE",
"218 0 LINE",
"266 272 LINE SMOOTH",
"269 290 OFFCURVE",
"274 332 OFFCURVE",
"274 332 CURVE",
"279 335 LINE",
"319 275 LINE",
"511 0 LINE",
"700 0 LINE",
"822 688 LINE",
"619 688 LINE",
"570 410 LINE SMOOTH",
"568 399 OFFCURVE",
"562 352 OFFCURVE",
"562 352 CURVE",
"557 349 LINE",
"557 349 OFFCURVE",
"509 424 OFFCURVE",
"497 441 CURVE SMOOTH"
);
}
);
};
layerId = "9602D73B-DD3D-403F-8CEE-11CABA0497EF";
paths = (
{
closed = 1;
nodes = (
"218 0 LINE",
"267 286 LINE SMOOTH",
"270 304 OFFCURVE",
"275 346 OFFCURVE",
"275 346 CURVE",
"280 349 LINE",
"293 329 OFFCURVE",
"307 309 OFFCURVE",
"320 289 CURVE",
"511 0 LINE",
"700 0 LINE",
"822 688 LINE",
"619 688 LINE",
"569 394 LINE SMOOTH",
"567 383 OFFCURVE",
"561 336 OFFCURVE",
"561 336 CURVE",
"556 333 LINE",
"556 333 OFFCURVE",
"507 408 OFFCURVE",
"496 425 CURVE SMOOTH",
"327 688 LINE",
"137 688 LINE",
"15 0 LINE"
);
}
);
width = 833;
}
);
leftKerningGroup = H;
note = N;
rightKerningGroup = H;
unicode = 004E;
},
{
glyphname = Eng;
lastChange = "2018-07-29 23:24:57 +0000";
layers = (
{
layerId = "9602D73B-DD3D-403F-8CEE-11CABA0497EF";
paths = (
{
closed = 1;
nodes = (
"620 -210 OFFCURVE",
"672 -157 OFFCURVE",
"695 -29 CURVE SMOOTH",
"822 688 LINE",
"619 688 LINE",
"569 394 LINE SMOOTH",
"567 383 OFFCURVE",
"561 336 OFFCURVE",
"561 336 CURVE",
"556 333 LINE",
"536 364 OFFCURVE",
"516 394 OFFCURVE",
"496 425 CURVE",
"327 688 LINE",
"137 688 LINE",
"15 0 LINE",
"218 0 LINE",
"267 286 LINE SMOOTH",
"270 304 OFFCURVE",
"275 346 OFFCURVE",
"275 346 CURVE",
"280 349 LINE",
"293 329 OFFCURVE",
"307 309 OFFCURVE",
"320 289 CURVE",
"504 11 LINE",
"500 -9 LINE SMOOTH",
"493 -50 OFFCURVE",
"473 -73 OFFCURVE",
"433 -73 CURVE SMOOTH",
"381 -73 LINE",
"360 -192 LINE",
"390 -202 OFFCURVE",
"455 -210 OFFCURVE",
"490 -210 CURVE SMOOTH"
);
}
);
width = 833;
}
);
leftKerningGroup = H;
note = Eng;
rightKerningGroup = H;
unicode = 014A;
},
{
glyphname = Nhookleft;
lastChange = "2018-07-29 23:24:57 +0000";
layers = (
{
background = {
hints = (
{
horizontal = 1;
place = "{-255, 92}";
type = Stem;
},
{
horizontal = 1;
place = "{483, -20}";
target = down;
type = TopGhost;
},
{
horizontal = 1;
place = "{545, 90}";
type = Stem;
},
{
place = "{22, 154}";
type = Stem;
},
{
horizontal = 1;
place = "{-61, 21}";
target = up;
type = BottomGhost;
},
{
horizontal = 1;
place = "{627, -20}";
target = down;
type = TopGhost;
},
{
place = "{13, 142}";
type = Stem;
},
{
place = "{495, 142}";
type = Stem;
}
);
paths = (
{
closed = 1;
nodes = (
"137 688 LINE",
"15 0 LINE",
"218 0 LINE",
"267 286 LINE SMOOTH",
"270 304 OFFCURVE",
"275 346 OFFCURVE",
"275 346 CURVE",
"280 349 LINE",
"293 329 OFFCURVE",
"307 309 OFFCURVE",
"320 289 CURVE",
"511 0 LINE",
"700 0 LINE",
"822 688 LINE",
"619 688 LINE",
"569 394 LINE SMOOTH",
"567 383 OFFCURVE",
"561 336 OFFCURVE",
"561 336 CURVE",
"556 333 LINE",
"556 333 OFFCURVE",
"507 408 OFFCURVE",
"496 425 CURVE SMOOTH",
"327 688 LINE"
);
}
);
};
layerId = "9602D73B-DD3D-403F-8CEE-11CABA0497EF";
paths = (
{
closed = 1;
nodes = (
"133 -210 OFFCURVE",
"191 -157 OFFCURVE",
"213 -29 CURVE SMOOTH",
"267 286 LINE SMOOTH",
"270 304 OFFCURVE",
"273 324 OFFCURVE",
"275 345 CURVE",
"280 349 LINE",
"293 329 OFFCURVE",
"307 309 OFFCURVE",
"320 289 CURVE",
"511 0 LINE",
"700 0 LINE",
"822 688 LINE",
"619 688 LINE",
"569 394 LINE SMOOTH",
"567 383 OFFCURVE",
"561 336 OFFCURVE",
"561 336 CURVE",
"556 333 LINE",
"536 364 OFFCURVE",
"516 394 OFFCURVE",
"496 425 CURVE",
"327 688 LINE",
"137 688 LINE",
"13 -9 LINE SMOOTH",
"6 -50 OFFCURVE",
"-14 -73 OFFCURVE",
"-54 -73 CURVE SMOOTH",
"-106 -73 LINE",
"-127 -192 LINE",
"-97 -202 OFFCURVE",
"-32 -210 OFFCURVE",
"3 -210 CURVE SMOOTH"
);
}
);
width = 833;
}
);
leftKerningGroup = H;
note = uni019D;
rightKerningGroup = H;
unicode = 019D;
},
{
glyphname = O;
lastChange = "2018-07-29 23:24:57 +0000";
layers = (
{
anchors = (
{
name = bottom;
position = "{370, 0}";
},
{
name = center;
position = "{430, 344}";
},
{
name = ogonek;
position = "{428, 0}";
},
{
name = top;
position = "{491, 688}";
},
{
name = topright;
position = "{573, 688}";
}
);
background = {
paths = (
{
closed = 1;
nodes = (
"587 -12 OFFCURVE",
"746 109 OFFCURVE",
"787 344 CURVE SMOOTH",
"828 579 OFFCURVE",
"713 700 OFFCURVE",
"478 700 CURVE SMOOTH",
"243 700 OFFCURVE",
"85 579 OFFCURVE",
"44 344 CURVE SMOOTH",
"3 109 OFFCURVE",
"117 -12 OFFCURVE",
"352 -12 CURVE SMOOTH"
);
},
{
closed = 1;
nodes = (
"284 153 OFFCURVE",
"248 218 OFFCURVE",
"264 312 CURVE SMOOTH",
"292 471 OFFCURVE",
"335 535 OFFCURVE",
"449 535 CURVE SMOOTH",
"546 535 OFFCURVE",
"583 470 OFFCURVE",
"567 376 CURVE SMOOTH",
"539 218 OFFCURVE",
"496 153 OFFCURVE",
"381 153 CURVE SMOOTH"
);
}
);
};
layerId = "9602D73B-DD3D-403F-8CEE-11CABA0497EF";
paths = (
{
closed = 1;
nodes = (
"611 -12 OFFCURVE",
"767 103 OFFCURVE",
"801 339 CURVE SMOOTH",
"805 367 OFFCURVE",
"808 393 OFFCURVE",
"808 418 CURVE SMOOTH",
"808 602 OFFCURVE",
"689 700 OFFCURVE",
"482 700 CURVE SMOOTH",
"247 700 OFFCURVE",
"92 585 OFFCURVE",
"58 349 CURVE SMOOTH",
"54 321 OFFCURVE",
"51 294 OFFCURVE",
"51 269 CURVE SMOOTH",
"51 86 OFFCURVE",
"169 -12 OFFCURVE",
"376 -12 CURVE SMOOTH"
);
},
{
closed = 1;
nodes = (
"311 153 OFFCURVE",
"275 200 OFFCURVE",
"275 271 CURVE SMOOTH",
"275 284 OFFCURVE",
"276 296 OFFCURVE",
"278 310 CURVE SMOOTH",
"301 469 OFFCURVE",
"353 535 OFFCURVE",
"465 535 CURVE SMOOTH",
"547 535 OFFCURVE",
"584 488 OFFCURVE",
"584 416 CURVE SMOOTH",
"584 404 OFFCURVE",
"583 391 OFFCURVE",
"581 378 CURVE SMOOTH",
"557 220 OFFCURVE",
"506 153 OFFCURVE",
"393 153 CURVE SMOOTH"
);
}
);
width = 830;
}
);
leftKerningGroup = O;
note = O;
rightKerningGroup = O;
unicode = 004F;
},
{
glyphname = Oslash;
lastChange = "2018-07-29 23:24:57 +0000";
layers = (
{
anchors = (
{
name = bottom;
position = "{369, 0}";
},
{
name = top;
position = "{477, 688}";
}
);
components = (
{
name = O;
}
);
layerId = "9602D73B-DD3D-403F-8CEE-11CABA0497EF";
paths = (
{
closed = 1;
nodes = (
"124 -39 LINE",
"860 723 LINE",
"737 723 LINE",
"1 -39 LINE"
);
}
);
width = 830;
}
);
leftKerningGroup = O;
note = Oslash;
rightKerningGroup = O;
unicode = 00D8;
},
{
glyphname = OE;
lastChange = "2018-07-29 23:24:57 +0000";
layers = (
{
layerId = "9602D73B-DD3D-403F-8CEE-11CABA0497EF";
paths = (
{
closed = 1;
nodes = (
"334 -12 OFFCURVE",
"402 14 OFFCURVE",
"456 62 CURVE",
"445 0 LINE",
"923 0 LINE",
"952 165 LINE",
"668 165 LINE",
"687 270 LINE",
"910 270 LINE",
"938 428 LINE",
"715 428 LINE",
"732 523 LINE",
"1009 523 LINE",
"1038 688 LINE",
"567 688 LINE",
"556 625 LINE",
"518 674 OFFCURVE",
"460 700 OFFCURVE",
"383 700 CURVE SMOOTH",
"208 700 OFFCURVE",
"86 569 OFFCURVE",
"46 344 CURVE SMOOTH",
"39 305 OFFCURVE",
"36 268 OFFCURVE",
"36 235 CURVE SMOOTH",
"36 77 OFFCURVE",
"113 -12 OFFCURVE",
"257 -12 CURVE SMOOTH"
);
},
{
closed = 1;
nodes = (
"278 153 OFFCURVE",
"247 189 OFFCURVE",
"247 265 CURVE SMOOTH",
"247 287 OFFCURVE",
"250 313 OFFCURVE",
"255 343 CURVE SMOOTH",
"278 472 OFFCURVE",
"323 535 OFFCURVE",
"415 535 CURVE SMOOTH",
"485 535 OFFCURVE",
"515 499 OFFCURVE",
"515 423 CURVE SMOOTH",
"515 400 OFFCURVE",
"512 373 OFFCURVE",
"507 342 CURVE SMOOTH",
"485 217 OFFCURVE",
"439 153 OFFCURVE",
"347 153 CURVE SMOOTH"
);
}
);
width = 1023;
}
);
leftKerningGroup = O;
note = OE;
rightKerningGroup = E;
unicode = 0152;
},
{
glyphname = P;
lastChange = "2018-07-29 23:24:57 +0000";
layers = (
{
background = {
paths = (
{
closed = 1;
nodes = (
"137 688 LINE",
"15 0 LINE",
"236 0 LINE",
"275 222 LINE",
"440 222 LINE SMOOTH",
"568 222 OFFCURVE",
"677 314 OFFCURVE",
"702 456 CURVE SMOOTH",
"726 594 OFFCURVE",
"653 688 OFFCURVE",
"523 688 CURVE SMOOTH"
);
},
{
closed = 1;
nodes = (
"304 383 LINE",
"329 525 LINE",
"420 525 LINE SMOOTH",
"467 525 OFFCURVE",
"486 501 OFFCURVE",
"477 454 CURVE SMOOTH",
"469 407 OFFCURVE",
"441 383 OFFCURVE",
"395 383 CURVE SMOOTH"
);
}
);
};
layerId = "9602D73B-DD3D-403F-8CEE-11CABA0497EF";
paths = (
{
closed = 1;
nodes = (
"236 0 LINE",
"275 222 LINE",
"446 222 LINE SMOOTH",
"602 222 OFFCURVE",
"706 341 OFFCURVE",
"706 494 CURVE SMOOTH",
"706 608 OFFCURVE",
"630 688 OFFCURVE",
"515 688 CURVE SMOOTH",
"137 688 LINE",
"15 0 LINE"
);
},
{
closed = 1;
nodes = (
"329 525 LINE",
"417 525 LINE SMOOTH",
"457 525 OFFCURVE",
"479 506 OFFCURVE",
"479 471 CURVE SMOOTH",
"479 422 OFFCURVE",
"455 383 OFFCURVE",
"399 383 CURVE SMOOTH",
"304 383 LINE"
);
}
);
width = 714;
}
);
leftKerningGroup = H;
note = P;
rightKerningGroup = P;
unicode = 0050;
},
{
glyphname = Thorn;
lastChange = "2018-07-29 23:24:57 +0000";
layers = (
{
layerId = "9602D73B-DD3D-403F-8CEE-11CABA0497EF";
paths = (
{
closed = 1;
nodes = (
"236 0 LINE",
"258 122 LINE",
"431 122 LINE SMOOTH",
"582 122 OFFCURVE",
"688 246 OFFCURVE",
"688 398 CURVE SMOOTH",
"688 510 OFFCURVE",
"613 588 OFFCURVE",
"498 588 CURVE SMOOTH",
"340 588 LINE",
"358 688 LINE",
"137 688 LINE",
"15 0 LINE"
);
},
{
closed = 1;
nodes = (
"311 425 LINE",
"399 425 LINE SMOOTH",
"439 425 OFFCURVE",
"462 405 OFFCURVE",
"462 370 CURVE SMOOTH",
"462 320 OFFCURVE",
"437 283 OFFCURVE",
"380 283 CURVE SMOOTH",
"286 283 LINE"
);
}
);
width = 717;
}
);
leftKerningGroup = H;
note = Thorn;
rightKerningGroup = P;
unicode = 00DE;
},
{
glyphname = Q;
lastChange = "2018-07-29 23:24:57 +0000";
layers = (
{
layerId = "9602D73B-DD3D-403F-8CEE-11CABA0497EF";
paths = (
{
closed = 1;
nodes = (
"702 -131 LINE",
"573 29 LINE",
"720 96 OFFCURVE",
"794 252 OFFCURVE",
"794 418 CURVE SMOOTH",
"794 602 OFFCURVE",
"675 700 OFFCURVE",
"468 700 CURVE SMOOTH",
"356 700 OFFCURVE",
"263 674 OFFCURVE",
"192 621 CURVE SMOOTH",
"88 542 OFFCURVE",
"37 403 OFFCURVE",
"37 269 CURVE SMOOTH",
"37 101 OFFCURVE",
"155 -9 OFFCURVE",
"314 -9 CURVE SMOOTH",
"328 -9 OFFCURVE",
"342 -9 OFFCURVE",
"356 -7 CURVE",
"456 -131 LINE"
);
},
{
closed = 1;
nodes = (
"297 153 OFFCURVE",
"261 200 OFFCURVE",
"261 271 CURVE SMOOTH",
"261 284 OFFCURVE",
"262 296 OFFCURVE",
"264 310 CURVE SMOOTH",
"288 469 OFFCURVE",
"339 535 OFFCURVE",
"451 535 CURVE SMOOTH",
"533 535 OFFCURVE",
"570 488 OFFCURVE",
"570 416 CURVE SMOOTH",
"570 404 OFFCURVE",
"569 391 OFFCURVE",
"567 378 CURVE SMOOTH",
"543 220 OFFCURVE",
"492 153 OFFCURVE",
"379 153 CURVE SMOOTH"
);
}
);
width = 830;
}
);
leftKerningGroup = O;
note = Q;
rightKerningGroup = O;
unicode = 0051;
},
{
glyphname = R;
lastChange = "2018-07-29 23:24:57 +0000";
layers = (
{
anchors = (
{
name = bottom;
position = "{338, 0}";
},
{
name = top;
position = "{426, 688}";
}
);
background = {
paths = (
{
closed = 1;
nodes = (
"137 688 LINE",
"15 0 LINE",
"236 0 LINE",
"281 251 LINE",
"363 251 LINE",
"440 0 LINE",
"688 0 LINE",
"586 288 LINE",
"681 321 OFFCURVE",
"738 397 OFFCURVE",
"752 477 CURVE SMOOTH",
"772 589 OFFCURVE",
"711 688 OFFCURVE",
"558 688 CURVE SMOOTH"
);
},
{
closed = 1;
nodes = (
"308 404 LINE",
"330 531 LINE",
"475 531 LINE SMOOTH",
"509 531 OFFCURVE",
"532 505 OFFCURVE",
"526 468 CURVE SMOOTH",
"519 431 OFFCURVE",
"487 404 OFFCURVE",
"453 404 CURVE SMOOTH"
);
}
);
};
layerId = "9602D73B-DD3D-403F-8CEE-11CABA0497EF";
paths = (
{
closed = 1;
nodes = (
"236 0 LINE",
"281 251 LINE",
"367 251 LINE",
"444 0 LINE",
"688 0 LINE",
"586 288 LINE",
"691 318 OFFCURVE",
"755 400 OFFCURVE",
"755 509 CURVE SMOOTH",
"755 613 OFFCURVE",
"675 688 OFFCURVE",
"550 688 CURVE SMOOTH",
"137 688 LINE",
"15 0 LINE"
);
},
{
closed = 1;
nodes = (
"330 531 LINE",
"472 531 LINE SMOOTH",
"504 531 OFFCURVE",
"527 511 OFFCURVE",
"527 480 CURVE SMOOTH",
"527 443 OFFCURVE",
"501 404 OFFCURVE",
"459 404 CURVE SMOOTH",
"308 404 LINE"
);
}
);
width = 774;
}
);
leftKerningGroup = H;
note = R;
rightKerningGroup = R;
unicode = 0052;
},
{
glyphname = S;
lastChange = "2018-07-29 23:24:57 +0000";
layers = (
{
anchors = (
{
name = bottom;
position = "{297, 0}";
},
{
name = top;
position = "{403, 688}";
}
);
background = {
paths = (
{
closed = 1;
nodes = (
"484 -12 OFFCURVE",
"626 57 OFFCURVE",
"657 228 CURVE",
"697 483 OFFCURVE",
"281 402 OFFCURVE",
"299 505 CURVE SMOOTH",
"304 529 OFFCURVE",
"337 550 OFFCURVE",
"398 550 CURVE SMOOTH",
"462 550 OFFCURVE",
"481 516 OFFCURVE",
"475 480 CURVE SMOOTH",
"474 476 LINE",
"681 476 LINE",
"683 488 LINE",
"706 635 OFFCURVE",
"583 700 OFFCURVE",
"417 700 CURVE SMOOTH",
"254 700 OFFCURVE",
"97 640 OFFCURVE",
"69 480 CURVE SMOOTH",
"22 212 OFFCURVE",
"442 291 OFFCURVE",
"424 192 CURVE SMOOTH",
"417 149 OFFCURVE",
"359 146 OFFCURVE",
"319 146 CURVE SMOOTH",
"254 146 OFFCURVE",
"210 158 OFFCURVE",
"221 219 CURVE SMOOTH",
"222 223 OFFCURVE",
"223 228 OFFCURVE",
"224 233 CURVE",
"15 233 LINE",
"14 228 OFFCURVE",
"13 223 OFFCURVE",
"12 220 CURVE SMOOTH",
"-19 35 OFFCURVE",
"121 -12 OFFCURVE",
"311 -12 CURVE SMOOTH"
);
}
);
};
layerId = "9602D73B-DD3D-403F-8CEE-11CABA0497EF";
paths = (
{
closed = 1;
nodes = (
"511 -12 OFFCURVE",
"660 76 OFFCURVE",
"660 257 CURVE SMOOTH",
"660 456 OFFCURVE",
"298 409 OFFCURVE",
"298 499 CURVE SMOOTH",
"298 525 OFFCURVE",
"332 550 OFFCURVE",
"398 550 CURVE SMOOTH",
"455 550 OFFCURVE",
"476 523 OFFCURVE",
"476 492 CURVE SMOOTH",
"476 485 OFFCURVE",
"476 483 OFFCURVE",
"474 476 CURVE",
"681 476 LINE",
"684 494 OFFCURVE",
"686 506 OFFCURVE",
"686 520 CURVE SMOOTH",
"686 644 OFFCURVE",
"559 700 OFFCURVE",
"406 700 CURVE SMOOTH",
"217 700 OFFCURVE",
"65 625 OFFCURVE",
"65 449 CURVE SMOOTH",
"65 234 OFFCURVE",
"422 283 OFFCURVE",
"425 199 CURVE SMOOTH",
"425 151 OFFCURVE",
"363 146 OFFCURVE",
"319 146 CURVE SMOOTH",
"261 146 OFFCURVE",
"219 156 OFFCURVE",
"219 202 CURVE SMOOTH",
"219 209 OFFCURVE",
"221 221 OFFCURVE",
"224 233 CURVE",
"15 233 LINE",
"11 213 OFFCURVE",
"8 196 OFFCURVE",
"8 173 CURVE SMOOTH",
"8 27 OFFCURVE",
"144 -12 OFFCURVE",
"317 -12 CURVE SMOOTH"
);
}
);
width = 703;
}
);
leftKerningGroup = S;
note = S;
rightKerningGroup = S;
unicode = 0053;
},
{
glyphname = Germandbls;
lastChange = "2018-07-29 23:24:57 +0000";
layers = (
{
background = {
paths = (
{
closed = 1;
nodes = (
"12 0 LINE",
"233 0 LINE",
"303 394 LINE SMOOTH",
"320 493 OFFCURVE",
"358 548 OFFCURVE",
"482 548 CURVE SMOOTH",
"574 548 OFFCURVE",
"611 530 OFFCURVE",
"601 476 CURVE SMOOTH",
"595 437 OFFCURVE",
"562 407 OFFCURVE",
"513 407 CURVE SMOOTH",
"360 407 LINE",
"335 264 LINE",
"521 264 LINE SMOOTH",
"568 264 OFFCURVE",
"588 250 OFFCURVE",
"581 211 CURVE SMOOTH",
"574 175 OFFCURVE",
"550 160 OFFCURVE",
"503 160 CURVE SMOOTH",
"317 160 LINE",
"288 0 LINE",
"545 0 LINE SMOOTH",
"684 0 OFFCURVE",
"783 81 OFFCURVE",
"802 189 CURVE SMOOTH",
"816 270 OFFCURVE",
"785 325 OFFCURVE",
"716 345 CURVE",
"718 354 LINE",
"760 379 OFFCURVE",
"816 423 OFFCURVE",
"831 509 CURVE SMOOTH",
"855 646 OFFCURVE",
"701 698 OFFCURVE",
"527 698 CURVE SMOOTH",
"259 698 OFFCURVE",
"115 583 OFFCURVE",
"83 401 CURVE SMOOTH"
);
}
);
};
layerId = "9602D73B-DD3D-403F-8CEE-11CABA0497EF";
paths = (
{
closed = 1;
nodes = (
"233 0 LINE",
"303 394 LINE SMOOTH",
"320 493 OFFCURVE",
"354 548 OFFCURVE",
"478 548 CURVE SMOOTH",
"561 548 OFFCURVE",
"602 531 OFFCURVE",
"602 488 CURVE SMOOTH",
"602 441 OFFCURVE",
"573 407 OFFCURVE",
"518 407 CURVE SMOOTH",
"360 407 LINE",
"335 264 LINE",
"521 264 LINE SMOOTH",
"562 264 OFFCURVE",
"582 253 OFFCURVE",
"582 225 CURVE SMOOTH",
"582 179 OFFCURVE",
"552 160 OFFCURVE",
"503 160 CURVE SMOOTH",
"317 160 LINE",
"288 0 LINE",
"552 0 LINE SMOOTH",
"695 0 OFFCURVE",
"805 86 OFFCURVE",
"805 220 CURVE SMOOTH",
"805 282 OFFCURVE",
"774 323 OFFCURVE",
"716 345 CURVE",
"718 354 LINE",
"782 380 OFFCURVE",
"833 448 OFFCURVE",
"833 531 CURVE SMOOTH",
"833 649 OFFCURVE",
"676 698 OFFCURVE",
"513 698 CURVE SMOOTH",
"245 698 OFFCURVE",
"115 583 OFFCURVE",
"83 401 CURVE SMOOTH",
"12 0 LINE"
);
}
);
width = 851;
}
);
leftKerningGroup = H;
note = uni1E9E;
rightKerningGroup = B;
unicode = 1E9E;
},
{
glyphname = Schwa;
lastChange = "2018-07-30 00:30:15 +0000";
layers = (
{
background = {
paths = (
{
closed = 1;
nodes = (
"593 -12 OFFCURVE",
"752 109 OFFCURVE",
"793 344 CURVE SMOOTH",
"834 579 OFFCURVE",
"719 700 OFFCURVE",
"484 700 CURVE SMOOTH",
"282 700 OFFCURVE",
"113 617 OFFCURVE",
"69 446 CURVE",
"292 446 LINE",
"309 517 OFFCURVE",
"369 558 OFFCURVE",
"454 558 CURVE SMOOTH",
"556 558 OFFCURVE",
"595 511 OFFCURVE",
"575 388 CURVE",
"59 388 LINE",
"51 345 LINE SMOOTH",
"11 119 OFFCURVE",
"137 -12 OFFCURVE",
"358 -12 CURVE SMOOTH"
);
},
{
closed = 1;
nodes = (
"307 153 OFFCURVE",
"254 197 OFFCURVE",
"266 266 CURVE",
"549 266 LINE",
"537 197 OFFCURVE",
"467 153 OFFCURVE",
"387 153 CURVE SMOOTH"
);
}
);
};
layerId = "9602D73B-DD3D-403F-8CEE-11CABA0497EF";
paths = (
{
closed = 1;
nodes = (
"498 -12 OFFCURVE",
"603 27 OFFCURVE",
"677 97 CURVE SMOOTH",
"757 172 OFFCURVE",
"801 283 OFFCURVE",
"801 420 CURVE SMOOTH",
"801 602 OFFCURVE",
"673 700 OFFCURVE",
"467 700 CURVE SMOOTH",
"363 700 OFFCURVE",
"284 681 OFFCURVE",
"215 642 CURVE SMOOTH",
"143 601 OFFCURVE",
"91 535 OFFCURVE",
"69 446 CURVE",
"292 446 LINE",
"309 517 OFFCURVE",
"369 558 OFFCURVE",
"454 558 CURVE SMOOTH",
"539 558 OFFCURVE",
"580 526 OFFCURVE",
"580 444 CURVE SMOOTH",
"580 427 OFFCURVE",
"578 409 OFFCURVE",
"575 388 CURVE",
"59 388 LINE",
"51 345 LINE SMOOTH",
"46 319 OFFCURVE",
"44 293 OFFCURVE",
"44 270 CURVE SMOOTH",
"44 90 OFFCURVE",
"173 -12 OFFCURVE",
"368 -12 CURVE SMOOTH"
);
},
{
closed = 1;
nodes = (
"315 153 OFFCURVE",
"264 189 OFFCURVE",
"264 247 CURVE SMOOTH",
"264 253 OFFCURVE",
"265 259 OFFCURVE",
"266 266 CURVE",
"549 266 LINE",
"537 197 OFFCURVE",
"467 153 OFFCURVE",
"387 153 CURVE SMOOTH"
);
}
);
width = 835;
}
);
leftKerningGroup = O;
note = uni018F;
rightKerningGroup = O;
unicode = 018F;
},
{
glyphname = T;
lastChange = "2018-07-29 23:24:57 +0000";
layers = (
{
anchors = (
{
name = bottom;
position = "{300, 0}";
},
{
name = center;
position = "{356, 314}";
},
{
name = top;
position = "{422, 688}";
}
);
layerId = "9602D73B-DD3D-403F-8CEE-11CABA0497EF";
paths = (
{
closed = 1;
nodes = (
"409 0 LINE",
"500 512 LINE",
"725 512 LINE",
"756 688 LINE",
"84 688 LINE",
"53 512 LINE",
"279 512 LINE",
"188 0 LINE"
);
}
);
width = 720;
}
);
leftKerningGroup = T;
note = T;
rightKerningGroup = T;
unicode = 0054;
},
{
glyphname = Tbar;
lastChange = "2018-07-29 23:24:57 +0000";
layers = (
{
layerId = "9602D73B-DD3D-403F-8CEE-11CABA0497EF";
paths = (
{
closed = 1;
nodes = (
"424 0 LINE",
"468 245 LINE",
"630 245 LINE",
"650 363 LINE",
"488 363 LINE",
"515 512 LINE",
"740 512 LINE",
"771 688 LINE",
"99 688 LINE",
"68 512 LINE",
"294 512 LINE",
"267 363 LINE",
"105 363 LINE",
"85 245 LINE",
"247 245 LINE",
"203 0 LINE"
);
}
);
width = 720;
}
);
leftKerningGroup = T;
rightKerningGroup = T;
unicode = 0166;
},
{
glyphname = U;
lastChange = "2018-07-29 23:24:57 +0000";
layers = (
{
anchors = (
{
name = bottom;
position = "{352, 0}";
},
{
name = ogonek;
position = "{475, 0}";
},
{
name = top;
position = "{476, 688}";
},
{
name = topright;
position = "{716, 688}";
}
);
background = {
paths = (
{
closed = 1;
nodes = (
"567 -12 OFFCURVE",
"711 87 OFFCURVE",
"744 277 CURVE SMOOTH",
"817 688 LINE",
"596 688 LINE",
"524 280 LINE SMOOTH",
"511 206 OFFCURVE",
"460 153 OFFCURVE",
"379 153 CURVE SMOOTH",
"298 153 OFFCURVE",
"268 206 OFFCURVE",
"281 280 CURVE SMOOTH",
"353 688 LINE",
"132 688 LINE",
"59 277 LINE SMOOTH",
"26 87 OFFCURVE",
"135 -12 OFFCURVE",
"351 -12 CURVE SMOOTH"
);
}
);
};
layerId = "9602D73B-DD3D-403F-8CEE-11CABA0497EF";
paths = (
{
closed = 1;
nodes = (
"575 -12 OFFCURVE",
"710 80 OFFCURVE",
"743 267 CURVE SMOOTH",
"817 688 LINE",
"596 688 LINE",
"524 280 LINE SMOOTH",
"511 206 OFFCURVE",
"460 153 OFFCURVE",
"379 153 CURVE SMOOTH",
"310 153 OFFCURVE",
"278 191 OFFCURVE",
"278 248 CURVE SMOOTH",
"278 258 OFFCURVE",
"279 269 OFFCURVE",
"281 280 CURVE SMOOTH",
"353 688 LINE",
"132 688 LINE",
"60 282 LINE SMOOTH",
"56 259 OFFCURVE",
"54 238 OFFCURVE",
"54 218 CURVE SMOOTH",
"54 65 OFFCURVE",
"170 -12 OFFCURVE",
"361 -12 CURVE SMOOTH"
);
}
);
width = 823;
}
);
leftKerningGroup = U;
note = U;
rightKerningGroup = U;
unicode = 0055;
},
{
glyphname = V;
lastChange = "2018-07-29 23:24:57 +0000";
layers = (
{
background = {
paths = (
{
closed = 1;
nodes = (
"309 688 LINE",
"73 688 LINE",
"195 0 LINE",
"451 0 LINE",
"816 688 LINE",
"590 688 LINE",
"438 370 LINE",
"370 228 LINE",
"366 228 LINE SMOOTH",
"366 228 OFFCURVE",
"352 335 OFFCURVE",
"348 370 CURVE SMOOTH"
);
}
);
};
layerId = "9602D73B-DD3D-403F-8CEE-11CABA0497EF";
paths = (
{
closed = 1;
nodes = (
"451 0 LINE",
"816 688 LINE",
"582 688 LINE",
"430 370 LINE",
"407 323 OFFCURVE",
"385 275 OFFCURVE",
"362 228 CURVE",
"358 228 LINE SMOOTH",
"358 228 OFFCURVE",
"344 335 OFFCURVE",
"340 370 CURVE SMOOTH",
"301 688 LINE",
"73 688 LINE",
"195 0 LINE"
);
}
);
width = 760;
}
);
leftKerningGroup = V;
note = V;
rightKerningGroup = V;
unicode = 0056;
},
{
glyphname = W;
lastChange = "2018-07-29 23:24:57 +0000";
layers = (
{
anchors = (
{
name = top;
position = "{556, 688}";
}
);
background = {
paths = (
{
closed = 1;
nodes = (
"307 688 LINE",
"77 688 LINE",
"116 0 LINE",
"359 0 LINE",
"484 322 LINE",
"522 419 LINE",
"526 419 LINE",
"526 419 OFFCURVE",
"529 357 OFFCURVE",
"530 322 CURVE SMOOTH",
"541 0 LINE",
"784 0 LINE",
"1067 688 LINE",
"847 688 LINE",
"739 394 LINE SMOOTH",
"726 359 OFFCURVE",
"704 298 OFFCURVE",
"704 298 CURVE SMOOTH",
"700 298 LINE SMOOTH",
"700 298 OFFCURVE",
"698 367 OFFCURVE",
"697 394 CURVE SMOOTH",
"686 688 LINE",
"468 688 LINE",
"357 394 LINE",
"321 298 LINE",
"317 298 LINE",
"315 394 LINE"
);
}
);
};
layerId = "9602D73B-DD3D-403F-8CEE-11CABA0497EF";
paths = (
{
closed = 1;
nodes = (
"355 0 LINE",
"478 322 LINE",
"491 354 OFFCURVE",
"503 387 OFFCURVE",
"516 419 CURVE",
"520 419 LINE",
"520 419 OFFCURVE",
"523 357 OFFCURVE",
"525 322 CURVE SMOOTH",
"541 0 LINE",
"780 0 LINE",
"1067 688 LINE",
"837 688 LINE",
"729 394 LINE SMOOTH",
"716 359 OFFCURVE",
"694 298 OFFCURVE",
"694 298 CURVE SMOOTH",
"690 298 LINE SMOOTH",
"690 298 OFFCURVE",
"688 367 OFFCURVE",
"687 394 CURVE SMOOTH",
"676 688 LINE",
"456 688 LINE",
"345 394 LINE",
"333 362 OFFCURVE",
"321 330 OFFCURVE",
"309 298 CURVE",
"305 298 LINE",
"304 330 OFFCURVE",
"304 362 OFFCURVE",
"303 394 CURVE",
"295 688 LINE",
"77 688 LINE",
"116 0 LINE"
);
}
);
width = 1015;
}
);
leftKerningGroup = V;
note = W;
rightKerningGroup = V;
unicode = 0057;
},
{
glyphname = X;
lastChange = "2018-07-29 23:24:57 +0000";
layers = (
{
background = {
paths = (
{
closed = 1;
nodes = (
"257 364 LINE",
"-54 0 LINE",
"194 0 LINE",
"359 214 LINE",
"363 214 LINE",
"452 0 LINE",
"720 0 LINE",
"538 363 LINE",
"819 688 LINE",
"572 688 LINE",
"436 512 LINE",
"432 512 LINE",
"359 688 LINE",
"92 688 LINE"
);
}
);
};
layerId = "9602D73B-DD3D-403F-8CEE-11CABA0497EF";
paths = (
{
closed = 1;
nodes = (
"207 0 LINE",
"376 208 LINE",
"380 208 LINE",
"465 0 LINE",
"720 0 LINE",
"528 363 LINE",
"819 688 LINE",
"562 688 LINE",
"424 514 LINE",
"420 514 LINE",
"349 688 LINE",
"92 688 LINE",
"267 364 LINE",
"-54 0 LINE"
);
}
);
width = 776;
}
);
leftKerningGroup = X;
note = X;
rightKerningGroup = X;
unicode = 0058;
},
{
glyphname = Y;
lastChange = "2018-07-29 23:24:57 +0000";
layers = (
{
anchors = (
{
name = bottom;
position = "{326, 0}";
},
{
name = top;
position = "{443, 688}";
}
);
background = {
paths = (
{
closed = 1;
nodes = (
"60 688 LINE",
"258 267 LINE",
"211 0 LINE",
"432 0 LINE",
"479 267 LINE",
"823 688 LINE",
"582 688 LINE",
"409 459 LINE",
"405 459 LINE",
"314 688 LINE"
);
}
);
};
layerId = "9602D73B-DD3D-403F-8CEE-11CABA0497EF";
paths = (
{
closed = 1;
nodes = (
"432 0 LINE",
"479 267 LINE",
"823 688 LINE",
"573 688 LINE",
"402 457 LINE",
"398 457 LINE",
"302 688 LINE",
"60 688 LINE",
"258 267 LINE",
"211 0 LINE"
);
}
);
width = 763;
}
);
leftKerningGroup = Y;
note = Y;
rightKerningGroup = Y;
unicode = 0059;
},
{
glyphname = Z;
lastChange = "2018-07-29 23:24:57 +0000";
layers = (
{
anchors = (
{
name = top;
position = "{427, 688}";
}
);
background = {
paths = (
{
closed = 1;
nodes = (
"-22 71 LINE",
"-35 0 LINE",
"632 0 LINE",
"661 165 LINE",
"334 165 LINE",
"733 617 LINE",
"746 688 LINE",
"111 688 LINE",
"82 523 LINE",
"377 523 LINE"
);
}
);
};
layerId = "9602D73B-DD3D-403F-8CEE-11CABA0497EF";
paths = (
{
closed = 1;
nodes = (
"632 0 LINE",
"661 165 LINE",
"346 165 LINE",
"732 609 LINE",
"746 688 LINE",
"111 688 LINE",
"82 523 LINE",
"365 523 LINE",
"-20 80 LINE",
"-35 0 LINE"
);
}
);
width = 711;
}
);
leftKerningGroup = Z;
note = Z;
rightKerningGroup = Z;
unicode = 005A;
},
{
glyphname = Y.loclGUA;
lastChange = "2018-07-29 23:24:57 +0000";
layers = (
{
anchors = (
{
name = top;
position = "{446, 688}";
}
);
background = {
paths = (
{
closed = 1;
nodes = (
"502 -12 OFFCURVE",
"660 58 OFFCURVE",
"692 244 CURVE SMOOTH",
"771 688 LINE",
"550 688 LINE",
"523 538 LINE SMOOTH",
"503 424 OFFCURVE",
"470 377 OFFCURVE",
"388 377 CURVE SMOOTH",
"325 377 OFFCURVE",
"302 410 OFFCURVE",
"314 478 CURVE SMOOTH",
"351 688 LINE",
"130 688 LINE",
"83 421 LINE SMOOTH",
"56 272 OFFCURVE",
"154 214 OFFCURVE",
"299 214 CURVE SMOOTH",
"374 214 OFFCURVE",
"434 235 OFFCURVE",
"477 284 CURVE",
"484 284 LINE",
"476 238 LINE SMOOTH",
"465 171 OFFCURVE",
"434 143 OFFCURVE",
"351 143 CURVE SMOOTH",
"278 143 OFFCURVE",
"257 154 OFFCURVE",
"263 191 CURVE",
"42 191 LINE",
"37 161 LINE SMOOTH",
"15 36 OFFCURVE",
"130 -12 OFFCURVE",
"299 -12 CURVE SMOOTH"
);
}
);
};
layerId = "9602D73B-DD3D-403F-8CEE-11CABA0497EF";
paths = (
{
closed = 1;
nodes = (
"519 -12 OFFCURVE",
"659 55 OFFCURVE",
"692 241 CURVE SMOOTH",
"771 688 LINE",
"550 688 LINE",
"524 543 LINE SMOOTH",
"504 429 OFFCURVE",
"471 382 OFFCURVE",
"389 382 CURVE SMOOTH",
"337 382 OFFCURVE",
"312 405 OFFCURVE",
"312 451 CURVE SMOOTH",
"312 461 OFFCURVE",
"313 471 OFFCURVE",
"315 483 CURVE SMOOTH",
"351 688 LINE",
"130 688 LINE",
"84 426 LINE SMOOTH",
"81 409 OFFCURVE",
"80 394 OFFCURVE",
"80 379 CURVE SMOOTH",
"80 265 OFFCURVE",
"171 219 OFFCURVE",
"300 219 CURVE SMOOTH",
"375 219 OFFCURVE",
"435 240 OFFCURVE",
"478 289 CURVE",
"485 289 LINE",
"474 225 LINE SMOOTH",
"463 163 OFFCURVE",
"413 143 OFFCURVE",
"350 143 CURVE SMOOTH",
"302 143 OFFCURVE",
"261 150 OFFCURVE",
"263 184 CURVE",
"38 184 LINE",
"38 169 LINE SMOOTH",
"38 35 OFFCURVE",
"126 -12 OFFCURVE",
"316 -12 CURVE SMOOTH"
);
}
);
width = 783;
}
);
leftKerningGroup = Y.loclGUA;
note = Y.loclGUA;
rightKerningGroup = Y.loclGUA;
},
{
glyphname = a;
lastChange = "2018-08-11 19:17:59 +0000";
layers = (
{
anchors = (
{
name = bottom;
position = "{276, 0}";
},
{
name = ogonek;
position = "{610, 8}";
},
{
name = top;
position = "{348, 528}";
}
);
layerId = "9602D73B-DD3D-403F-8CEE-11CABA0497EF";
paths = (
{
closed = 1;
nodes = (
"265 -11 OFFCURVE",
"324 6 OFFCURVE",
"378 64 CURVE",
"385 64 LINE",
"398 9 OFFCURVE",
"444 -12 OFFCURVE",
"509 -12 CURVE SMOOTH",
"542 -12 OFFCURVE",
"579 -4 OFFCURVE",
"610 8 CURVE",
"629 114 LINE",
"600 114 LINE SMOOTH",
"585 114 OFFCURVE",
"575 122 OFFCURVE",
"575 141 CURVE SMOOTH",
"575 155 OFFCURVE",
"590 237 OFFCURVE",
"611 351 CURVE SMOOTH",
"643 528 LINE",
"487 528 LINE",
"441 461 LINE",
"434 461 LINE",
"408 506 OFFCURVE",
"365 540 OFFCURVE",
"289 540 CURVE SMOOTH",
"111 540 OFFCURVE",
"22 373 OFFCURVE",
"22 215 CURVE SMOOTH",
"22 68 OFFCURVE",
"96 -11 OFFCURVE",
"211 -11 CURVE SMOOTH"
);
},
{
closed = 1;
nodes = (
"242 125 OFFCURVE",
"222 169 OFFCURVE",
"222 219 CURVE SMOOTH",
"222 317 OFFCURVE",
"253 409 OFFCURVE",
"339 409 CURVE SMOOTH",
"388 409 OFFCURVE",
"405 368 OFFCURVE",
"405 316 CURVE SMOOTH",
"405 220 OFFCURVE",
"367 125 OFFCURVE",
"288 125 CURVE SMOOTH"
);
}
);
width = 671;
}
);
leftKerningGroup = o;
note = a;
rightKerningGroup = a;
unicode = 0061;
},
{
glyphname = ae;
lastChange = "2018-07-29 23:24:57 +0000";
layers = (
{
anchors = (
{
name = top;
position = "{539, 528}";
}
);
background = {
paths = (
{
closed = 1;
nodes = (
"285 -12 OFFCURVE",
"363 23 OFFCURVE",
"420 61 CURVE",
"464 11 OFFCURVE",
"541 -12 OFFCURVE",
"641 -12 CURVE SMOOTH",
"817 -12 OFFCURVE",
"921 66 OFFCURVE",
"943 192 CURVE",
"750 192 LINE",
"743 149 OFFCURVE",
"714 115 OFFCURVE",
"650 115 CURVE SMOOTH",
"594 115 OFFCURVE",
"570 143 OFFCURVE",
"570 192 CURVE SMOOTH",
"570 204 OFFCURVE",
"572 216 OFFCURVE",
"574 230 CURVE",
"950 230 LINE",
"956 264 LINE SMOOTH",
"961 292 OFFCURVE",
"963 317 OFFCURVE",
"963 340 CURVE SMOOTH",
"963 477 OFFCURVE",
"879 540 OFFCURVE",
"727 540 CURVE SMOOTH",
"659 540 OFFCURVE",
"596 524 OFFCURVE",
"542 492 CURVE",
"498 527 OFFCURVE",
"429 540 OFFCURVE",
"354 540 CURVE SMOOTH",
"173 540 OFFCURVE",
"66 474 OFFCURVE",
"49 377 CURVE SMOOTH",
"48 372 OFFCURVE",
"47 368 OFFCURVE",
"47 363 CURVE",
"243 363 LINE",
"244 367 LINE SMOOTH",
"250 402 OFFCURVE",
"295 413 OFFCURVE",
"332 413 CURVE SMOOTH",
"368 413 OFFCURVE",
"395 397 OFFCURVE",
"395 364 CURVE SMOOTH",
"395 359 OFFCURVE",
"395 355 OFFCURVE",
"394 350 CURVE SMOOTH",
"390 324 LINE",
"158 324 OFFCURVE",
"19 295 OFFCURVE",
"-7 146 CURVE SMOOTH",
"-9 133 OFFCURVE",
"-10 121 OFFCURVE",
"-10 110 CURVE SMOOTH",
"-10 17 OFFCURVE",
"67 -12 OFFCURVE",
"191 -12 CURVE SMOOTH"
);
},
{
closed = 1;
nodes = (
"592 324 LINE",
"607 379 OFFCURVE",
"640 413 OFFCURVE",
"698 413 CURVE SMOOTH",
"744 413 OFFCURVE",
"768 388 OFFCURVE",
"768 345 CURVE SMOOTH",
"768 339 OFFCURVE",
"767 332 OFFCURVE",
"766 324 CURVE"
);
},
{
closed = 1;
nodes = (
"223 112 OFFCURVE",
"194 119 OFFCURVE",
"194 151 CURVE SMOOTH",
"194 196 OFFCURVE",
"245 230 OFFCURVE",
"373 230 CURVE",
"365 185 LINE SMOOTH",
"357 142 OFFCURVE",
"305 112 OFFCURVE",
"254 112 CURVE SMOOTH"
);
}
);
};
layerId = "9602D73B-DD3D-403F-8CEE-11CABA0497EF";
paths = (
{
closed = 1;
nodes = (
"293 -12 OFFCURVE",
"368 24 OFFCURVE",
"424 61 CURVE",
"471 12 OFFCURVE",
"551 -12 OFFCURVE",
"651 -12 CURVE SMOOTH",
"836 -12 OFFCURVE",
"922 66 OFFCURVE",
"943 192 CURVE",
"750 192 LINE",
"743 149 OFFCURVE",
"714 115 OFFCURVE",
"650 115 CURVE SMOOTH",
"594 115 OFFCURVE",
"570 143 OFFCURVE",
"570 192 CURVE SMOOTH",
"570 204 OFFCURVE",
"572 216 OFFCURVE",
"574 230 CURVE",
"950 230 LINE",
"956 264 LINE SMOOTH",
"960 287 OFFCURVE",
"962 309 OFFCURVE",
"962 329 CURVE SMOOTH",
"962 465 OFFCURVE",
"874 540 OFFCURVE",
"716 540 CURVE SMOOTH",
"648 540 OFFCURVE",
"589 524 OFFCURVE",
"537 492 CURVE",
"493 527 OFFCURVE",
"419 540 OFFCURVE",
"344 540 CURVE SMOOTH",
"193 540 OFFCURVE",
"51 492 OFFCURVE",
"47 363 CURVE",
"243 363 LINE",
"244 367 LINE SMOOTH",
"250 402 OFFCURVE",
"295 413 OFFCURVE",
"332 413 CURVE SMOOTH",
"368 413 OFFCURVE",
"395 397 OFFCURVE",
"395 364 CURVE SMOOTH",
"395 359 OFFCURVE",
"395 355 OFFCURVE",
"394 350 CURVE SMOOTH",
"390 324 LINE",
"150 324 OFFCURVE",
"-10 299 OFFCURVE",
"-10 120 CURVE SMOOTH",
"-10 27 OFFCURVE",
"75 -12 OFFCURVE",
"199 -12 CURVE SMOOTH"
);
},
{
closed = 1;
nodes = (
"221 112 OFFCURVE",
"194 121 OFFCURVE",
"194 153 CURVE SMOOTH",
"194 198 OFFCURVE",
"245 230 OFFCURVE",
"373 230 CURVE",
"367 194 LINE SMOOTH",
"360 150 OFFCURVE",
"303 112 OFFCURVE",
"252 112 CURVE SMOOTH"
);
},
{
closed = 1;
nodes = (
"607 379 OFFCURVE",
"640 413 OFFCURVE",
"698 413 CURVE SMOOTH",
"744 413 OFFCURVE",
"768 388 OFFCURVE",
"768 345 CURVE SMOOTH",
"768 339 OFFCURVE",
"767 332 OFFCURVE",
"766 324 CURVE",
"592 324 LINE"
);
}
);
width = 1001;
}
);
leftKerningGroup = o;
note = ae;
rightKerningGroup = e;
unicode = 00E6;
},
{
glyphname = b;
lastChange = "2018-07-29 23:24:57 +0000";
layers = (
{
background = {
paths = (
{
closed = 1;
nodes = (
"490 -12 OFFCURVE",
"589 79 OFFCURVE",
"622 265 CURVE SMOOTH",
"654 449 OFFCURVE",
"587 540 OFFCURVE",
"447 540 CURVE SMOOTH",
"390 540 OFFCURVE",
"334 519 OFFCURVE",
"296 479 CURVE",
"289 479 LINE",
"332 725 LINE",
"133 725 LINE",
"5 0 LINE",
"167 0 LINE",
"194 75 LINE",
"201 75 LINE",
"226 15 OFFCURVE",
"282 -12 OFFCURVE",
"350 -12 CURVE SMOOTH"
);
},
{
closed = 1;
nodes = (
"252 135 OFFCURVE",
"235 185 OFFCURVE",
"246 247 CURVE SMOOTH",
"252 280 LINE SMOOTH",
"262 342 OFFCURVE",
"297 393 OFFCURVE",
"359 393 CURVE SMOOTH",
"421 393 OFFCURVE",
"438 352 OFFCURVE",
"427 290 CURVE SMOOTH",
"418 237 LINE SMOOTH",
"407 175 OFFCURVE",
"376 135 OFFCURVE",
"314 135 CURVE SMOOTH"
);
}
);
};
layerId = "9602D73B-DD3D-403F-8CEE-11CABA0497EF";
paths = (
{
closed = 1;
nodes = (
"539 -12 OFFCURVE",
"630 148 OFFCURVE",
"630 339 CURVE SMOOTH",
"630 467 OFFCURVE",
"559 540 OFFCURVE",
"442 540 CURVE SMOOTH",
"380 540 OFFCURVE",
"332 517 OFFCURVE",
"296 479 CURVE",
"289 479 LINE",
"332 725 LINE",
"133 725 LINE",
"5 0 LINE",
"167 0 LINE",
"194 75 LINE",
"201 75 LINE",
"226 15 OFFCURVE",
"290 -12 OFFCURVE",
"358 -12 CURVE SMOOTH"
);
},
{
closed = 1;
nodes = (
"264 128 OFFCURVE",
"243 168 OFFCURVE",
"243 214 CURVE SMOOTH",
"243 297 OFFCURVE",
"283 393 OFFCURVE",
"359 393 CURVE SMOOTH",
"411 393 OFFCURVE",
"430 358 OFFCURVE",
"430 312 CURVE SMOOTH",
"430 224 OFFCURVE",
"398 128 OFFCURVE",
"314 128 CURVE SMOOTH"
);
}
);
width = 667;
}
);
leftKerningGroup = l;
note = b;
rightKerningGroup = b;
unicode = 0062;
},
{
glyphname = c;
lastChange = "2018-07-29 23:24:57 +0000";
layers = (
{
anchors = (
{
name = bottom;
position = "{276, 0}";
},
{
name = top;
position = "{358, 528}";
}
);
layerId = "9602D73B-DD3D-403F-8CEE-11CABA0497EF";
paths = (
{
closed = 1;
nodes = (
"449 -12 OFFCURVE",
"575 54 OFFCURVE",
"605 215 CURVE",
"420 215 LINE",
"406 149 OFFCURVE",
"370 122 OFFCURVE",
"304 122 CURVE SMOOTH",
"242 122 OFFCURVE",
"219 156 OFFCURVE",
"219 216 CURVE SMOOTH",
"219 234 OFFCURVE",
"221 254 OFFCURVE",
"225 276 CURVE SMOOTH",
"238 357 OFFCURVE",
"268 405 OFFCURVE",
"343 405 CURVE SMOOTH",
"402 405 OFFCURVE",
"431 381 OFFCURVE",
"431 332 CURVE SMOOTH",
"431 327 OFFCURVE",
"431 321 OFFCURVE",
"430 315 CURVE",
"623 315 LINE",
"624 324 OFFCURVE",
"624 332 OFFCURVE",
"624 340 CURVE SMOOTH",
"624 479 OFFCURVE",
"513 540 OFFCURVE",
"354 540 CURVE SMOOTH",
"150 540 OFFCURVE",
"22 419 OFFCURVE",
"22 211 CURVE SMOOTH",
"22 70 OFFCURVE",
"131 -12 OFFCURVE",
"288 -12 CURVE SMOOTH"
);
}
);
width = 658;
}
);
leftKerningGroup = o;
note = c;
rightKerningGroup = c;
unicode = 0063;
},
{
glyphname = d;
lastChange = "2018-07-29 23:24:57 +0000";
layers = (
{
anchors = (
{
name = center;
position = "{519, 617}";
},
{
name = topright;
position = "{694, 526}";
}
);
background = {
paths = (
{
closed = 1;
nodes = (
"271 -12 OFFCURVE",
"334 15 OFFCURVE",
"381 75 CURVE",
"388 75 LINE",
"389 0 LINE",
"551 0 LINE",
"679 725 LINE",
"480 725 LINE",
"437 479 LINE",
"430 479 LINE",
"406 521 OFFCURVE",
"355 540 OFFCURVE",
"299 540 CURVE SMOOTH",
"115 540 OFFCURVE",
"20 373 OFFCURVE",
"20 179 CURVE SMOOTH",
"20 51 OFFCURVE",
"86 -12 OFFCURVE",
"202 -12 CURVE SMOOTH"
);
},
{
closed = 1;
nodes = (
"240 135 OFFCURVE",
"219 162 OFFCURVE",
"219 205 CURVE SMOOTH",
"219 297 OFFCURVE",
"248 393 OFFCURVE",
"335 393 CURVE SMOOTH",
"386 393 OFFCURVE",
"407 358 OFFCURVE",
"407 311 CURVE SMOOTH",
"407 227 OFFCURVE",
"371 135 OFFCURVE",
"290 135 CURVE SMOOTH"
);
}
);
};
layerId = "9602D73B-DD3D-403F-8CEE-11CABA0497EF";
paths = (
{
closed = 1;
nodes = (
"276 -12 OFFCURVE",
"337 14 OFFCURVE",
"381 66 CURVE",
"388 66 LINE",
"389 0 LINE",
"551 0 LINE",
"679 725 LINE",
"480 725 LINE",
"437 471 LINE",
"430 471 LINE",
"403 517 OFFCURVE",
"350 540 OFFCURVE",
"289 540 CURVE SMOOTH",
"105 540 OFFCURVE",
"20 382 OFFCURVE",
"20 188 CURVE SMOOTH",
"20 58 OFFCURVE",
"92 -12 OFFCURVE",
"210 -12 CURVE SMOOTH"
);
},
{
closed = 1;
nodes = (
"235 125 OFFCURVE",
"219 162 OFFCURVE",
"219 215 CURVE SMOOTH",
"219 308 OFFCURVE",
"246 409 OFFCURVE",
"331 409 CURVE SMOOTH",
"391 409 OFFCURVE",
"407 369 OFFCURVE",
"407 313 CURVE SMOOTH",
"407 226 OFFCURVE",
"375 125 OFFCURVE",
"294 125 CURVE SMOOTH"
);
}
);
width = 666;
}
);
leftKerningGroup = o;
note = d;
rightKerningGroup = l;
unicode = 0064;
},
{
glyphname = eth;
lastChange = "2018-07-30 00:30:15 +0000";
layers = (
{
background = {
paths = (
{
closed = 1;
nodes = (
"499 -12 OFFCURVE",
"628 128 OFFCURVE",
"628 356 CURVE SMOOTH",
"628 465 OFFCURVE",
"592 548 OFFCURVE",
"551 608 CURVE",
"621 616 LINE",
"635 694 LINE",
"493 678 LINE",
"459 710 OFFCURVE",
"433 725 OFFCURVE",
"433 725 CURVE SMOOTH",
"235 725 LINE",
"233 721 LINE",
"250 709 OFFCURVE",
"276 687 OFFCURVE",
"305 656 CURVE",
"205 645 LINE",
"191 567 LINE",
"359 586 LINE",
"374 564 OFFCURVE",
"389 543 OFFCURVE",
"400 518 CURVE",
"393 511 LINE",
"377 518 OFFCURVE",
"354 524 OFFCURVE",
"333 524 CURVE SMOOTH",
"148 524 OFFCURVE",
"19 384 OFFCURVE",
"19 198 CURVE SMOOTH",
"19 57 OFFCURVE",
"116 -12 OFFCURVE",
"273 -12 CURVE SMOOTH"
);
},
{
closed = 1;
nodes = (
"237 123 OFFCURVE",
"216 153 OFFCURVE",
"216 201 CURVE SMOOTH",
"216 211 OFFCURVE",
"217 223 OFFCURVE",
"219 235 CURVE SMOOTH",
"240 359 OFFCURVE",
"271 405 OFFCURVE",
"352 405 CURVE SMOOTH",
"405 405 OFFCURVE",
"429 374 OFFCURVE",
"429 325 CURVE SMOOTH",
"429 315 OFFCURVE",
"428 304 OFFCURVE",
"426 292 CURVE SMOOTH",
"403 167 OFFCURVE",
"374 123 OFFCURVE",
"292 123 CURVE SMOOTH"
);
}
);
};
layerId = "9602D73B-DD3D-403F-8CEE-11CABA0497EF";
paths = (
{
closed = 1;
nodes = (
"507 -12 OFFCURVE",
"628 128 OFFCURVE",
"628 356 CURVE SMOOTH",
"628 465 OFFCURVE",
"584 548 OFFCURVE",
"541 608 CURVE",
"621 616 LINE",
"635 694 LINE",
"483 678 LINE",
"466 695 OFFCURVE",
"445 712 OFFCURVE",
"423 725 CURVE",
"238 725 LINE",
"235 718 LINE",
"252 706 OFFCURVE",
"276 687 OFFCURVE",
"305 656 CURVE",
"205 645 LINE",
"191 567 LINE",
"359 586 LINE",
"376 564 OFFCURVE",
"389 543 OFFCURVE",
"400 518 CURVE",
"393 511 LINE",
"364 519 OFFCURVE",
"333 523 OFFCURVE",
"305 523 CURVE SMOOTH",
"239 523 OFFCURVE",
"180 502 OFFCURVE",
"135 466 CURVE SMOOTH",
"61 408 OFFCURVE",
"19 317 OFFCURVE",
"19 206 CURVE SMOOTH",
"19 65 OFFCURVE",
"124 -12 OFFCURVE",
"281 -12 CURVE SMOOTH"
);
},
{
closed = 1;
nodes = (
"237 123 OFFCURVE",
"216 153 OFFCURVE",
"216 201 CURVE SMOOTH",
"216 211 OFFCURVE",
"217 223 OFFCURVE",
"219 235 CURVE SMOOTH",
"240 359 OFFCURVE",
"271 405 OFFCURVE",
"352 405 CURVE SMOOTH",
"405 405 OFFCURVE",
"429 374 OFFCURVE",
"429 325 CURVE SMOOTH",
"429 315 OFFCURVE",
"428 304 OFFCURVE",
"426 292 CURVE SMOOTH",
"403 167 OFFCURVE",
"374 123 OFFCURVE",
"292 123 CURVE SMOOTH"
);
}
);
width = 667;
}
);
leftKerningGroup = o;
note = eth;
rightKerningGroup = o;
unicode = 00F0;
},
{
glyphname = dcaron;
lastChange = "2018-07-29 23:24:57 +0000";
layers = (
{
background = {
paths = (
{
closed = 1;
nodes = (
"276 -12 OFFCURVE",
"337 14 OFFCURVE",
"381 66 CURVE",
"388 66 LINE",
"389 0 LINE",
"551 0 LINE",
"679 725 LINE",
"480 725 LINE",
"437 471 LINE",
"430 471 LINE",
"403 517 OFFCURVE",
"350 540 OFFCURVE",
"289 540 CURVE SMOOTH",
"105 540 OFFCURVE",
"20 382 OFFCURVE",
"20 188 CURVE SMOOTH",
"20 58 OFFCURVE",
"92 -12 OFFCURVE",
"210 -12 CURVE SMOOTH"
);
},
{
closed = 1;
nodes = (
"235 125 OFFCURVE",
"219 162 OFFCURVE",
"219 215 CURVE SMOOTH",
"219 308 OFFCURVE",
"246 409 OFFCURVE",
"331 409 CURVE SMOOTH",
"391 409 OFFCURVE",
"407 369 OFFCURVE",
"407 313 CURVE SMOOTH",
"407 226 OFFCURVE",
"375 125 OFFCURVE",
"294 125 CURVE SMOOTH"
);
},
{
closed = 1;
nodes = (
"763 441 LINE",
"857 579 LINE",
"882 719 LINE",
"717 719 LINE",
"690 571 LINE",
"752 571 LINE",
"677 441 LINE"
);
}
);
};
components = (
{
name = d;
},
{
name = caroncomb.alt;
transform = "{1, 0, 0, 1, 648, 0}";
}
);
layerId = "9602D73B-DD3D-403F-8CEE-11CABA0497EF";
width = 666;
}
);
leftKerningGroup = o;
note = dcaron;
rightKerningGroup = dcaron;
unicode = 010F;
},
{
glyphname = dcroat;
lastChange = "2018-07-29 23:24:57 +0000";
layers = (
{
anchors = (
{
name = _center;
position = "{519, 617}";
}
);
background = {
paths = (
{
closed = 1;
nodes = (
"318 676 LINE",
"298 558 LINE",
"732 558 LINE",
"752 676 LINE"
);
}
);
};
components = (
{
name = d;
}
);
layerId = "9602D73B-DD3D-403F-8CEE-11CABA0497EF";
paths = (
{
closed = 1;
nodes = (
"721 575 LINE",
"737 668 LINE",
"316 668 LINE",
"300 575 LINE"
);
}
);
width = 666;
}
);
leftKerningGroup = op;
note = dcroat;
rightKerningGroup = l;
unicode = 0111;
},
{
glyphname = e;
lastChange = "2018-07-29 23:24:57 +0000";
layers = (
{
anchors = (
{
name = bottom;
position = "{283, 0}";
},
{
name = ogonek;
position = "{401, 0}";
},
{
name = top;
position = "{355, 528}";
}
);
layerId = "9602D73B-DD3D-403F-8CEE-11CABA0497EF";
paths = (
{
closed = 1;
nodes = (
"476 -12 OFFCURVE",
"574 66 OFFCURVE",
"603 192 CURVE",
"413 192 LINE",
"404 146 OFFCURVE",
"372 117 OFFCURVE",
"308 117 CURVE SMOOTH",
"240 117 OFFCURVE",
"217 147 OFFCURVE",
"217 200 CURVE SMOOTH",
"217 209 OFFCURVE",
"218 219 OFFCURVE",
"219 230 CURVE",
"613 230 LINE",
"619 264 LINE SMOOTH",
"623 284 OFFCURVE",
"624 304 OFFCURVE",
"624 322 CURVE SMOOTH",
"624 459 OFFCURVE",
"528 540 OFFCURVE",
"354 540 CURVE SMOOTH",
"150 540 OFFCURVE",
"22 419 OFFCURVE",
"22 211 CURVE SMOOTH",
"22 70 OFFCURVE",
"131 -12 OFFCURVE",
"288 -12 CURVE SMOOTH"
);
},
{
closed = 1;
nodes = (
"250 377 OFFCURVE",
"283 408 OFFCURVE",
"348 408 CURVE SMOOTH",
"398 408 OFFCURVE",
"431 387 OFFCURVE",
"431 344 CURVE SMOOTH",
"431 338 OFFCURVE",
"430 331 OFFCURVE",
"429 324 CURVE",
"235 324 LINE"
);
}
);
width = 664;
}
);
leftKerningGroup = o;
note = e;
rightKerningGroup = e;
unicode = 0065;
},
{
glyphname = f;
lastChange = "2018-07-29 23:24:57 +0000";
layers = (
{
layerId = "9602D73B-DD3D-403F-8CEE-11CABA0497EF";
paths = (
{
closed = 1;
nodes = (
"119 -210 OFFCURVE",
"183 -157 OFFCURVE",
"205 -29 CURVE SMOOTH",
"279 393 LINE",
"381 393 LINE",
"405 528 LINE",
"303 528 LINE",
"307 549 LINE SMOOTH",
"313 586 OFFCURVE",
"328 602 OFFCURVE",
"372 602 CURVE SMOOTH",
"418 602 LINE",
"439 719 LINE",
"415 728 OFFCURVE",
"358 737 OFFCURVE",
"324 737 CURVE SMOOTH",
"209 737 OFFCURVE",
"135 697 OFFCURVE",
"108 550 CURVE SMOOTH",
"104 528 LINE",
"30 528 LINE",
"6 393 LINE",
"80 393 LINE",
"10 -9 LINE SMOOTH",
"3 -50 OFFCURVE",
"-17 -73 OFFCURVE",
"-57 -73 CURVE SMOOTH",
"-109 -73 LINE",
"-130 -192 LINE",
"-101 -203 OFFCURVE",
"-41 -210 OFFCURVE",
"-9 -210 CURVE SMOOTH"
);
}
);
width = 381;
}
);
leftKerningGroup = f;
note = f;
rightKerningGroup = f;
unicode = 0066;
},
{
glyphname = g;
lastChange = "2018-08-11 19:20:49 +0000";
layers = (
{
anchors = (
{
name = top;
position = "{331, 528}";
}
);
layerId = "9602D73B-DD3D-403F-8CEE-11CABA0497EF";
paths = (
{
closed = 1;
nodes = (
"409 -210 OFFCURVE",
"524 -136 OFFCURVE",
"555 38 CURVE SMOOTH",
"641 528 LINE",
"479 528 LINE",
"449 453 LINE",
"442 453 LINE",
"418 510 OFFCURVE",
"355 540 OFFCURVE",
"285 540 CURVE SMOOTH",
"107 540 OFFCURVE",
"25 406 OFFCURVE",
"25 218 CURVE SMOOTH",
"25 90 OFFCURVE",
"99 28 OFFCURVE",
"215 28 CURVE SMOOTH",
"269 28 OFFCURVE",
"319 49 OFFCURVE",
"358 88 CURVE",
"365 88 LINE",
"356 38 LINE SMOOTH",
"342 -39 OFFCURVE",
"313 -75 OFFCURVE",
"240 -75 CURVE SMOOTH",
"198 -75 OFFCURVE",
"183 -54 OFFCURVE",
"181 -21 CURVE",
"-13 -21 LINE",
"-13 -43 LINE SMOOTH",
"-13 -151 OFFCURVE",
"78 -210 OFFCURVE",
"233 -210 CURVE SMOOTH"
);
},
{
closed = 1;
nodes = (
"243 165 OFFCURVE",
"224 194 OFFCURVE",
"224 238 CURVE SMOOTH",
"224 328 OFFCURVE",
"253 409 OFFCURVE",
"331 409 CURVE SMOOTH",
"384 409 OFFCURVE",
"405 377 OFFCURVE",
"404 329 CURVE SMOOTH",
"404 249 OFFCURVE",
"368 165 OFFCURVE",
"295 165 CURVE SMOOTH"
);
}
);
width = 663;
}
);
leftKerningGroup = o;
note = g;
rightKerningGroup = g;
unicode = 0067;
},
{
glyphname = h;
lastChange = "2018-07-29 23:24:57 +0000";
layers = (
{
anchors = (
{
name = bottom;
position = "{283, 0}";
},
{
name = center;
position = "{269, 627}";
},
{
name = top;
position = "{227, 698}";
}
);
layerId = "9602D73B-DD3D-403F-8CEE-11CABA0497EF";
paths = (
{
closed = 1;
nodes = (
"206 0 LINE",
"261 310 LINE SMOOTH",
"270 358 OFFCURVE",
"306 393 OFFCURVE",
"359 393 CURVE SMOOTH",
"399 393 OFFCURVE",
"414 374 OFFCURVE",
"414 338 CURVE SMOOTH",
"414 334 OFFCURVE",
"413 327 OFFCURVE",
"411 316 CURVE SMOOTH",
"356 0 LINE",
"555 0 LINE",
"613 322 LINE SMOOTH",
"620 363 OFFCURVE",
"621 379 OFFCURVE",
"621 398 CURVE SMOOTH",
"621 493 OFFCURVE",
"577 540 OFFCURVE",
"467 540 CURVE SMOOTH",
"405 540 OFFCURVE",
"344 518 OFFCURVE",
"297 473 CURVE",
"290 473 LINE",
"335 725 LINE",
"136 725 LINE",
"7 0 LINE"
);
}
);
width = 669;
}
);
leftKerningGroup = l;
note = h;
rightKerningGroup = n;
rightMetricsKey = n;
unicode = 0068;
},
{
glyphname = hbar;
lastChange = "2018-07-30 00:30:15 +0000";
layers = (
{
components = (
{
name = h;
}
);
layerId = "9602D73B-DD3D-403F-8CEE-11CABA0497EF";
paths = (
{
closed = 1;
nodes = (
"476 575 LINE",
"492 668 LINE",
"71 668 LINE",
"55 575 LINE"
);
}
);
width = 669;
}
);
leftKerningGroup = hbar;
rightKerningGroup = hbar;
unicode = 0127;
},
{
glyphname = i;
lastChange = "2018-07-29 23:24:57 +0000";
layers = (
{
background = {
paths = (
{
closed = 1;
nodes = (
"207 0 LINE",
"300 528 LINE",
"101 528 LINE",
"8 0 LINE"
);
},
{
closed = 1;
nodes = (
"311 590 LINE",
"335 725 LINE",
"136 725 LINE",
"112 590 LINE"
);
}
);
};
components = (
{
name = idotless;
}
);
layerId = "9602D73B-DD3D-403F-8CEE-11CABA0497EF";
paths = (
{
closed = 1;
nodes = (
"309 584 LINE",
"334 723 LINE",
"136 723 LINE",
"111 584 LINE"
);
}
);
width = 323;
}
);
leftKerningGroup = i;
note = i;
rightKerningGroup = i;
unicode = 0069;
},
{
glyphname = idotless;
lastChange = "2018-07-29 23:24:57 +0000";
layers = (
{
anchors = (
{
name = bottom;
position = "{109, 0}";
},
{
name = ogonek;
position = "{164, 0}";
},
{
name = top;
position = "{199, 528}";
}
);
layerId = "9602D73B-DD3D-403F-8CEE-11CABA0497EF";
paths = (
{
closed = 1;
nodes = (
"207 0 LINE",
"300 528 LINE",
"101 528 LINE",
"8 0 LINE"
);
}
);
width = 323;
}
);
leftKerningGroup = i;
note = dotlessi;
rightKerningGroup = i;
unicode = 0131;
},
{
glyphname = j;
lastChange = "2018-07-29 23:24:57 +0000";
layers = (
{
layerId = "9602D73B-DD3D-403F-8CEE-11CABA0497EF";
paths = (
{
closed = 1;
nodes = (
"124 -210 OFFCURVE",
"176 -157 OFFCURVE",
"199 -29 CURVE SMOOTH",
"298 528 LINE",
"99 528 LINE",
"4 -9 LINE SMOOTH",
"-3 -50 OFFCURVE",
"-23 -73 OFFCURVE",
"-63 -73 CURVE SMOOTH",
"-115 -73 LINE",
"-136 -192 LINE",
"-106 -202 OFFCURVE",
"-41 -210 OFFCURVE",
"-6 -210 CURVE SMOOTH"
);
},
{
closed = 1;
nodes = (
"309 590 LINE",
"332 725 LINE",
"133 725 LINE",
"110 590 LINE"
);
}
);
width = 321;
}
);
leftKerningGroup = j;
note = j;
rightKerningGroup = i;
unicode = 006A;
},
{
glyphname = jdotless;
lastChange = "2018-07-29 23:24:57 +0000";
layers = (
{
anchors = (
{
name = top;
position = "{194, 528}";
}
);
layerId = "9602D73B-DD3D-403F-8CEE-11CABA0497EF";
paths = (
{
closed = 1;
nodes = (
"124 -210 OFFCURVE",
"176 -157 OFFCURVE",
"199 -29 CURVE SMOOTH",
"298 528 LINE",
"99 528 LINE",
"4 -9 LINE SMOOTH",
"-3 -50 OFFCURVE",
"-23 -73 OFFCURVE",
"-63 -73 CURVE SMOOTH",
"-115 -73 LINE",
"-136 -192 LINE",
"-106 -202 OFFCURVE",
"-41 -210 OFFCURVE",
"-6 -210 CURVE SMOOTH"
);
}
);
width = 321;
}
);
leftKerningGroup = j;
note = uni0237;
rightKerningGroup = i;
unicode = 0237;
},
{
glyphname = jacute;
lastChange = "2018-08-03 01:09:54 +0000";
layers = (
{
background = {
paths = (
{
closed = 1;
nodes = (
"447 -210 OFFCURVE",
"499 -157 OFFCURVE",
"522 -29 CURVE SMOOTH",
"621 528 LINE",
"422 528 LINE",
"327 -9 LINE SMOOTH",
"320 -50 OFFCURVE",
"300 -73 OFFCURVE",
"260 -73 CURVE SMOOTH",
"208 -73 LINE",
"187 -192 LINE",
"217 -202 OFFCURVE",
"282 -210 OFFCURVE",
"317 -210 CURVE SMOOTH"
);
},
{
closed = 1;
nodes = (
"207 0 LINE",
"300 528 LINE",
"101 528 LINE",
"8 0 LINE"
);
},
{
closed = 1;
nodes = (
"261 592 LINE",
"444 721 LINE",
"443 725 LINE",
"250 725 LINE",
"134 592 LINE"
);
},
{
closed = 1;
nodes = (
"568 592 LINE",
"751 721 LINE",
"750 725 LINE",
"557 725 LINE",
"441 592 LINE"
);
}
);
};
components = (
{
name = idotless;
},
{
name = acutecomb;
transform = "{1, 0, 0, 1, 65, 0}";
},
{
name = jdotless;
transform = "{1, 0, 0, 1, 323, 0}";
},
{
name = acutecomb;
transform = "{1, 0, 0, 1, 383, 0}";
}
);
layerId = "9602D73B-DD3D-403F-8CEE-11CABA0497EF";
width = 644;
}
);
leftKerningGroup = i;
rightKerningGroup = i;
},
{
glyphname = k;
lastChange = "2018-07-29 23:24:57 +0000";
layers = (
{
anchors = (
{
name = bottom;
position = "{289, 0}";
}
);
background = {
paths = (
{
closed = 1;
nodes = (
"334 726 LINE",
"135 726 LINE",
"7 0 LINE",
"206 0 LINE",
"226 114 LINE",
"307 181 LINE",
"386 0 LINE",
"612 0 LINE",
"468 315 LINE",
"700 528 LINE",
"468 528 LINE",
"263 326 LINE"
);
}
);
};
layerId = "9602D73B-DD3D-403F-8CEE-11CABA0497EF";
paths = (
{
closed = 1;
nodes = (
"206 0 LINE",
"226 114 LINE",
"315 188 LINE",
"396 0 LINE",
"612 0 LINE",
"465 319 LINE",
"700 528 LINE",
"468 528 LINE",
"263 326 LINE",
"334 726 LINE",
"135 726 LINE",
"7 0 LINE"
);
}
);
width = 673;
}
);
leftKerningGroup = l;
note = k;
rightKerningGroup = k;
unicode = 006B;
},
{
glyphname = kgreenlandic;
lastChange = "2018-07-29 23:24:57 +0000";
layers = (
{
layerId = "9602D73B-DD3D-403F-8CEE-11CABA0497EF";
paths = (
{
closed = 1;
nodes = (
"206 0 LINE",
"226 114 LINE",
"315 188 LINE",
"396 0 LINE",
"612 0 LINE",
"465 319 LINE",
"700 528 LINE",
"468 528 LINE",
"263 326 LINE",
"299 528 LINE",
"100 528 LINE",
"7 0 LINE"
);
}
);
width = 673;
}
);
leftKerningGroup = n;
note = kgreenlandic;
rightKerningGroup = k;
unicode = 0138;
},
{
glyphname = l;
lastChange = "2018-07-29 23:24:57 +0000";
layers = (
{
anchors = (
{
name = bottom;
position = "{106, 0}";
},
{
name = center;
position = "{401, 360}";
},
{
name = top;
position = "{230, 700}";
},
{
name = topright;
position = "{349, 526}";
}
);
layerId = "9602D73B-DD3D-403F-8CEE-11CABA0497EF";
paths = (
{
closed = 1;
nodes = (
"206 0 LINE",
"334 725 LINE",
"135 725 LINE",
"7 0 LINE"
);
}
);
width = 322;
}
);
leftKerningGroup = l;
note = l;
rightKerningGroup = l;
unicode = 006C;
},
{
glyphname = lcaron;
lastChange = "2018-07-29 23:24:57 +0000";
layers = (
{
background = {
paths = (
{
closed = 1;
nodes = (
"206 0 LINE",
"334 725 LINE",
"135 725 LINE",
"7 0 LINE"
);
},
{
closed = 1;
nodes = (
"448 411 LINE",
"537 549 LINE",
"562 689 LINE",
"397 689 LINE",
"370 541 LINE",
"427 541 LINE",
"357 411 LINE"
);
}
);
};
components = (
{
name = l;
},
{
name = caroncomb.alt;
transform = "{1, 0, 0, 1, 303, 0}";
}
);
layerId = "9602D73B-DD3D-403F-8CEE-11CABA0497EF";
width = 322;
}
);
leftKerningGroup = h;
note = lcaron;
rightKerningGroup = dcaron;
unicode = 013E;
},
{
glyphname = ldot;
lastChange = "2018-07-29 23:24:57 +0000";
layers = (
{
background = {
paths = (
{
closed = 1;
nodes = (
"206 0 LINE",
"334 725 LINE",
"135 725 LINE",
"7 0 LINE"
);
},
{
closed = 1;
nodes = (
"506 320 LINE",
"534 459 LINE",
"381 459 LINE",
"353 320 LINE"
);
}
);
};
components = (
{
name = l;
},
{
name = periodcentered.loclCAT;
transform = "{1, 0, 0, 1, 287, 0}";
}
);
layerId = "9602D73B-DD3D-403F-8CEE-11CABA0497EF";
width = 322;
}
);
leftKerningGroup = h;
note = ldot;
rightKerningGroup = ldot;
unicode = 0140;
},
{
glyphname = lslash;
lastChange = "2018-07-29 23:24:57 +0000";
layers = (
{
components = (
{
name = l;
}
);
layerId = "9602D73B-DD3D-403F-8CEE-11CABA0497EF";
paths = (
{
closed = 1;
nodes = (
"365 403 LINE",
"384 511 LINE",
"-32 293 LINE",
"-51 187 LINE"
);
}
);
width = 322;
}
);
leftKerningGroup = l;
note = lslash;
rightKerningGroup = l;
unicode = 0142;
},
{
glyphname = m;
lastChange = "2018-07-29 23:24:57 +0000";
layers = (
{
background = {
paths = (
{
closed = 1;
nodes = (
"264 528 LINE",
"101 528 LINE",
"8 0 LINE",
"207 0 LINE",
"262 310 LINE SMOOTH",
"270 355 OFFCURVE",
"308 393 OFFCURVE",
"356 393 CURVE SMOOTH",
"397 393 OFFCURVE",
"413 362 OFFCURVE",
"405 318 CURVE SMOOTH",
"349 0 LINE",
"548 0 LINE",
"603 310 LINE SMOOTH",
"611 355 OFFCURVE",
"649 393 OFFCURVE",
"697 393 CURVE SMOOTH",
"738 393 OFFCURVE",
"754 362 OFFCURVE",
"746 318 CURVE SMOOTH",
"690 0 LINE",
"889 0 LINE",
"950 342 LINE SMOOTH",
"972 467 OFFCURVE",
"927 540 OFFCURVE",
"805 540 CURVE SMOOTH",
"736 540 OFFCURVE",
"663 509 OFFCURVE",
"615 449 CURVE",
"608 449 LINE",
"592 507 OFFCURVE",
"545 540 OFFCURVE",
"464 540 CURVE SMOOTH",
"394 540 OFFCURVE",
"318 509 OFFCURVE",
"271 449 CURVE",
"264 449 LINE"
);
}
);
};
layerId = "9602D73B-DD3D-403F-8CEE-11CABA0497EF";
paths = (
{
closed = 1;
nodes = (
"207 0 LINE",
"260 298 LINE SMOOTH",
"268 343 OFFCURVE",
"303 393 OFFCURVE",
"353 393 CURVE SMOOTH",
"389 393 OFFCURVE",
"407 373 OFFCURVE",
"407 339 CURVE SMOOTH",
"407 332 OFFCURVE",
"406 325 OFFCURVE",
"405 318 CURVE SMOOTH",
"349 0 LINE",
"548 0 LINE",
"601 298 LINE SMOOTH",
"609 343 OFFCURVE",
"644 393 OFFCURVE",
"694 393 CURVE SMOOTH",
"730 393 OFFCURVE",
"748 373 OFFCURVE",
"748 339 CURVE SMOOTH",
"748 332 OFFCURVE",
"747 325 OFFCURVE",
"746 318 CURVE SMOOTH",
"690 0 LINE",
"889 0 LINE",
"950 342 LINE SMOOTH",
"953 361 OFFCURVE",
"955 378 OFFCURVE",
"955 395 CURVE SMOOTH",
"955 487 OFFCURVE",
"903 540 OFFCURVE",
"800 540 CURVE SMOOTH",
"731 540 OFFCURVE",
"663 509 OFFCURVE",
"615 449 CURVE",
"608 449 LINE",
"590 507 OFFCURVE",
"537 540 OFFCURVE",
"459 540 CURVE SMOOTH",
"389 540 OFFCURVE",
"318 509 OFFCURVE",
"271 449 CURVE",
"264 449 LINE",
"264 528 LINE",
"101 528 LINE",
"8 0 LINE"
);
}
);
width = 1002;
}
);
leftKerningGroup = n;
note = m;
rightKerningGroup = n;
unicode = 006D;
},
{
glyphname = n;
lastChange = "2018-07-29 23:24:57 +0000";
layers = (
{
anchors = (
{
name = bottom;
position = "{276, 0}";
},
{
name = top;
position = "{368, 528}";
},
{
name = topright;
position = "{181, 528}";
}
);
background = {
paths = (
{
closed = 1;
nodes = (
"101 528 LINE",
"8 0 LINE",
"207 0 LINE",
"262 310 LINE SMOOTH",
"271 358 OFFCURVE",
"307 393 OFFCURVE",
"360 393 CURVE SMOOTH",
"400 393 OFFCURVE",
"415 374 OFFCURVE",
"415 338 CURVE SMOOTH",
"415 332 OFFCURVE",
"414 325 OFFCURVE",
"413 318 CURVE SMOOTH",
"357 0 LINE",
"556 0 LINE",
"617 342 LINE SMOOTH",
"621 362 OFFCURVE",
"622 381 OFFCURVE",
"622 398 CURVE SMOOTH",
"622 493 OFFCURVE",
"578 540 OFFCURVE",
"468 540 CURVE SMOOTH",
"395 540 OFFCURVE",
"322 510 OFFCURVE",
"270 448 CURVE",
"263 448 LINE",
"264 528 LINE"
);
}
);
};
layerId = "9602D73B-DD3D-403F-8CEE-11CABA0497EF";
paths = (
{
closed = 1;
nodes = (
"207 0 LINE",
"262 310 LINE SMOOTH",
"271 358 OFFCURVE",
"307 393 OFFCURVE",
"360 393 CURVE SMOOTH",
"400 393 OFFCURVE",
"415 374 OFFCURVE",
"415 338 CURVE SMOOTH",
"415 334 OFFCURVE",
"414 327 OFFCURVE",
"412 316 CURVE SMOOTH",
"357 0 LINE",
"556 0 LINE",
"614 322 LINE SMOOTH",
"621 363 OFFCURVE",
"622 379 OFFCURVE",
"622 398 CURVE SMOOTH",
"622 493 OFFCURVE",
"578 540 OFFCURVE",
"468 540 CURVE SMOOTH",
"395 540 OFFCURVE",
"322 510 OFFCURVE",
"270 448 CURVE",
"263 448 LINE",
"264 528 LINE",
"101 528 LINE",
"8 0 LINE"
);
}
);
width = 670;
}
);
leftKerningGroup = n;
note = n;
rightKerningGroup = n;
unicode = 006E;
},
{
glyphname = eng;
lastChange = "2018-07-29 23:24:57 +0000";
layers = (
{
layerId = "9602D73B-DD3D-403F-8CEE-11CABA0497EF";
paths = (
{
closed = 1;
nodes = (
"475 -210 OFFCURVE",
"527 -157 OFFCURVE",
"550 -29 CURVE",
"614 322 LINE",
"621 363 OFFCURVE",
"622 379 OFFCURVE",
"622 398 CURVE SMOOTH",
"622 493 OFFCURVE",
"578 540 OFFCURVE",
"468 540 CURVE SMOOTH",
"395 540 OFFCURVE",
"322 510 OFFCURVE",
"270 448 CURVE",
"263 448 LINE",
"264 528 LINE",
"101 528 LINE",
"8 0 LINE",
"207 0 LINE",
"262 310 LINE SMOOTH",
"271 358 OFFCURVE",
"307 393 OFFCURVE",
"360 393 CURVE SMOOTH",
"400 393 OFFCURVE",
"415 374 OFFCURVE",
"415 338 CURVE SMOOTH",
"415 334 OFFCURVE",
"414 327 OFFCURVE",
"412 316 CURVE SMOOTH",
"355 -9 LINE SMOOTH",
"348 -50 OFFCURVE",
"328 -73 OFFCURVE",
"288 -73 CURVE SMOOTH",
"236 -73 LINE",
"215 -192 LINE",
"245 -202 OFFCURVE",
"310 -210 OFFCURVE",
"345 -210 CURVE SMOOTH"
);
}
);
width = 670;
}
);
leftKerningGroup = n;
note = eng;
rightKerningGroup = n;
unicode = 014B;
},
{
glyphname = nhookleft;
lastChange = "2018-07-29 23:24:57 +0000";
layers = (
{
layerId = "9602D73B-DD3D-403F-8CEE-11CABA0497EF";
paths = (
{
closed = 1;
nodes = (
"126 -210 OFFCURVE",
"178 -157 OFFCURVE",
"201 -29 CURVE SMOOTH",
"262 310 LINE SMOOTH",
"271 358 OFFCURVE",
"307 393 OFFCURVE",
"360 393 CURVE SMOOTH",
"400 393 OFFCURVE",
"415 374 OFFCURVE",
"415 338 CURVE SMOOTH",
"415 334 OFFCURVE",
"414 327 OFFCURVE",
"412 316 CURVE SMOOTH",
"357 0 LINE",
"556 0 LINE",
"614 322 LINE SMOOTH",
"621 363 OFFCURVE",
"622 379 OFFCURVE",
"622 398 CURVE SMOOTH",
"622 493 OFFCURVE",
"578 540 OFFCURVE",
"468 540 CURVE SMOOTH",
"395 540 OFFCURVE",
"322 510 OFFCURVE",
"270 448 CURVE",
"263 448 LINE",
"264 528 LINE",
"101 528 LINE",
"6 -9 LINE SMOOTH",
"-1 -50 OFFCURVE",
"-21 -73 OFFCURVE",
"-61 -73 CURVE SMOOTH",
"-113 -73 LINE",
"-134 -192 LINE",
"-104 -202 OFFCURVE",
"-39 -210 OFFCURVE",
"-4 -210 CURVE SMOOTH"
);
}
);
width = 670;
}
);
leftKerningGroup = j;
note = uni0272;
rightKerningGroup = n;
unicode = 0272;
},
{
glyphname = o;
lastChange = "2018-07-29 23:24:57 +0000";
layers = (
{
anchors = (
{
name = bottom;
position = "{278, 0}";
},
{
name = center;
position = "{322, 261}";
},
{
name = ogonek;
position = "{340, 0}";
},
{
name = top;
position = "{369, 526}";
},
{
name = topright;
position = "{447, 526}";
}
);
background = {
paths = (
{
closed = 1;
nodes = (
"453 -12 OFFCURVE",
"587 79 OFFCURVE",
"620 264 CURVE SMOOTH",
"624 287 OFFCURVE",
"626 309 OFFCURVE",
"626 329 CURVE SMOOTH",
"626 470 OFFCURVE",
"528 540 OFFCURVE",
"371 540 CURVE SMOOTH",
"191 540 OFFCURVE",
"58 449 OFFCURVE",
"25 264 CURVE SMOOTH",
"21 241 OFFCURVE",
"19 219 OFFCURVE",
"19 198 CURVE SMOOTH",
"19 57 OFFCURVE",
"116 -12 OFFCURVE",
"273 -12 CURVE SMOOTH"
);
},
{
closed = 1;
nodes = (
"239 123 OFFCURVE",
"216 151 OFFCURVE",
"216 200 CURVE SMOOTH",
"216 211 OFFCURVE",
"217 223 OFFCURVE",
"219 235 CURVE SMOOTH",
"241 362 OFFCURVE",
"263 405 OFFCURVE",
"347 405 CURVE SMOOTH",
"405 405 OFFCURVE",
"429 376 OFFCURVE",
"429 326 CURVE SMOOTH",
"429 316 OFFCURVE",
"428 304 OFFCURVE",
"426 292 CURVE SMOOTH",
"404 165 OFFCURVE",
"382 123 OFFCURVE",
"297 123 CURVE SMOOTH"
);
}
);
};
layerId = "9602D73B-DD3D-403F-8CEE-11CABA0497EF";
paths = (
{
closed = 1;
nodes = (
"467 -12 OFFCURVE",
"592 69 OFFCURVE",
"620 259 CURVE SMOOTH",
"623 279 OFFCURVE",
"625 303 OFFCURVE",
"625 321 CURVE SMOOTH",
"625 463 OFFCURVE",
"520 540 OFFCURVE",
"359 540 CURVE SMOOTH",
"177 540 OFFCURVE",
"53 459 OFFCURVE",
"25 269 CURVE SMOOTH",
"22 249 OFFCURVE",
"20 225 OFFCURVE",
"20 207 CURVE SMOOTH",
"20 66 OFFCURVE",
"124 -12 OFFCURVE",
"285 -12 CURVE SMOOTH"
);
},
{
closed = 1;
nodes = (
"238 123 OFFCURVE",
"215 151 OFFCURVE",
"215 211 CURVE SMOOTH",
"215 223 OFFCURVE",
"216 236 OFFCURVE",
"218 250 CURVE SMOOTH",
"235 375 OFFCURVE",
"271 405 OFFCURVE",
"345 405 CURVE SMOOTH",
"408 405 OFFCURVE",
"431 374 OFFCURVE",
"431 318 CURVE SMOOTH",
"431 306 OFFCURVE",
"429 294 OFFCURVE",
"427 280 CURVE SMOOTH",
"410 158 OFFCURVE",
"374 123 OFFCURVE",
"299 123 CURVE SMOOTH"
);
}
);
width = 667;
}
);
leftKerningGroup = o;
note = o;
rightKerningGroup = o;
unicode = 006F;
},
{
glyphname = ohorn;
lastChange = "2018-07-29 23:24:57 +0000";
layers = (
{
background = {
paths = (
{
closed = 1;
nodes = (
"681 398 OFFCURVE",
"765 470 OFFCURVE",
"788 599 CURVE SMOOTH",
"803 686 LINE",
"623 686 LINE",
"598 539 LINE",
"668 539 LINE",
"650 502 OFFCURVE",
"606 484 OFFCURVE",
"552 484 CURVE",
"537 397 LINE"
);
}
);
};
components = (
{
name = o;
},
{
name = horncomb;
transform = "{1, 0, 0, 1, 400, 0}";
}
);
layerId = "9602D73B-DD3D-403F-8CEE-11CABA0497EF";
width = 667;
}
);
leftKerningGroup = o;
note = ohorn;
rightKerningGroup = o;
unicode = 01A1;
},
{
glyphname = oe;
lastChange = "2018-07-29 23:24:57 +0000";
layers = (
{
background = {
paths = (
{
closed = 1;
nodes = (
"343 -12 OFFCURVE",
"409 4 OFFCURVE",
"464 38 CURVE",
"508 4 OFFCURVE",
"571 -12 OFFCURVE",
"651 -12 CURVE SMOOTH",
"834 -12 OFFCURVE",
"941 66 OFFCURVE",
"963 192 CURVE",
"770 192 LINE",
"763 149 OFFCURVE",
"734 115 OFFCURVE",
"670 115 CURVE SMOOTH",
"601 115 OFFCURVE",
"581 157 OFFCURVE",
"594 230 CURVE",
"970 230 LINE",
"976 264 LINE SMOOTH",
"1010 454 OFFCURVE",
"921 540 OFFCURVE",
"737 540 CURVE SMOOTH",
"663 540 OFFCURVE",
"598 523 OFFCURVE",
"544 490 CURVE",
"502 523 OFFCURVE",
"441 540 OFFCURVE",
"367 540 CURVE SMOOTH",
"193 540 OFFCURVE",
"64 449 OFFCURVE",
"31 264 CURVE SMOOTH",
"-2 79 OFFCURVE",
"95 -12 OFFCURVE",
"269 -12 CURVE SMOOTH"
);
},
{
closed = 1;
nodes = (
"612 324 LINE",
"627 379 OFFCURVE",
"661 413 OFFCURVE",
"722 413 CURVE SMOOTH",
"772 413 OFFCURVE",
"795 379 OFFCURVE",
"786 324 CURVE"
);
},
{
closed = 1;
nodes = (
"230 123 OFFCURVE",
"213 165 OFFCURVE",
"225 235 CURVE SMOOTH",
"235 292 LINE SMOOTH",
"247 362 OFFCURVE",
"280 405 OFFCURVE",
"343 405 CURVE SMOOTH",
"406 405 OFFCURVE",
"424 362 OFFCURVE",
"412 292 CURVE SMOOTH",
"402 235 LINE SMOOTH",
"390 165 OFFCURVE",
"356 123 OFFCURVE",
"293 123 CURVE SMOOTH"
);
}
);
};
layerId = "9602D73B-DD3D-403F-8CEE-11CABA0497EF";
paths = (
{
closed = 1;
nodes = (
"366 -12 OFFCURVE",
"434 3 OFFCURVE",
"488 36 CURVE",
"533 5 OFFCURVE",
"594 -12 OFFCURVE",
"665 -12 CURVE SMOOTH",
"853 -12 OFFCURVE",
"951 66 OFFCURVE",
"980 192 CURVE",
"790 192 LINE",
"781 146 OFFCURVE",
"749 117 OFFCURVE",
"685 117 CURVE SMOOTH",
"617 117 OFFCURVE",
"594 147 OFFCURVE",
"594 200 CURVE SMOOTH",
"594 209 OFFCURVE",
"595 219 OFFCURVE",
"596 230 CURVE",
"990 230 LINE",
"996 264 LINE SMOOTH",
"1000 284 OFFCURVE",
"1001 304 OFFCURVE",
"1001 322 CURVE SMOOTH",
"1001 459 OFFCURVE",
"905 540 OFFCURVE",
"731 540 CURVE SMOOTH",
"657 540 OFFCURVE",
"593 524 OFFCURVE",
"541 494 CURVE",
"495 524 OFFCURVE",
"434 540 OFFCURVE",
"361 540 CURVE SMOOTH",
"145 540 OFFCURVE",
"22 418 OFFCURVE",
"22 207 CURVE SMOOTH",
"22 66 OFFCURVE",
"126 -12 OFFCURVE",
"287 -12 CURVE SMOOTH"
);
},
{
closed = 1;
nodes = (
"240 123 OFFCURVE",
"217 151 OFFCURVE",
"217 211 CURVE SMOOTH",
"217 223 OFFCURVE",
"218 236 OFFCURVE",
"220 250 CURVE SMOOTH",
"237 375 OFFCURVE",
"273 405 OFFCURVE",
"347 405 CURVE SMOOTH",
"410 405 OFFCURVE",
"433 374 OFFCURVE",
"433 318 CURVE SMOOTH",
"433 306 OFFCURVE",
"431 294 OFFCURVE",
"429 280 CURVE SMOOTH",
"412 158 OFFCURVE",
"376 123 OFFCURVE",
"301 123 CURVE SMOOTH"
);
},
{
closed = 1;
nodes = (
"627 377 OFFCURVE",
"660 408 OFFCURVE",
"725 408 CURVE SMOOTH",
"775 408 OFFCURVE",
"808 387 OFFCURVE",
"808 344 CURVE SMOOTH",
"808 338 OFFCURVE",
"807 331 OFFCURVE",
"806 324 CURVE",
"612 324 LINE"
);
}
);
width = 1041;
}
);
leftKerningGroup = o;
leftMetricsKey = o;
note = oe;
rightKerningGroup = e;
rightMetricsKey = e;
unicode = 0153;
},
{
glyphname = p;
lastChange = "2018-07-29 23:24:57 +0000";
layers = (
{
layerId = "9602D73B-DD3D-403F-8CEE-11CABA0497EF";
paths = (
{
closed = 1;
nodes = (
"170 -197 LINE",
"213 48 LINE",
"220 48 LINE",
"246 10 OFFCURVE",
"297 -12 OFFCURVE",
"359 -12 CURVE SMOOTH",
"540 -12 OFFCURVE",
"631 148 OFFCURVE",
"631 339 CURVE SMOOTH",
"631 467 OFFCURVE",
"560 540 OFFCURVE",
"443 540 CURVE SMOOTH",
"375 540 OFFCURVE",
"319 514 OFFCURVE",
"272 453 CURVE",
"265 453 LINE",
"261 528 LINE",
"99 528 LINE",
"-29 -197 LINE"
);
},
{
closed = 1;
nodes = (
"265 128 OFFCURVE",
"244 168 OFFCURVE",
"244 214 CURVE SMOOTH",
"244 302 OFFCURVE",
"279 393 OFFCURVE",
"360 393 CURVE SMOOTH",
"412 393 OFFCURVE",
"431 358 OFFCURVE",
"431 312 CURVE SMOOTH",
"431 224 OFFCURVE",
"399 128 OFFCURVE",
"315 128 CURVE SMOOTH"
);
}
);
width = 668;
}
);
leftKerningGroup = n;
note = p;
rightKerningGroup = o;
unicode = 0070;
},
{
glyphname = thorn;
lastChange = "2018-07-29 23:24:57 +0000";
layers = (
{
background = {
hints = (
{
horizontal = 1;
place = "{-75, 84}";
type = Stem;
},
{
horizontal = 1;
place = "{330, 84}";
type = Stem;
},
{
horizontal = 1;
place = "{662, -20}";
target = down;
type = TopGhost;
},
{
place = "{-2, 136}";
type = Stem;
},
{
place = "{369, 136}";
type = Stem;
},
{
horizontal = 1;
place = "{-63, 21}";
target = up;
type = BottomGhost;
}
);
paths = (
{
closed = 1;
nodes = (
"539 -12 OFFCURVE",
"630 148 OFFCURVE",
"630 339 CURVE SMOOTH",
"630 467 OFFCURVE",
"559 540 OFFCURVE",
"442 540 CURVE SMOOTH",
"380 540 OFFCURVE",
"332 517 OFFCURVE",
"296 479 CURVE",
"289 479 LINE",
"332 725 LINE",
"133 725 LINE",
"5 0 LINE",
"167 0 LINE",
"194 75 LINE",
"201 75 LINE",
"226 15 OFFCURVE",
"290 -12 OFFCURVE",
"358 -12 CURVE SMOOTH"
);
},
{
closed = 1;
nodes = (
"264 128 OFFCURVE",
"243 168 OFFCURVE",
"243 214 CURVE SMOOTH",
"243 297 OFFCURVE",
"283 393 OFFCURVE",
"359 393 CURVE SMOOTH",
"411 393 OFFCURVE",
"430 358 OFFCURVE",
"430 312 CURVE SMOOTH",
"430 224 OFFCURVE",
"398 128 OFFCURVE",
"314 128 CURVE SMOOTH"
);
}
);
};
layerId = "9602D73B-DD3D-403F-8CEE-11CABA0497EF";
paths = (
{
closed = 1;
nodes = (
"170 -197 LINE",
"213 48 LINE",
"220 48 LINE",
"246 10 OFFCURVE",
"297 -12 OFFCURVE",
"359 -12 CURVE SMOOTH",
"540 -12 OFFCURVE",
"631 148 OFFCURVE",
"631 339 CURVE SMOOTH",
"631 467 OFFCURVE",
"560 540 OFFCURVE",
"443 540 CURVE SMOOTH",
"386 540 OFFCURVE",
"337 522 OFFCURVE",
"295 479 CURVE",
"289 479 LINE",
"332 725 LINE",
"133 725 LINE",
"-29 -197 LINE"
);
},
{
closed = 1;
nodes = (
"265 128 OFFCURVE",
"244 168 OFFCURVE",
"244 214 CURVE SMOOTH",
"244 302 OFFCURVE",
"279 393 OFFCURVE",
"360 393 CURVE SMOOTH",
"412 393 OFFCURVE",
"431 358 OFFCURVE",
"431 312 CURVE SMOOTH",
"431 224 OFFCURVE",
"399 128 OFFCURVE",
"315 128 CURVE SMOOTH"
);
}
);
width = 668;
}
);
leftKerningGroup = h;
note = thorn;
rightKerningGroup = o;
unicode = 00FE;
},
{
glyphname = q;
lastChange = "2018-07-29 23:24:57 +0000";
layers = (
{
background = {
anchors = (
{
name = center;
position = "{519, 617}";
}
);
hints = (
{
horizontal = 1;
place = "{-75, 84}";
type = Stem;
},
{
horizontal = 1;
place = "{330, 84}";
type = Stem;
},
{
horizontal = 1;
place = "{662, -20}";
target = down;
type = TopGhost;
},
{
place = "{-2, 136}";
type = Stem;
},
{
place = "{369, 136}";
type = Stem;
},
{
horizontal = 1;
place = "{-63, 21}";
target = up;
type = BottomGhost;
}
);
paths = (
{
closed = 1;
nodes = (
"276 -12 OFFCURVE",
"337 14 OFFCURVE",
"381 66 CURVE",
"388 66 LINE",
"389 0 LINE",
"551 0 LINE",
"679 725 LINE",
"480 725 LINE",
"437 471 LINE",
"430 471 LINE",
"403 517 OFFCURVE",
"350 540 OFFCURVE",
"289 540 CURVE SMOOTH",
"105 540 OFFCURVE",
"20 382 OFFCURVE",
"20 188 CURVE SMOOTH",
"20 58 OFFCURVE",
"92 -12 OFFCURVE",
"210 -12 CURVE SMOOTH"
);
},
{
closed = 1;
nodes = (
"237 125 OFFCURVE",
"219 164 OFFCURVE",
"219 217 CURVE SMOOTH",
"219 310 OFFCURVE",
"244 409 OFFCURVE",
"329 409 CURVE SMOOTH",
"389 409 OFFCURVE",
"407 367 OFFCURVE",
"407 311 CURVE SMOOTH",
"407 224 OFFCURVE",
"377 125 OFFCURVE",
"296 125 CURVE SMOOTH"
);
}
);
};
layerId = "9602D73B-DD3D-403F-8CEE-11CABA0497EF";
paths = (
{
closed = 1;
nodes = (
"516 -197 LINE",
"644 528 LINE",
"482 528 LINE",
"452 453 LINE",
"445 453 LINE",
"421 510 OFFCURVE",
"358 540 OFFCURVE",
"288 540 CURVE SMOOTH",
"105 540 OFFCURVE",
"20 381 OFFCURVE",
"20 188 CURVE SMOOTH",
"20 58 OFFCURVE",
"92 -12 OFFCURVE",
"210 -12 CURVE SMOOTH",
"264 -12 OFFCURVE",
"314 9 OFFCURVE",
"353 48 CURVE",
"360 48 LINE",
"317 -197 LINE"
);
},
{
closed = 1;
nodes = (
"235 125 OFFCURVE",
"219 162 OFFCURVE",
"219 215 CURVE SMOOTH",
"219 306 OFFCURVE",
"248 409 OFFCURVE",
"331 409 CURVE SMOOTH",
"391 409 OFFCURVE",
"407 369 OFFCURVE",
"407 313 CURVE SMOOTH",
"407 229 OFFCURVE",
"372 125 OFFCURVE",
"294 125 CURVE SMOOTH"
);
}
);
width = 665;
}
);
leftKerningGroup = o;
note = q;
rightKerningGroup = q;
unicode = 0071;
},
{
glyphname = r;
lastChange = "2018-07-29 23:24:57 +0000";
layers = (
{
anchors = (
{
name = bottom;
position = "{108, 0}";
},
{
name = top;
position = "{293, 528}";
}
);
layerId = "9602D73B-DD3D-403F-8CEE-11CABA0497EF";
paths = (
{
closed = 1;
nodes = (
"207 0 LINE",
"249 235 LINE SMOOTH",
"263 315 OFFCURVE",
"302 362 OFFCURVE",
"388 362 CURVE SMOOTH",
"452 362 LINE",
"482 529 LINE",
"470 534 OFFCURVE",
"446 541 OFFCURVE",
"420 541 CURVE SMOOTH",
"358 541 OFFCURVE",
"306 510 OFFCURVE",
"270 448 CURVE",
"263 448 LINE",
"259 528 LINE",
"101 528 LINE",
"8 0 LINE"
);
}
);
width = 461;
}
);
leftKerningGroup = n;
note = r;
rightKerningGroup = r;
unicode = 0072;
},
{
glyphname = s;
lastChange = "2018-08-11 19:22:27 +0000";
layers = (
{
anchors = (
{
name = bottom;
position = "{263, 0}";
},
{
name = top;
position = "{347, 528}";
}
);
background = {
paths = (
{
closed = 1;
nodes = (
"399 -12 OFFCURVE",
"535 30 OFFCURVE",
"560 175 CURVE SMOOTH",
"598 390 OFFCURVE",
"243 311 OFFCURVE",
"257 387 CURVE SMOOTH",
"263 421 OFFCURVE",
"318 421 OFFCURVE",
"335 421 CURVE SMOOTH",
"369 421 OFFCURVE",
"400 407 OFFCURVE",
"398 378 CURVE",
"397 370 LINE",
"580 370 LINE",
"581 375 OFFCURVE",
"582 379 OFFCURVE",
"583 384 CURVE SMOOTH",
"603 498 OFFCURVE",
"479 540 OFFCURVE",
"359 540 CURVE SMOOTH",
"220 540 OFFCURVE",
"87 500 OFFCURVE",
"62 361 CURVE SMOOTH",
"25 153 OFFCURVE",
"379 225 OFFCURVE",
"365 146 CURVE SMOOTH",
"359 109 OFFCURVE",
"303 107 OFFCURVE",
"275 107 CURVE SMOOTH",
"229 107 OFFCURVE",
"194 124 OFFCURVE",
"200 161 CURVE",
"200 164 OFFCURVE",
"201 168 OFFCURVE",
"203 172 CURVE",
"18 172 LINE",
"16 167 OFFCURVE",
"15 162 OFFCURVE",
"14 158 CURVE SMOOTH",
"-7 36 OFFCURVE",
"127 -12 OFFCURVE",
"254 -12 CURVE SMOOTH"
);
}
);
};
layerId = "9602D73B-DD3D-403F-8CEE-11CABA0497EF";
paths = (
{
closed = 1;
nodes = (
"430 -12 OFFCURVE",
"563 50 OFFCURVE",
"563 197 CURVE SMOOTH",
"563 371 OFFCURVE",
"257 320 OFFCURVE",
"257 386 CURVE SMOOTH",
"257 417 OFFCURVE",
"305 421 OFFCURVE",
"331 421 CURVE SMOOTH",
"371 421 OFFCURVE",
"400 408 OFFCURVE",
"398 380 CURVE",
"397 370 LINE",
"580 370 LINE",
"582 380 OFFCURVE",
"585 396 OFFCURVE",
"585 408 CURVE SMOOTH",
"585 504 OFFCURVE",
"462 540 OFFCURVE",
"351 540 CURVE SMOOTH",
"190 540 OFFCURVE",
"59 477 OFFCURVE",
"59 340 CURVE SMOOTH",
"59 173 OFFCURVE",
"365 216 OFFCURVE",
"365 147 CURVE SMOOTH",
"365 114 OFFCURVE",
"310 107 OFFCURVE",
"275 107 CURVE SMOOTH",
"232 107 OFFCURVE",
"199 122 OFFCURVE",
"199 153 CURVE SMOOTH",
"199 158 OFFCURVE",
"200 165 OFFCURVE",
"203 172 CURVE",
"18 172 LINE",
"15 163 OFFCURVE",
"12 144 OFFCURVE",
"12 133 CURVE SMOOTH",
"12 29 OFFCURVE",
"143 -12 OFFCURVE",
"263 -12 CURVE SMOOTH"
);
}
);
width = 619;
}
);
leftKerningGroup = s;
note = s;
rightKerningGroup = s;
unicode = 0073;
},
{
glyphname = germandbls;
lastChange = "2018-07-29 23:24:57 +0000";
layers = (
{
background = {
paths = (
{
closed = 1;
nodes = (
"11 0 LINE",
"210 0 LINE",
"304 534 LINE SMOOTH",
"311 573 OFFCURVE",
"343 603 OFFCURVE",
"386 603 CURVE SMOOTH",
"424 603 OFFCURVE",
"445 580 OFFCURVE",
"445 548 CURVE SMOOTH",
"445 504 OFFCURVE",
"409 466 OFFCURVE",
"367 466 CURVE SMOOTH",
"340 466 LINE",
"315 325 LINE",
"343 325 LINE SMOOTH",
"382 325 OFFCURVE",
"411 292 OFFCURVE",
"411 249 CURVE SMOOTH",
"411 191 OFFCURVE",
"362 136 OFFCURVE",
"310 136 CURVE SMOOTH",
"282 136 LINE",
"258 0 LINE",
"322 0 LINE SMOOTH",
"482 0 OFFCURVE",
"609 97 OFFCURVE",
"609 248 CURVE SMOOTH",
"609 314 OFFCURVE",
"574 373 OFFCURVE",
"517 395 CURVE",
"518 400 LINE",
"590 428 OFFCURVE",
"641 505 OFFCURVE",
"641 583 CURVE SMOOTH",
"641 701 OFFCURVE",
"522 737 OFFCURVE",
"410 737 CURVE SMOOTH",
"343 737 OFFCURVE",
"271 721 OFFCURVE",
"213 683 CURVE SMOOTH",
"158 648 OFFCURVE",
"116 594 OFFCURVE",
"102 517 CURVE SMOOTH"
);
}
);
};
layerId = "9602D73B-DD3D-403F-8CEE-11CABA0497EF";
paths = (
{
closed = 1;
nodes = (
"210 0 LINE",
"304 534 LINE SMOOTH",
"311 573 OFFCURVE",
"340 603 OFFCURVE",
"383 603 CURVE SMOOTH",
"421 603 OFFCURVE",
"445 577 OFFCURVE",
"445 545 CURVE SMOOTH",
"445 499 OFFCURVE",
"411 466 OFFCURVE",
"367 466 CURVE SMOOTH",
"340 466 LINE",
"315 325 LINE",
"339 325 LINE SMOOTH",
"380 325 OFFCURVE",
"411 284 OFFCURVE",
"411 241 CURVE SMOOTH",
"411 183 OFFCURVE",
"362 136 OFFCURVE",
"310 136 CURVE SMOOTH",
"282 136 LINE",
"258 0 LINE",
"330 0 LINE SMOOTH",
"490 0 OFFCURVE",
"609 88 OFFCURVE",
"609 239 CURVE SMOOTH",
"609 305 OFFCURVE",
"574 373 OFFCURVE",
"517 395 CURVE",
"518 400 LINE",
"594 424 OFFCURVE",
"641 491 OFFCURVE",
"641 573 CURVE SMOOTH",
"641 691 OFFCURVE",
"512 737 OFFCURVE",
"400 737 CURVE SMOOTH",
"328 737 OFFCURVE",
"261 723 OFFCURVE",
"203 685 CURVE SMOOTH",
"148 650 OFFCURVE",
"116 594 OFFCURVE",
"102 517 CURVE SMOOTH",
"11 0 LINE"
);
}
);
width = 658;
}
);
leftKerningGroup = f;
note = germandbls;
rightKerningGroup = B;
unicode = 00DF;
},
{
glyphname = longs;
lastChange = "2018-07-29 23:24:57 +0000";
layers = (
{
layerId = "9602D73B-DD3D-403F-8CEE-11CABA0497EF";
paths = (
{
closed = 1;
nodes = (
"119 -210 OFFCURVE",
"183 -157 OFFCURVE",
"205 -29 CURVE SMOOTH",
"307 549 LINE SMOOTH",
"313 586 OFFCURVE",
"328 602 OFFCURVE",
"372 602 CURVE SMOOTH",
"418 602 LINE",
"439 719 LINE",
"415 728 OFFCURVE",
"358 737 OFFCURVE",
"324 737 CURVE SMOOTH",
"209 737 OFFCURVE",
"135 697 OFFCURVE",
"108 550 CURVE SMOOTH",
"104 528 LINE",
"30 528 LINE",
"6 393 LINE",
"80 393 LINE",
"10 -9 LINE SMOOTH",
"3 -50 OFFCURVE",
"-17 -73 OFFCURVE",
"-57 -73 CURVE SMOOTH",
"-109 -73 LINE",
"-130 -192 LINE",
"-101 -203 OFFCURVE",
"-41 -210 OFFCURVE",
"-9 -210 CURVE SMOOTH"
);
}
);
width = 381;
}
);
leftKerningGroup = f;
note = longs;
rightKerningGroup = f;
unicode = 017F;
},
{
glyphname = t;
lastChange = "2018-08-11 19:24:37 +0000";
layers = (
{
anchors = (
{
name = bottom;
position = "{164, 0}";
},
{
name = center;
position = "{165, 278}";
},
{
name = topright;
position = "{355, 548}";
}
);
layerId = "9602D73B-DD3D-403F-8CEE-11CABA0497EF";
paths = (
{
closed = 1;
nodes = (
"231 -12 OFFCURVE",
"293 -5 OFFCURVE",
"327 6 CURVE",
"348 123 LINE",
"292 123 LINE SMOOTH",
"256 123 OFFCURVE",
"246 138 OFFCURVE",
"246 164 CURVE SMOOTH",
"246 176 OFFCURVE",
"248 190 OFFCURVE",
"251 207 CURVE SMOOTH",
"284 393 LINE",
"396 393 LINE",
"420 528 LINE",
"308 528 LINE",
"339 688 LINE",
"169 688 LINE",
"111 528 LINE",
"35 528 LINE",
"11 393 LINE",
"85 393 LINE",
"51 197 LINE SMOOTH",
"41 140 OFFCURVE",
"38 112 OFFCURVE",
"38 96 CURVE SMOOTH",
"38 14 OFFCURVE",
"100 -12 OFFCURVE",
"196 -12 CURVE SMOOTH"
);
}
);
width = 408;
}
);
leftKerningGroup = t;
note = t;
rightKerningGroup = t;
unicode = 0074;
},
{
glyphname = tbar;
lastChange = "2018-07-29 23:24:57 +0000";
layers = (
{
layerId = "9602D73B-DD3D-403F-8CEE-11CABA0497EF";
paths = (
{
closed = 1;
nodes = (
"53 209 LINE",
"51 197 LINE SMOOTH",
"41 140 OFFCURVE",
"38 112 OFFCURVE",
"38 96 CURVE SMOOTH",
"38 14 OFFCURVE",
"100 -12 OFFCURVE",
"196 -12 CURVE SMOOTH",
"231 -12 OFFCURVE",
"293 -5 OFFCURVE",
"327 6 CURVE",
"348 123 LINE",
"292 123 LINE SMOOTH",
"256 123 OFFCURVE",
"246 138 OFFCURVE",
"246 164 CURVE SMOOTH",
"246 176 OFFCURVE",
"248 190 OFFCURVE",
"251 207 CURVE SMOOTH",
"251 209 LINE",
"355 209 LINE",
"373 310 LINE",
"269 310 LINE",
"284 393 LINE",
"396 393 LINE",
"420 528 LINE",
"308 528 LINE",
"339 688 LINE",
"169 688 LINE",
"111 528 LINE",
"35 528 LINE",
"11 393 LINE",
"85 393 LINE",
"71 310 LINE",
"13 310 LINE",
"-5 209 LINE"
);
}
);
width = 408;
}
);
leftKerningGroup = t;
note = tbar;
rightKerningGroup = t;
unicode = 0167;
},
{
glyphname = u;
lastChange = "2018-08-11 19:09:55 +0000";
layers = (
{
anchors = (
{
name = bottom;
position = "{278, 0}";
},
{
name = ogonek;
position = "{555, 0}";
},
{
name = top;
position = "{369, 528}";
},
{
name = topright;
position = "{509, 528}";
}
);
background = {
paths = (
{
closed = 1;
nodes = (
"260 -12 OFFCURVE",
"339 21 OFFCURVE",
"389 80 CURVE",
"396 80 LINE",
"392 0 LINE",
"555 0 LINE",
"648 528 LINE",
"449 528 LINE",
"394 218 LINE SMOOTH",
"386 173 OFFCURVE",
"346 135 OFFCURVE",
"296 135 CURVE SMOOTH",
"252 135 OFFCURVE",
"235 166 OFFCURVE",
"243 210 CURVE SMOOTH",
"299 528 LINE",
"100 528 LINE",
"39 186 LINE SMOOTH",
"17 61 OFFCURVE",
"63 -12 OFFCURVE",
"188 -12 CURVE SMOOTH"
);
}
);
};
layerId = "9602D73B-DD3D-403F-8CEE-11CABA0497EF";
paths = (
{
closed = 1;
nodes = (
"264 -12 OFFCURVE",
"339 21 OFFCURVE",
"389 80 CURVE",
"396 80 LINE",
"392 0 LINE",
"555 0 LINE",
"648 528 LINE",
"449 528 LINE",
"395 228 LINE SMOOTH",
"387 183 OFFCURVE",
"344 135 OFFCURVE",
"294 135 CURVE SMOOTH",
"257 135 OFFCURVE",
"241 157 OFFCURVE",
"241 190 CURVE SMOOTH",
"241 199 OFFCURVE",
"244 214 OFFCURVE",
"247 229 CURVE SMOOTH",
"299 528 LINE",
"100 528 LINE",
"45 218 LINE SMOOTH",
"37 172 OFFCURVE",
"35 152 OFFCURVE",
"35 132 CURVE SMOOTH",
"35 44 OFFCURVE",
"90 -12 OFFCURVE",
"192 -12 CURVE SMOOTH"
);
}
);
width = 670;
}
);
leftKerningGroup = u;
note = u;
rightKerningGroup = u;
unicode = 0075;
},
{
glyphname = v;
lastChange = "2018-07-29 23:24:57 +0000";
layers = (
{
background = {
paths = (
{
closed = 1;
nodes = (
"259 528 LINE",
"45 528 LINE",
"151 0 LINE",
"360 0 LINE",
"656 528 LINE",
"460 528 LINE",
"378 357 LINE SMOOTH",
"356 310 OFFCURVE",
"305 199 OFFCURVE",
"305 199 CURVE SMOOTH",
"298 199 LINE SMOOTH",
"298 199 OFFCURVE",
"284 317 OFFCURVE",
"279 357 CURVE SMOOTH"
);
}
);
};
layerId = "9602D73B-DD3D-403F-8CEE-11CABA0497EF";
paths = (
{
closed = 1;
nodes = (
"360 0 LINE",
"656 528 LINE",
"454 528 LINE",
"374 357 LINE SMOOTH",
"352 311 OFFCURVE",
"332 270 OFFCURVE",
"302 199 CURVE",
"295 199 LINE",
"289 268 OFFCURVE",
"280 317 OFFCURVE",
"275 357 CURVE SMOOTH",
"253 528 LINE",
"45 528 LINE",
"151 0 LINE"
);
}
);
width = 622;
}
);
leftKerningGroup = v;
note = v;
rightKerningGroup = v;
unicode = 0076;
},
{
glyphname = w;
lastChange = "2018-07-29 23:24:57 +0000";
layers = (
{
anchors = (
{
name = top;
position = "{500, 528}";
}
);
background = {
paths = (
{
closed = 1;
nodes = (
"247 528 LINE",
"32 528 LINE",
"131 0 LINE",
"325 0 LINE",
"408 179 LINE SMOOTH",
"432 230 OFFCURVE",
"460 294 OFFCURVE",
"460 294 CURVE",
"464 294 LINE",
"476 178 LINE",
"494 0 LINE",
"688 0 LINE",
"976 528 LINE",
"782 528 LINE",
"710 365 LINE SMOOTH",
"685 309 OFFCURVE",
"646 216 OFFCURVE",
"646 216 CURVE SMOOTH",
"639 216 LINE",
"627 365 LINE",
"614 528 LINE",
"416 528 LINE",
"344 366 LINE",
"278 216 LINE",
"271 216 LINE SMOOTH",
"271 216 OFFCURVE",
"262 330 OFFCURVE",
"259 367 CURVE SMOOTH"
);
}
);
};
layerId = "9602D73B-DD3D-403F-8CEE-11CABA0497EF";
paths = (
{
closed = 1;
nodes = (
"325 0 LINE",
"408 179 LINE SMOOTH",
"432 230 OFFCURVE",
"460 294 OFFCURVE",
"460 294 CURVE",
"464 294 LINE",
"468 255 OFFCURVE",
"472 217 OFFCURVE",
"476 178 CURVE SMOOTH",
"494 0 LINE",
"688 0 LINE",
"976 528 LINE",
"776 528 LINE",
"704 365 LINE SMOOTH",
"679 309 OFFCURVE",
"640 216 OFFCURVE",
"640 216 CURVE SMOOTH",
"633 216 LINE",
"629 266 OFFCURVE",
"625 315 OFFCURVE",
"621 365 CURVE SMOOTH",
"608 528 LINE",
"410 528 LINE",
"338 366 LINE SMOOTH",
"316 316 OFFCURVE",
"294 266 OFFCURVE",
"272 216 CURVE",
"265 216 LINE SMOOTH",
"265 216 OFFCURVE",
"256 330 OFFCURVE",
"253 367 CURVE SMOOTH",
"241 528 LINE",
"32 528 LINE",
"131 0 LINE"
);
}
);
width = 945;
}
);
leftKerningGroup = v;
note = w;
rightKerningGroup = v;
unicode = 0077;
},
{
glyphname = x;
lastChange = "2018-08-11 19:11:55 +0000";
layers = (
{
background = {
paths = (
{
closed = 1;
nodes = (
"64 528 LINE",
"203 280 LINE",
"-50 0 LINE",
"171 0 LINE",
"302 166 LINE",
"306 166 LINE",
"376 0 LINE",
"608 0 LINE",
"459 275 LINE",
"690 528 LINE",
"470 528 LINE",
"361 388 LINE",
"357 388 LINE",
"298 528 LINE"
);
}
);
};
layerId = "9602D73B-DD3D-403F-8CEE-11CABA0497EF";
paths = (
{
closed = 1;
nodes = (
"176 0 LINE",
"311 160 LINE",
"315 160 LINE",
"387 0 LINE",
"608 0 LINE",
"449 275 LINE",
"690 528 LINE",
"470 528 LINE",
"357 390 LINE",
"353 390 LINE",
"288 528 LINE",
"64 528 LINE",
"209 277 LINE",
"-50 0 LINE"
);
}
);
width = 670;
}
);
leftKerningGroup = x;
note = x;
rightKerningGroup = x;
unicode = 0078;
},
{
glyphname = y;
lastChange = "2018-08-11 19:16:20 +0000";
layers = (
{
anchors = (
{
name = bottom;
position = "{471, 0}";
},
{
name = top;
position = "{351, 528}";
}
);
background = {
paths = (
{
closed = 1;
nodes = (
"225 -210 OFFCURVE",
"307 -115 OFFCURVE",
"378 16 CURVE SMOOTH",
"656 528 LINE",
"460 528 LINE",
"365 313 LINE SMOOTH",
"345 266 OFFCURVE",
"305 177 OFFCURVE",
"305 177 CURVE SMOOTH",
"298 177 LINE SMOOTH",
"298 177 OFFCURVE",
"289 271 OFFCURVE",
"283 314 CURVE SMOOTH",
"259 528 LINE",
"45 528 LINE",
"162 0 LINE",
"152 -26 OFFCURVE",
"130 -73 OFFCURVE",
"60 -73 CURVE SMOOTH",
"-20 -73 LINE",
"-41 -192 LINE",
"-17 -201 OFFCURVE",
"23 -210 OFFCURVE",
"71 -210 CURVE SMOOTH"
);
}
);
};
layerId = "9602D73B-DD3D-403F-8CEE-11CABA0497EF";
paths = (
{
closed = 1;
nodes = (
"230 -210 OFFCURVE",
"315 -113 OFFCURVE",
"384 16 CURVE SMOOTH",
"656 528 LINE",
"453 528 LINE",
"359 313 LINE SMOOTH",
"342 274 OFFCURVE",
"322 229 OFFCURVE",
"301 177 CURVE",
"294 177 LINE",
"286 242 OFFCURVE",
"282 273 OFFCURVE",
"277 314 CURVE SMOOTH",
"252 528 LINE",
"45 528 LINE",
"164 0 LINE",
"154 -26 OFFCURVE",
"130 -73 OFFCURVE",
"60 -73 CURVE SMOOTH",
"-20 -73 LINE",
"-41 -192 LINE",
"-17 -201 OFFCURVE",
"28 -210 OFFCURVE",
"76 -210 CURVE SMOOTH"
);
}
);
width = 622;
}
);
leftKerningGroup = y;
note = y;
rightKerningGroup = y;
unicode = 0079;
},
{
glyphname = z;
lastChange = "2018-08-11 19:13:42 +0000";
layers = (
{
anchors = (
{
name = top;
position = "{334, 528}";
}
);
background = {
paths = (
{
closed = 1;
nodes = (
"265 393 LINE",
"-15 65 LINE",
"-27 0 LINE",
"488 0 LINE",
"512 135 LINE",
"279 135 LINE",
"562 466 LINE",
"573 528 LINE",
"79 528 LINE",
"55 393 LINE"
);
}
);
};
layerId = "9602D73B-DD3D-403F-8CEE-11CABA0497EF";
paths = (
{
closed = 1;
nodes = (
"488 0 LINE",
"512 135 LINE",
"289 135 LINE",
"561 460 LINE",
"573 528 LINE",
"79 528 LINE",
"55 393 LINE",
"256 393 LINE",
"-14 70 LINE",
"-27 0 LINE"
);
}
);
width = 556;
}
);
leftKerningGroup = z;
note = z;
rightKerningGroup = z;
unicode = 007A;
},
{
glyphname = y.loclGUA;
lastChange = "2018-07-29 23:24:57 +0000";
layers = (
{
anchors = (
{
name = top;
position = "{374, 528}";
}
);
layerId = "9602D73B-DD3D-403F-8CEE-11CABA0497EF";
paths = (
{
closed = 1;
nodes = (
"426 -210 OFFCURVE",
"531 -131 OFFCURVE",
"561 38 CURVE SMOOTH",
"648 528 LINE",
"449 528 LINE",
"401 259 LINE SMOOTH",
"392 211 OFFCURVE",
"352 169 OFFCURVE",
"299 169 CURVE SMOOTH",
"262 169 OFFCURVE",
"247 191 OFFCURVE",
"247 225 CURVE SMOOTH",
"247 235 OFFCURVE",
"248 248 OFFCURVE",
"254 281 CURVE SMOOTH",
"299 528 LINE",
"100 528 LINE",
"51 249 LINE SMOOTH",
"44 209 OFFCURVE",
"43 191 OFFCURVE",
"43 171 CURVE SMOOTH",
"43 85 OFFCURVE",
"98 22 OFFCURVE",
"199 22 CURVE SMOOTH",
"297 22 OFFCURVE",
"353 58 OFFCURVE",
"397 99 CURVE",
"405 99 LINE",
"393 36 LINE SMOOTH",
"380 -33 OFFCURVE",
"337 -70 OFFCURVE",
"276 -70 CURVE SMOOTH",
"224 -70 OFFCURVE",
"205 -60 OFFCURVE",
"199 -21 CURVE",
"4 -21 LINE",
"4 -38 LINE SMOOTH",
"4 -159 OFFCURVE",
"99 -210 OFFCURVE",
"248 -210 CURVE SMOOTH"
);
}
);
width = 669;
}
);
leftKerningGroup = y.loclGUA;
note = y.loclGUA;
rightKerningGroup = y.loclGUA;
},
{
glyphname = f_f;
lastChange = "2018-07-29 23:24:57 +0000";
layers = (
{
layerId = "9602D73B-DD3D-403F-8CEE-11CABA0497EF";
paths = (
{
closed = 1;
nodes = (
"119 -210 OFFCURVE",
"183 -157 OFFCURVE",
"205 -29 CURVE SMOOTH",
"279 393 LINE",
"462 393 LINE",
"393 0 LINE",
"592 0 LINE",
"661 393 LINE",
"763 393 LINE",
"787 528 LINE",
"685 528 LINE",
"689 549 LINE SMOOTH",
"696 586 OFFCURVE",
"710 602 OFFCURVE",
"754 602 CURVE SMOOTH",
"800 602 LINE",
"821 719 LINE",
"797 728 OFFCURVE",
"740 737 OFFCURVE",
"706 737 CURVE SMOOTH",
"591 737 OFFCURVE",
"517 697 OFFCURVE",
"490 550 CURVE SMOOTH",
"486 528 LINE",
"303 528 LINE",
"307 549 LINE SMOOTH",
"313 586 OFFCURVE",
"328 602 OFFCURVE",
"372 602 CURVE SMOOTH",
"418 602 LINE",
"439 719 LINE",
"415 728 OFFCURVE",
"358 737 OFFCURVE",
"324 737 CURVE SMOOTH",
"209 737 OFFCURVE",
"135 697 OFFCURVE",
"108 550 CURVE SMOOTH",
"104 528 LINE",
"30 528 LINE",
"6 393 LINE",
"80 393 LINE",
"10 -9 LINE SMOOTH",
"3 -50 OFFCURVE",
"-17 -73 OFFCURVE",
"-57 -73 CURVE SMOOTH",
"-109 -73 LINE",
"-130 -192 LINE",
"-101 -203 OFFCURVE",
"-41 -210 OFFCURVE",
"-9 -210 CURVE SMOOTH"
);
}
);
width = 763;
}
);
leftKerningGroup = f;
leftMetricsKey = f;
note = f_f;
rightKerningGroup = f;
rightMetricsKey = f;
},
{
glyphname = fi;
lastChange = "2018-07-29 23:24:57 +0000";
layers = (
{
layerId = "9602D73B-DD3D-403F-8CEE-11CABA0497EF";
paths = (
{
closed = 1;
nodes = (
"119 -210 OFFCURVE",
"183 -157 OFFCURVE",
"205 -29 CURVE SMOOTH",
"279 393 LINE",
"381 393 LINE",
"405 528 LINE",
"303 528 LINE",
"307 549 LINE SMOOTH",
"313 586 OFFCURVE",
"328 602 OFFCURVE",
"372 602 CURVE SMOOTH",
"418 602 LINE",
"439 719 LINE",
"415 728 OFFCURVE",
"358 737 OFFCURVE",
"324 737 CURVE SMOOTH",
"209 737 OFFCURVE",
"135 697 OFFCURVE",
"108 550 CURVE SMOOTH",
"104 528 LINE",
"30 528 LINE",
"6 393 LINE",
"80 393 LINE",
"10 -9 LINE SMOOTH",
"3 -50 OFFCURVE",
"-17 -73 OFFCURVE",
"-57 -73 CURVE SMOOTH",
"-109 -73 LINE",
"-130 -192 LINE",
"-101 -203 OFFCURVE",
"-41 -210 OFFCURVE",
"-9 -210 CURVE SMOOTH"
);
},
{
closed = 1;
nodes = (
"588 0 LINE",
"681 528 LINE",
"482 528 LINE",
"389 0 LINE"
);
},
{
closed = 1;
nodes = (
"692 590 LINE",
"716 725 LINE",
"517 725 LINE",
"493 590 LINE"
);
}
);
width = 705;
}
);
leftKerningGroup = f;
leftMetricsKey = f;
note = fi;
rightKerningGroup = i;
rightMetricsKey = i;
unicode = FB01;
},
{
glyphname = fl;
lastChange = "2018-07-29 23:24:57 +0000";
layers = (
{
layerId = "9602D73B-DD3D-403F-8CEE-11CABA0497EF";
paths = (
{
closed = 1;
nodes = (
"119 -210 OFFCURVE",
"183 -157 OFFCURVE",
"205 -29 CURVE SMOOTH",
"279 393 LINE",
"381 393 LINE",
"405 528 LINE",
"303 528 LINE",
"307 549 LINE SMOOTH",
"313 586 OFFCURVE",
"328 602 OFFCURVE",
"372 602 CURVE SMOOTH",
"418 602 LINE",
"439 719 LINE",
"415 728 OFFCURVE",
"358 737 OFFCURVE",
"324 737 CURVE SMOOTH",
"209 737 OFFCURVE",
"135 697 OFFCURVE",
"108 550 CURVE SMOOTH",
"104 528 LINE",
"30 528 LINE",
"6 393 LINE",
"80 393 LINE",
"10 -9 LINE SMOOTH",
"3 -50 OFFCURVE",
"-17 -73 OFFCURVE",
"-57 -73 CURVE SMOOTH",
"-109 -73 LINE",
"-130 -192 LINE",
"-101 -203 OFFCURVE",
"-41 -210 OFFCURVE",
"-9 -210 CURVE SMOOTH"
);
},
{
closed = 1;
nodes = (
"587 0 LINE",
"715 725 LINE",
"516 725 LINE",
"388 0 LINE"
);
}
);
width = 703;
}
);
leftKerningGroup = f;
note = fl;
rightKerningGroup = l;
unicode = FB02;
},
{
glyphname = ordfeminine;
lastChange = "2018-07-30 00:30:16 +0000";
layers = (
{
background = {
paths = (
{
closed = 1;
nodes = (
"376 405 OFFCURVE",
"465 475 OFFCURVE",
"465 601 CURVE SMOOTH",
"465 690 OFFCURVE",
"396 737 OFFCURVE",
"291 737 CURVE SMOOTH",
"158 737 OFFCURVE",
"70 666 OFFCURVE",
"70 541 CURVE SMOOTH",
"70 452 OFFCURVE",
"139 405 OFFCURVE",
"243 405 CURVE SMOOTH"
);
},
{
closed = 1;
nodes = (
"214 486 OFFCURVE",
"198 504 OFFCURVE",
"198 534 CURVE SMOOTH",
"198 540 OFFCURVE",
"199 547 OFFCURVE",
"200 554 CURVE SMOOTH",
"213 629 OFFCURVE",
"226 656 OFFCURVE",
"282 656 CURVE SMOOTH",
"321 656 OFFCURVE",
"337 638 OFFCURVE",
"337 607 CURVE SMOOTH",
"337 601 OFFCURVE",
"336 595 OFFCURVE",
"335 588 CURVE SMOOTH",
"322 514 OFFCURVE",
"309 486 OFFCURVE",
"252 486 CURVE SMOOTH"
);
}
);
};
layerId = "9602D73B-DD3D-403F-8CEE-11CABA0497EF";
paths = (
{
closed = 1;
nodes = (
"221 405 OFFCURVE",
"258 417 OFFCURVE",
"291 447 CURVE",
"298 447 LINE",
"305 416 OFFCURVE",
"336 405 OFFCURVE",
"378 405 CURVE SMOOTH",
"399 405 OFFCURVE",
"422 409 OFFCURVE",
"447 417 CURVE",
"459 488 LINE",
"442 488 LINE SMOOTH",
"433 488 OFFCURVE",
"427 493 OFFCURVE",
"427 504 CURVE SMOOTH",
"427 516 OFFCURVE",
"444 607 OFFCURVE",
"467 730 CURVE",
"360 730 LINE",
"332 695 LINE",
"325 695 LINE",
"308 720 OFFCURVE",
"279 738 OFFCURVE",
"235 738 CURVE SMOOTH",
"128 738 OFFCURVE",
"69 637 OFFCURVE",
"69 542 CURVE SMOOTH",
"69 453 OFFCURVE",
"119 405 OFFCURVE",
"188 405 CURVE SMOOTH"
);
},
{
closed = 1;
nodes = (
"217 497 OFFCURVE",
"202 519 OFFCURVE",
"202 544 CURVE SMOOTH",
"202 600 OFFCURVE",
"222 649 OFFCURVE",
"270 649 CURVE SMOOTH",
"296 649 OFFCURVE",
"310 629 OFFCURVE",
"310 601 CURVE SMOOTH",
"310 547 OFFCURVE",
"283 497 OFFCURVE",
"240 497 CURVE SMOOTH"
);
}
);
width = 452;
}
);
leftKerningGroup = ordfeminine;
note = ordfeminine;
rightKerningGroup = ordfeminine;
unicode = 00AA;
},
{
glyphname = ordmasculine;
lastChange = "2018-07-30 00:30:16 +0000";
layers = (
{
layerId = "9602D73B-DD3D-403F-8CEE-11CABA0497EF";
paths = (
{
closed = 1;
nodes = (
"375 405 OFFCURVE",
"464 475 OFFCURVE",
"464 601 CURVE SMOOTH",
"464 690 OFFCURVE",
"395 737 OFFCURVE",
"290 737 CURVE SMOOTH",
"157 737 OFFCURVE",
"69 666 OFFCURVE",
"69 541 CURVE SMOOTH",
"69 452 OFFCURVE",
"138 405 OFFCURVE",
"242 405 CURVE SMOOTH"
);
},
{
closed = 1;
nodes = (
"213 486 OFFCURVE",
"197 504 OFFCURVE",
"197 534 CURVE SMOOTH",
"197 540 OFFCURVE",
"198 547 OFFCURVE",
"199 554 CURVE SMOOTH",
"212 629 OFFCURVE",
"225 656 OFFCURVE",
"281 656 CURVE SMOOTH",
"320 656 OFFCURVE",
"336 638 OFFCURVE",
"336 607 CURVE SMOOTH",
"336 601 OFFCURVE",
"335 595 OFFCURVE",
"334 588 CURVE SMOOTH",
"321 514 OFFCURVE",
"308 486 OFFCURVE",
"251 486 CURVE SMOOTH"
);
}
);
width = 440;
}
);
leftKerningGroup = ordfeminine;
note = ordmasculine;
rightKerningGroup = ordfeminine;
unicode = 00BA;
},
{
glyphname = nmod;
lastChange = "2018-07-30 00:30:16 +0000";
layers = (
{
layerId = "9602D73B-DD3D-403F-8CEE-11CABA0497EF";
paths = (
{
closed = 1;
nodes = (
"182 411 LINE",
"214 592 LINE SMOOTH",
"219 621 OFFCURVE",
"238 642 OFFCURVE",
"270 642 CURVE SMOOTH",
"295 642 OFFCURVE",
"301 631 OFFCURVE",
"301 609 CURVE SMOOTH",
"301 607 OFFCURVE",
"300 602 OFFCURVE",
"299 596 CURVE SMOOTH",
"267 411 LINE",
"397 411 LINE",
"432 605 LINE SMOOTH",
"436 630 OFFCURVE",
"437 640 OFFCURVE",
"437 651 CURVE SMOOTH",
"437 709 OFFCURVE",
"406 737 OFFCURVE",
"340 737 CURVE SMOOTH",
"295 737 OFFCURVE",
"254 722 OFFCURVE",
"223 684 CURVE",
"216 684 LINE",
"213 730 LINE",
"108 730 LINE",
"52 411 LINE"
);
}
);
width = 414;
}
);
leftKerningGroup = nmod;
note = uni207F;
rightKerningGroup = nmod;
unicode = 207F;
},
{
glyphname = mu;
lastChange = "2018-07-30 00:30:16 +0000";
layers = (
{
layerId = "9602D73B-DD3D-403F-8CEE-11CABA0497EF";
paths = (
{
closed = 1;
nodes = (
"150 -196 LINE",
"184 5 LINE",
"200 -1 OFFCURVE",
"217 -4 OFFCURVE",
"234 -4 CURVE SMOOTH",
"287 -4 OFFCURVE",
"338 25 OFFCURVE",
"368 80 CURVE",
"375 80 LINE",
"371 0 LINE",
"534 0 LINE",
"627 528 LINE",
"428 528 LINE",
"375 226 LINE SMOOTH",
"367 179 OFFCURVE",
"323 135 OFFCURVE",
"270 135 CURVE SMOOTH",
"234 135 OFFCURVE",
"220 155 OFFCURVE",
"220 187 CURVE SMOOTH",
"220 194 OFFCURVE",
"220 202 OFFCURVE",
"222 210 CURVE SMOOTH",
"278 528 LINE",
"79 528 LINE",
"-49 -196 LINE"
);
}
);
width = 629;
}
);
leftKerningGroup = p;
note = uni03BC;
rightKerningGroup = u;
unicode = 03BC;
},
{
glyphname = pi;
lastChange = "2018-07-30 00:30:16 +0000";
layers = (
{
layerId = "9602D73B-DD3D-403F-8CEE-11CABA0497EF";
paths = (
{
closed = 1;
nodes = (
"208 0 LINE",
"257 80 OFFCURVE",
"318 286 OFFCURVE",
"343 403 CURVE",
"433 403 LINE",
"388 153 LINE SMOOTH",
"380 108 OFFCURVE",
"375 66 OFFCURVE",
"375 37 CURVE SMOOTH",
"375 20 OFFCURVE",
"376 7 OFFCURVE",
"380 0 CURVE",
"554 0 LINE",
"553 12 OFFCURVE",
"552 25 OFFCURVE",
"552 37 CURVE SMOOTH",
"552 124 OFFCURVE",
"577 230 OFFCURVE",
"611 403 CURVE",
"684 403 LINE",
"719 528 LINE",
"259 528 LINE SMOOTH",
"151 528 OFFCURVE",
"84 515 OFFCURVE",
"55 492 CURVE",
"53 393 LINE",
"81 400 OFFCURVE",
"117 403 OFFCURVE",
"161 403 CURVE",
"141 295 OFFCURVE",
"78 103 OFFCURVE",
"27 0 CURVE"
);
}
);
width = 708;
}
);
leftKerningGroup = pi;
note = pi;
rightKerningGroup = pi;
unicode = 03C0;
},
{
glyphname = zero;
lastChange = "2018-07-30 00:30:16 +0000";
layers = (
{
layerId = "9602D73B-DD3D-403F-8CEE-11CABA0497EF";
paths = (
{
closed = 1;
nodes = (
"514 -12 OFFCURVE",
"591 128 OFFCURVE",
"632 341 CURVE SMOOTH",
"640 383 OFFCURVE",
"644 423 OFFCURVE",
"644 460 CURVE SMOOTH",
"644 606 OFFCURVE",
"577 700 OFFCURVE",
"394 700 CURVE SMOOTH",
"166 700 OFFCURVE",
"88 563 OFFCURVE",
"47 350 CURVE SMOOTH",
"39 308 OFFCURVE",
"35 268 OFFCURVE",
"35 232 CURVE SMOOTH",
"35 84 OFFCURVE",
"103 -12 OFFCURVE",
"286 -12 CURVE SMOOTH"
);
},
{
closed = 1;
nodes = (
"249 123 OFFCURVE",
"227 151 OFFCURVE",
"227 214 CURVE SMOOTH",
"227 236 OFFCURVE",
"229 263 OFFCURVE",
"235 295 CURVE SMOOTH",
"275 507 OFFCURVE",
"291 565 OFFCURVE",
"379 565 CURVE SMOOTH",
"430 565 OFFCURVE",
"452 539 OFFCURVE",
"452 477 CURVE SMOOTH",
"452 455 OFFCURVE",
"449 427 OFFCURVE",
"443 394 CURVE SMOOTH",
"404 180 OFFCURVE",
"387 123 OFFCURVE",
"301 123 CURVE SMOOTH"
);
}
);
width = 667;
}
);
leftKerningGroup = zero;
note = zero;
rightKerningGroup = zero;
unicode = 0030;
},
{
glyphname = one;
lastChange = "2018-07-30 00:30:16 +0000";
layers = (
{
layerId = "9602D73B-DD3D-403F-8CEE-11CABA0497EF";
paths = (
{
closed = 1;
nodes = (
"563 0 LINE",
"590 154 LINE",
"433 154 LINE",
"528 689 LINE",
"461 689 LINE",
"374 638 OFFCURVE",
"241 587 OFFCURVE",
"147 581 CURVE",
"126 465 LINE",
"289 465 LINE",
"234 154 LINE",
"71 154 LINE",
"44 0 LINE"
);
}
);
width = 667;
}
);
leftKerningGroup = one;
note = one;
rightKerningGroup = one;
unicode = 0031;
},
{
glyphname = two;
lastChange = "2018-07-30 00:30:16 +0000";
layers = (
{
background = {
paths = (
{
closed = 1;
nodes = (
"-13 0 LINE",
"557 0 LINE",
"587 169 LINE",
"286 169 LINE",
"295 177 OFFCURVE",
"311 185 OFFCURVE",
"323 193 CURVE SMOOTH",
"471 283 OFFCURVE",
"612 355 OFFCURVE",
"636 493 CURVE SMOOTH",
"658 618 OFFCURVE",
"571 700 OFFCURVE",
"408 700 CURVE SMOOTH",
"211 700 OFFCURVE",
"96 608 OFFCURVE",
"72 467 CURVE SMOOTH",
"70 460 OFFCURVE",
"69 453 OFFCURVE",
"69 445 CURVE",
"247 445 LINE",
"250 465 LINE SMOOTH",
"260 519 OFFCURVE",
"302 559 OFFCURVE",
"364 559 CURVE SMOOTH",
"425 559 OFFCURVE",
"444 524 OFFCURVE",
"437 486 CURVE SMOOTH",
"433 464 OFFCURVE",
"416 443 OFFCURVE",
"389 420 CURVE SMOOTH",
"258 307 OFFCURVE",
"24 208 OFFCURVE",
"-4 48 CURVE SMOOTH"
);
}
);
};
layerId = "9602D73B-DD3D-403F-8CEE-11CABA0497EF";
paths = (
{
closed = 1;
nodes = (
"557 0 LINE",
"587 169 LINE",
"316 169 LINE",
"325 177 OFFCURVE",
"341 188 OFFCURVE",
"353 196 CURVE SMOOTH",
"491 280 OFFCURVE",
"639 364 OFFCURVE",
"639 516 CURVE SMOOTH",
"639 624 OFFCURVE",
"537 700 OFFCURVE",
"388 700 CURVE SMOOTH",
"209 700 OFFCURVE",
"85 614 OFFCURVE",
"69 445 CURVE",
"247 445 LINE",
"250 465 LINE SMOOTH",
"260 519 OFFCURVE",
"302 559 OFFCURVE",
"364 559 CURVE SMOOTH",
"417 559 OFFCURVE",
"438 532 OFFCURVE",
"438 501 CURVE SMOOTH",
"438 375 OFFCURVE",
"36 263 OFFCURVE",
"-4 48 CURVE SMOOTH",
"-13 0 LINE"
);
}
);
width = 667;
}
);
leftKerningGroup = two;
note = two;
rightKerningGroup = two;
unicode = 0032;
},
{
glyphname = three;
lastChange = "2018-07-30 00:30:16 +0000";
layers = (
{
background = {
paths = (
{
closed = 1;
nodes = (
"470 -12 OFFCURVE",
"573 77 OFFCURVE",
"597 187 CURVE",
"612 271 OFFCURVE",
"579 333 OFFCURVE",
"507 357 CURVE",
"508 361 LINE",
"571 383 OFFCURVE",
"623 444 OFFCURVE",
"635 513 CURVE SMOOTH",
"653 615 OFFCURVE",
"572 700 OFFCURVE",
"402 700 CURVE SMOOTH",
"226 700 OFFCURVE",
"112 615 OFFCURVE",
"94 512 CURVE SMOOTH",
"89 487 LINE",
"256 487 LINE",
"258 497 LINE SMOOTH",
"264 531 OFFCURVE",
"310 563 OFFCURVE",
"361 563 CURVE SMOOTH",
"418 563 OFFCURVE",
"442 525 OFFCURVE",
"435 484 CURVE SMOOTH",
"426 435 OFFCURVE",
"391 412 OFFCURVE",
"352 412 CURVE SMOOTH",
"295 412 LINE",
"273 289 LINE",
"346 289 LINE SMOOTH",
"385 289 OFFCURVE",
"412 266 OFFCURVE",
"404 217 CURVE SMOOTH",
"394 164 OFFCURVE",
"360 125 OFFCURVE",
"283 125 CURVE SMOOTH",
"212 125 OFFCURVE",
"184 153 OFFCURVE",
"190 188 CURVE SMOOTH",
"194 207 LINE",
"18 207 LINE",
"14 186 LINE SMOOTH",
"-5 77 OFFCURVE",
"71 -12 OFFCURVE",
"272 -12 CURVE SMOOTH"
);
}
);
};
layerId = "9602D73B-DD3D-403F-8CEE-11CABA0497EF";
paths = (
{
closed = 1;
nodes = (
"457 -12 OFFCURVE",
"600 68 OFFCURVE",
"600 220 CURVE SMOOTH",
"600 285 OFFCURVE",
"566 334 OFFCURVE",
"507 357 CURVE",
"508 361 LINE",
"578 382 OFFCURVE",
"637 452 OFFCURVE",
"637 535 CURVE SMOOTH",
"637 630 OFFCURVE",
"545 700 OFFCURVE",
"388 700 CURVE SMOOTH",
"212 700 OFFCURVE",
"112 615 OFFCURVE",
"94 512 CURVE SMOOTH",
"89 487 LINE",
"256 487 LINE",
"258 497 LINE SMOOTH",
"265 532 OFFCURVE",
"302 563 OFFCURVE",
"358 563 CURVE SMOOTH",
"411 563 OFFCURVE",
"436 533 OFFCURVE",
"436 498 CURVE SMOOTH",
"436 449 OFFCURVE",
"401 412 OFFCURVE",
"352 412 CURVE SMOOTH",
"295 412 LINE",
"273 289 LINE",
"346 289 LINE SMOOTH",
"380 289 OFFCURVE",
"405 271 OFFCURVE",
"405 233 CURVE SMOOTH",
"405 169 OFFCURVE",
"359 125 OFFCURVE",
"283 125 CURVE SMOOTH",
"218 125 OFFCURVE",
"189 148 OFFCURVE",
"189 179 CURVE SMOOTH",
"189 187 OFFCURVE",
"191 196 OFFCURVE",
"194 207 CURVE",
"18 207 LINE",
"13 188 OFFCURVE",
"11 171 OFFCURVE",
"11 156 CURVE SMOOTH",
"11 61 OFFCURVE",
"97 -12 OFFCURVE",
"279 -12 CURVE SMOOTH"
);
}
);
width = 667;
}
);
leftKerningGroup = three;
note = three;
rightKerningGroup = three;
unicode = 0033;
},
{
glyphname = four;
lastChange = "2018-07-30 00:30:16 +0000";
layers = (
{
layerId = "9602D73B-DD3D-403F-8CEE-11CABA0497EF";
paths = (
{
closed = 1;
nodes = (
"486 0 LINE",
"511 141 LINE",
"607 141 LINE",
"633 288 LINE",
"537 288 LINE",
"598 634 LINE",
"513 634 LINE",
"489 577 OFFCURVE",
"415 480 OFFCURVE",
"372 431 CURVE",
"347 288 LINE",
"155 288 LINE",
"265 385 OFFCURVE",
"438 591 OFFCURVE",
"473 700 CURVE",
"267 700 LINE",
"200 543 OFFCURVE",
"94 385 OFFCURVE",
"12 290 CURVE",
"-14 141 LINE",
"321 141 LINE",
"296 0 LINE"
);
}
);
width = 667;
}
);
leftKerningGroup = four;
note = four;
rightKerningGroup = four;
unicode = 0034;
},
{
glyphname = five;
lastChange = "2018-07-30 00:30:16 +0000";
layers = (
{
background = {
paths = (
{
closed = 1;
nodes = (
"454 -12 OFFCURVE",
"582 94 OFFCURVE",
"605 225 CURVE SMOOTH",
"631 371 OFFCURVE",
"553 459 OFFCURVE",
"407 459 CURVE SMOOTH",
"314 459 OFFCURVE",
"252 414 OFFCURVE",
"252 414 CURVE",
"279 518 LINE",
"606 518 LINE",
"636 688 LINE",
"160 688 LINE",
"63 303 LINE",
"217 281 LINE",
"230 294 OFFCURVE",
"255 331 OFFCURVE",
"322 331 CURVE SMOOTH",
"390 331 OFFCURVE",
"419 287 OFFCURVE",
"409 228 CURVE SMOOTH",
"398 170 OFFCURVE",
"355 126 OFFCURVE",
"285 126 CURVE SMOOTH",
"214 126 OFFCURVE",
"185 170 OFFCURVE",
"195 222 CURVE",
"19 222 LINE",
"-6 82 OFFCURVE",
"81 -12 OFFCURVE",
"281 -12 CURVE SMOOTH"
);
}
);
};
layerId = "9602D73B-DD3D-403F-8CEE-11CABA0497EF";
paths = (
{
closed = 1;
nodes = (
"470 -12 OFFCURVE",
"609 99 OFFCURVE",
"609 269 CURVE SMOOTH",
"609 386 OFFCURVE",
"525 459 OFFCURVE",
"396 459 CURVE SMOOTH",
"313 459 OFFCURVE",
"272 429 OFFCURVE",
"252 414 CURVE",
"279 518 LINE",
"606 518 LINE",
"636 688 LINE",
"160 688 LINE",
"63 303 LINE",
"217 281 LINE",
"230 294 OFFCURVE",
"255 331 OFFCURVE",
"322 331 CURVE SMOOTH",
"381 331 OFFCURVE",
"411 298 OFFCURVE",
"411 250 CURVE SMOOTH",
"411 182 OFFCURVE",
"361 126 OFFCURVE",
"285 126 CURVE SMOOTH",
"223 126 OFFCURVE",
"193 159 OFFCURVE",
"193 203 CURVE SMOOTH",
"193 209 OFFCURVE",
"194 215 OFFCURVE",
"195 222 CURVE",
"19 222 LINE",
"16 208 OFFCURVE",
"15 194 OFFCURVE",
"15 181 CURVE SMOOTH",
"15 64 OFFCURVE",
"113 -12 OFFCURVE",
"293 -12 CURVE SMOOTH"
);
}
);
width = 667;
}
);
leftKerningGroup = five;
note = five;
rightKerningGroup = five;
unicode = 0035;
},
{
glyphname = six;
lastChange = "2018-07-30 00:30:16 +0000";
layers = (
{
background = {
paths = (
{
closed = 1;
nodes = (
"454 -12 OFFCURVE",
"583 74 OFFCURVE",
"611 228 CURVE SMOOTH",
"635 365 OFFCURVE",
"540 439 OFFCURVE",
"404 439 CURVE SMOOTH",
"361 439 OFFCURVE",
"297 424 OFFCURVE",
"250 387 CURVE",
"272 513 OFFCURVE",
"300 565 OFFCURVE",
"381 565 CURVE SMOOTH",
"438 565 OFFCURVE",
"469 533 OFFCURVE",
"458 468 CURVE",
"636 468 LINE",
"663 620 OFFCURVE",
"565 700 OFFCURVE",
"402 700 CURVE SMOOTH",
"202 700 OFFCURVE",
"85 594 OFFCURVE",
"38 327 CURVE SMOOTH",
"-3 94 OFFCURVE",
"76 -12 OFFCURVE",
"276 -12 CURVE SMOOTH"
);
},
{
closed = 1;
nodes = (
"237 123 OFFCURVE",
"209 158 OFFCURVE",
"220 221 CURVE SMOOTH",
"231 284 OFFCURVE",
"273 319 OFFCURVE",
"336 319 CURVE SMOOTH",
"399 319 OFFCURVE",
"427 282 OFFCURVE",
"416 219 CURVE SMOOTH",
"405 156 OFFCURVE",
"363 123 OFFCURVE",
"300 123 CURVE SMOOTH"
);
}
);
};
layerId = "9602D73B-DD3D-403F-8CEE-11CABA0497EF";
paths = (
{
closed = 1;
nodes = (
"479 -12 OFFCURVE",
"614 91 OFFCURVE",
"614 260 CURVE SMOOTH",
"614 375 OFFCURVE",
"521 439 OFFCURVE",
"398 439 CURVE SMOOTH",
"343 439 OFFCURVE",
"288 419 OFFCURVE",
"250 387 CURVE",
"272 513 OFFCURVE",
"300 565 OFFCURVE",
"381 565 CURVE SMOOTH",
"430 565 OFFCURVE",
"460 541 OFFCURVE",
"460 492 CURVE SMOOTH",
"460 485 OFFCURVE",
"459 477 OFFCURVE",
"458 468 CURVE",
"636 468 LINE",
"639 484 OFFCURVE",
"640 499 OFFCURVE",
"640 513 CURVE SMOOTH",
"640 636 OFFCURVE",
"538 700 OFFCURVE",
"392 700 CURVE SMOOTH",
"192 700 OFFCURVE",
"85 603 OFFCURVE",
"38 336 CURVE SMOOTH",
"31 299 OFFCURVE",
"28 264 OFFCURVE",
"28 233 CURVE SMOOTH",
"28 69 OFFCURVE",
"118 -12 OFFCURVE",
"286 -12 CURVE SMOOTH"
);
},
{
closed = 1;
nodes = (
"246 123 OFFCURVE",
"218 149 OFFCURVE",
"218 196 CURVE SMOOTH",
"218 270 OFFCURVE",
"263 319 OFFCURVE",
"336 319 CURVE SMOOTH",
"390 319 OFFCURVE",
"418 292 OFFCURVE",
"418 244 CURVE SMOOTH",
"418 174 OFFCURVE",
"377 123 OFFCURVE",
"300 123 CURVE SMOOTH"
);
}
);
width = 667;
}
);
leftKerningGroup = six;
note = six;
rightKerningGroup = six;
unicode = 0036;
},
{
glyphname = seven;
lastChange = "2018-07-30 00:30:16 +0000";
layers = (
{
background = {
paths = (
{
closed = 1;
nodes = (
"319 0 LINE",
"330 59 LINE SMOOTH",
"366 262 OFFCURVE",
"515 440 OFFCURVE",
"670 597 CURVE",
"686 688 LINE",
"106 688 LINE",
"75 516 LINE",
"405 516 LINE",
"255 370 OFFCURVE",
"131 190 OFFCURVE",
"97 0 CURVE"
);
}
);
};
layerId = "9602D73B-DD3D-403F-8CEE-11CABA0497EF";
paths = (
{
closed = 1;
nodes = (
"328 0 LINE",
"332 20 OFFCURVE",
"335 39 OFFCURVE",
"339 59 CURVE SMOOTH",
"377 262 OFFCURVE",
"515 440 OFFCURVE",
"670 597 CURVE",
"686 688 LINE",
"106 688 LINE",
"75 516 LINE",
"393 516 LINE",
"243 370 OFFCURVE",
"121 190 OFFCURVE",
"87 0 CURVE"
);
}
);
width = 667;
}
);
leftKerningGroup = seven;
note = seven;
rightKerningGroup = seven;
unicode = 0037;
},
{
glyphname = eight;
lastChange = "2018-07-30 00:30:16 +0000";
layers = (
{
background = {
paths = (
{
closed = 1;
nodes = (
"447 -12 OFFCURVE",
"576 58 OFFCURVE",
"599 189 CURVE SMOOTH",
"613 271 OFFCURVE",
"576 312 OFFCURVE",
"517 349 CURVE",
"591 400 OFFCURVE",
"616 437 OFFCURVE",
"627 497 CURVE SMOOTH",
"650 628 OFFCURVE",
"543 700 OFFCURVE",
"395 700 CURVE SMOOTH",
"247 700 OFFCURVE",
"116 628 OFFCURVE",
"93 497 CURVE SMOOTH",
"83 439 OFFCURVE",
"93 402 OFFCURVE",
"151 349 CURVE",
"78 312 OFFCURVE",
"28 271 OFFCURVE",
"14 189 CURVE SMOOTH",
"-9 58 OFFCURVE",
"91 -12 OFFCURVE",
"269 -12 CURVE SMOOTH"
);
},
{
closed = 1;
nodes = (
"294 414 OFFCURVE",
"256 435 OFFCURVE",
"266 489 CURVE SMOOTH",
"275 543 OFFCURVE",
"317 565 OFFCURVE",
"371 565 CURVE SMOOTH",
"425 565 OFFCURVE",
"462 543 OFFCURVE",
"453 489 CURVE SMOOTH",
"443 435 OFFCURVE",
"394 414 OFFCURVE",
"344 414 CURVE SMOOTH"
);
},
{
closed = 1;
nodes = (
"239 123 OFFCURVE",
"206 151 OFFCURVE",
"215 205 CURVE SMOOTH",
"225 259 OFFCURVE",
"272 287 OFFCURVE",
"322 287 CURVE SMOOTH",
"372 287 OFFCURVE",
"412 259 OFFCURVE",
"402 205 CURVE SMOOTH",
"393 151 OFFCURVE",
"347 123 OFFCURVE",
"293 123 CURVE SMOOTH"
);
}
);
};
layerId = "9602D73B-DD3D-403F-8CEE-11CABA0497EF";
paths = (
{
closed = 1;
nodes = (
"454 -12 OFFCURVE",
"602 60 OFFCURVE",
"602 216 CURVE SMOOTH",
"602 281 OFFCURVE",
"565 325 OFFCURVE",
"517 349 CURVE",
"590 388 OFFCURVE",
"630 449 OFFCURVE",
"630 525 CURVE SMOOTH",
"630 636 OFFCURVE",
"521 700 OFFCURVE",
"386 700 CURVE SMOOTH",
"227 700 OFFCURVE",
"90 617 OFFCURVE",
"90 471 CURVE SMOOTH",
"90 424 OFFCURVE",
"109 381 OFFCURVE",
"151 349 CURVE",
"70 318 OFFCURVE",
"11 251 OFFCURVE",
"11 160 CURVE SMOOTH",
"11 50 OFFCURVE",
"116 -12 OFFCURVE",
"278 -12 CURVE SMOOTH"
);
},
{
closed = 1;
nodes = (
"245 123 OFFCURVE",
"214 145 OFFCURVE",
"214 188 CURVE SMOOTH",
"214 247 OFFCURVE",
"262 287 OFFCURVE",
"322 287 CURVE SMOOTH",
"367 287 OFFCURVE",
"404 265 OFFCURVE",
"404 221 CURVE SMOOTH",
"404 165 OFFCURVE",
"359 123 OFFCURVE",
"293 123 CURVE SMOOTH"
);
},
{
closed = 1;
nodes = (
"299 414 OFFCURVE",
"264 431 OFFCURVE",
"264 473 CURVE SMOOTH",
"264 529 OFFCURVE",
"305 565 OFFCURVE",
"371 565 CURVE SMOOTH",
"420 565 OFFCURVE",
"454 547 OFFCURVE",
"454 504 CURVE SMOOTH",
"454 445 OFFCURVE",
"404 414 OFFCURVE",
"344 414 CURVE SMOOTH"
);
}
);
width = 667;
}
);
leftKerningGroup = eight;
note = eight;
rightKerningGroup = eight;
unicode = 0038;
},
{
glyphname = nine;
lastChange = "2018-07-30 00:30:16 +0000";
layers = (
{
background = {
paths = (
{
closed = 1;
nodes = (
"465 -12 OFFCURVE",
"582 94 OFFCURVE",
"629 361 CURVE SMOOTH",
"670 594 OFFCURVE",
"591 700 OFFCURVE",
"391 700 CURVE SMOOTH",
"213 700 OFFCURVE",
"84 614 OFFCURVE",
"56 460 CURVE SMOOTH",
"32 323 OFFCURVE",
"127 249 OFFCURVE",
"263 249 CURVE SMOOTH",
"306 249 OFFCURVE",
"370 264 OFFCURVE",
"417 301 CURVE",
"395 175 OFFCURVE",
"367 123 OFFCURVE",
"286 123 CURVE SMOOTH",
"229 123 OFFCURVE",
"198 155 OFFCURVE",
"209 220 CURVE",
"31 220 LINE",
"4 68 OFFCURVE",
"102 -12 OFFCURVE",
"265 -12 CURVE SMOOTH"
);
},
{
closed = 1;
nodes = (
"267 369 OFFCURVE",
"240 404 OFFCURVE",
"251 467 CURVE SMOOTH",
"262 530 OFFCURVE",
"303 565 OFFCURVE",
"366 565 CURVE SMOOTH",
"429 565 OFFCURVE",
"457 528 OFFCURVE",
"446 465 CURVE SMOOTH",
"435 402 OFFCURVE",
"393 369 OFFCURVE",
"330 369 CURVE SMOOTH"
);
}
);
};
layerId = "9602D73B-DD3D-403F-8CEE-11CABA0497EF";
paths = (
{
closed = 1;
nodes = (
"474 -12 OFFCURVE",
"579 82 OFFCURVE",
"629 349 CURVE SMOOTH",
"636 386 OFFCURVE",
"640 421 OFFCURVE",
"640 454 CURVE SMOOTH",
"640 606 OFFCURVE",
"560 700 OFFCURVE",
"382 700 CURVE SMOOTH",
"194 700 OFFCURVE",
"53 600 OFFCURVE",
"53 426 CURVE SMOOTH",
"53 314 OFFCURVE",
"141 249 OFFCURVE",
"263 249 CURVE SMOOTH",
"306 249 OFFCURVE",
"370 264 OFFCURVE",
"417 301 CURVE",
"395 175 OFFCURVE",
"367 123 OFFCURVE",
"286 123 CURVE SMOOTH",
"237 123 OFFCURVE",
"207 147 OFFCURVE",
"207 196 CURVE SMOOTH",
"207 203 OFFCURVE",
"208 211 OFFCURVE",
"209 220 CURVE",
"31 220 LINE",
"28 204 OFFCURVE",
"27 189 OFFCURVE",
"27 175 CURVE SMOOTH",
"27 52 OFFCURVE",
"128 -12 OFFCURVE",
"274 -12 CURVE SMOOTH"
);
},
{
closed = 1;
nodes = (
"276 369 OFFCURVE",
"249 395 OFFCURVE",
"249 441 CURVE SMOOTH",
"249 515 OFFCURVE",
"293 565 OFFCURVE",
"366 565 CURVE SMOOTH",
"420 565 OFFCURVE",
"448 538 OFFCURVE",
"448 490 CURVE SMOOTH",
"448 420 OFFCURVE",
"407 369 OFFCURVE",
"330 369 CURVE SMOOTH"
);
}
);
width = 667;
}
);
leftKerningGroup = nine;
note = nine;
rightKerningGroup = nine;
unicode = 0039;
},
{
glyphname = zero.osf;
lastChange = "2018-08-02 00:28:46 +0000";
layers = (
{
layerId = "9602D73B-DD3D-403F-8CEE-11CABA0497EF";
paths = (
{
closed = 1;
nodes = (
"518 -10 OFFCURVE",
"577 135 OFFCURVE",
"611 297 CURVE SMOOTH",
"616 321 OFFCURVE",
"620 357 OFFCURVE",
"620 389 CURVE SMOOTH",
"620 511 OFFCURVE",
"566 610 OFFCURVE",
"387 610 CURVE SMOOTH",
"156 610 OFFCURVE",
"95 468 OFFCURVE",
"60 306 CURVE SMOOTH",
"55 283 OFFCURVE",
"51 245 OFFCURVE",
"51 216 CURVE SMOOTH",
"51 92 OFFCURVE",
"106 -10 OFFCURVE",
"286 -10 CURVE SMOOTH"
);
},
{
closed = 1;
nodes = (
"261 118 OFFCURVE",
"242 142 OFFCURVE",
"242 195 CURVE SMOOTH",
"242 210 OFFCURVE",
"242 230 OFFCURVE",
"242 228 CURVE",
"282 436 OFFCURVE",
"292 481 OFFCURVE",
"368 481 CURVE SMOOTH",
"410 481 OFFCURVE",
"430 461 OFFCURVE",
"430 408 CURVE SMOOTH",
"430 393 OFFCURVE",
"428 370 OFFCURVE",
"428 373 CURVE",
"390 162 OFFCURVE",
"377 118 OFFCURVE",
"305 118 CURVE SMOOTH"
);
}
);
userData = {
RMXScaler = {
height = 87;
width = 87;
};
};
width = 667;
}
);
leftKerningGroup = zero.osf;
rightKerningGroup = zero.osf;
userData = {
RMXScaler = {
source = zero;
};
};
},
{
glyphname = one.osf;
lastChange = "2018-08-02 00:28:46 +0000";
layers = (
{
layerId = "9602D73B-DD3D-403F-8CEE-11CABA0497EF";
paths = (
{
closed = 1;
nodes = (
"558 0 LINE",
"584 152 LINE",
"445 152 LINE",
"525 601 LINE",
"466 601 LINE",
"390 554 OFFCURVE",
"263 502 OFFCURVE",
"166 496 CURVE",
"146 382 LINE",
"287 382 LINE",
"246 152 LINE",
"105 152 LINE",
"78 0 LINE"
);
}
);
userData = {
RMXScaler = {
height = 87;
width = 87;
};
};
width = 667;
}
);
leftKerningGroup = one.osf;
rightKerningGroup = one.osf;
userData = {
RMXScaler = {
source = one;
};
};
},
{
glyphname = two.osf;
lastChange = "2018-08-02 00:28:46 +0000";
layers = (
{
background = {
paths = (
{
closed = 1;
nodes = (
"597 0 LINE",
"597 167 LINE",
"342 167 LINE",
"350 173 OFFCURVE",
"368 182 OFFCURVE",
"375 186 CURVE SMOOTH",
"512 264 OFFCURVE",
"589 327 OFFCURVE",
"589 427 CURVE SMOOTH",
"589 558 OFFCURVE",
"474 610 OFFCURVE",
"343 610 CURVE SMOOTH",
"147 610 OFFCURVE",
"67 518 OFFCURVE",
"67 398 CURVE SMOOTH",
"67 396 OFFCURVE",
"66 394 OFFCURVE",
"67 385 CURVE",
"240 385 LINE",
"240 395 LINE SMOOTH",
"240 437 OFFCURVE",
"271 474 OFFCURVE",
"321 474 CURVE SMOOTH",
"370 474 OFFCURVE",
"392 448 OFFCURVE",
"392 416 CURVE SMOOTH",
"392 399 OFFCURVE",
"379 386 OFFCURVE",
"357 367 CURVE SMOOTH",
"249 274 OFFCURVE",
"67 173 OFFCURVE",
"67 47 CURVE SMOOTH",
"67 0 LINE"
);
}
);
};
layerId = "9602D73B-DD3D-403F-8CEE-11CABA0497EF";
paths = (
{
closed = 1;
nodes = (
"543 0 LINE",
"573 167 LINE",
"349 167 LINE",
"376 185 OFFCURVE",
"373 182 OFFCURVE",
"383 188 CURVE SMOOTH",
"515 267 OFFCURVE",
"613 335 OFFCURVE",
"613 444 CURVE SMOOTH",
"613 550 OFFCURVE",
"500 610 OFFCURVE",
"379 610 CURVE SMOOTH",
"205 610 OFFCURVE",
"96 526 OFFCURVE",
"82 385 CURVE",
"259 385 LINE",
"259 395 LINE SMOOTH",
"259 437 OFFCURVE",
"302 474 OFFCURVE",
"351 474 CURVE SMOOTH",
"395 474 OFFCURVE",
"412 453 OFFCURVE",
"412 428 CURVE SMOOTH",
"412 341 OFFCURVE",
"56 226 OFFCURVE",
"22 47 CURVE SMOOTH",
"13 0 LINE"
);
}
);
userData = {
RMXScaler = {
height = 87;
width = 87;
};
};
width = 667;
}
);
leftKerningGroup = two.osf;
rightKerningGroup = two.osf;
userData = {
RMXScaler = {
source = two;
};
};
},
{
glyphname = three.osf;
lastChange = "2018-08-02 00:28:46 +0000";
layers = (
{
layerId = "9602D73B-DD3D-403F-8CEE-11CABA0497EF";
paths = (
{
closed = 1;
nodes = (
"450 -10 OFFCURVE",
"584 57 OFFCURVE",
"584 195 CURVE SMOOTH",
"584 248 OFFCURVE",
"557 291 OFFCURVE",
"505 312 CURVE",
"506 316 LINE",
"565 331 OFFCURVE",
"614 399 OFFCURVE",
"614 465 CURVE SMOOTH",
"614 544 OFFCURVE",
"530 610 OFFCURVE",
"384 610 CURVE SMOOTH",
"213 610 OFFCURVE",
"126 533 OFFCURVE",
"110 447 CURVE SMOOTH",
"106 425 LINE",
"265 425 LINE",
"266 431 LINE SMOOTH",
"270 453 OFFCURVE",
"301 479 OFFCURVE",
"348 479 CURVE SMOOTH",
"396 479 OFFCURVE",
"415 449 OFFCURVE",
"415 423 CURVE SMOOTH",
"415 394 OFFCURVE",
"394 362 OFFCURVE",
"356 362 CURVE SMOOTH",
"276 362 LINE",
"256 249 LINE",
"326 249 LINE SMOOTH",
"378 249 OFFCURVE",
"391 222 OFFCURVE",
"391 198 CURVE SMOOTH",
"391 151 OFFCURVE",
"356 120 OFFCURVE",
"288 120 CURVE SMOOTH",
"230 120 OFFCURVE",
"207 140 OFFCURVE",
"207 160 CURVE SMOOTH",
"207 166 OFFCURVE",
"209 174 OFFCURVE",
"211 179 CURVE",
"41 179 LINE",
"38 168 OFFCURVE",
"35 152 OFFCURVE",
"35 137 CURVE SMOOTH",
"35 56 OFFCURVE",
"114 -10 OFFCURVE",
"282 -10 CURVE SMOOTH"
);
}
);
userData = {
RMXScaler = {
height = 87;
width = 87;
};
};
width = 667;
}
);
leftKerningGroup = three.osf;
rightKerningGroup = three.osf;
userData = {
RMXScaler = {
source = three;
};
};
},
{
glyphname = four.osf;
lastChange = "2018-08-02 00:28:46 +0000";
layers = (
{
layerId = "9602D73B-DD3D-403F-8CEE-11CABA0497EF";
paths = (
{
closed = 1;
nodes = (
"485 0 LINE",
"506 119 LINE",
"595 119 LINE",
"620 263 LINE",
"532 263 LINE",
"585 566 LINE",
"502 566 LINE",
"481 515 OFFCURVE",
"408 428 OFFCURVE",
"365 383 CURVE",
"344 263 LINE",
"172 263 LINE",
"289 363 OFFCURVE",
"447 540 OFFCURVE",
"464 610 CURVE",
"262 610 LINE",
"205 478 OFFCURVE",
"103 337 OFFCURVE",
"39 265 CURVE",
"13 119 LINE",
"319 119 LINE",
"298 0 LINE"
);
}
);
userData = {
RMXScaler = {
height = 87;
width = 87;
};
};
width = 667;
}
);
leftKerningGroup = four.osf;
rightKerningGroup = four.osf;
userData = {
RMXScaler = {
source = four;
};
};
},
{
glyphname = five.osf;
lastChange = "2018-08-02 00:28:46 +0000";
layers = (
{
layerId = "9602D73B-DD3D-403F-8CEE-11CABA0497EF";
paths = (
{
closed = 1;
nodes = (
"465 -10 OFFCURVE",
"594 89 OFFCURVE",
"594 234 CURVE SMOOTH",
"594 334 OFFCURVE",
"517 404 OFFCURVE",
"395 404 CURVE SMOOTH",
"313 404 OFFCURVE",
"276 374 OFFCURVE",
"262 362 CURVE",
"281 431 LINE",
"582 431 LINE",
"612 599 LINE",
"168 599 LINE",
"82 262 LINE",
"229 241 LINE",
"236 247 OFFCURVE",
"254 283 OFFCURVE",
"319 283 CURVE SMOOTH",
"374 283 OFFCURVE",
"398 253 OFFCURVE",
"398 216 CURVE SMOOTH",
"398 172 OFFCURVE",
"361 122 OFFCURVE",
"291 122 CURVE SMOOTH",
"235 122 OFFCURVE",
"210 151 OFFCURVE",
"210 184 CURVE SMOOTH",
"210 188 OFFCURVE",
"211 192 OFFCURVE",
"211 196 CURVE",
"42 196 LINE",
"40 185 OFFCURVE",
"39 173 OFFCURVE",
"39 163 CURVE SMOOTH",
"39 60 OFFCURVE",
"129 -10 OFFCURVE",
"300 -10 CURVE SMOOTH"
);
}
);
userData = {
RMXScaler = {
height = 87;
width = 87;
};
};
width = 667;
}
);
leftKerningGroup = five.osf;
rightKerningGroup = five.osf;
userData = {
RMXScaler = {
source = five;
};
};
},
{
glyphname = six.osf;
lastChange = "2018-08-02 00:28:46 +0000";
layers = (
{
layerId = "9602D73B-DD3D-403F-8CEE-11CABA0497EF";
paths = (
{
closed = 1;
nodes = (
"475 -10 OFFCURVE",
"600 77 OFFCURVE",
"600 225 CURVE SMOOTH",
"600 328 OFFCURVE",
"505 382 OFFCURVE",
"409 382 CURVE SMOOTH",
"363 382 OFFCURVE",
"311 374 OFFCURVE",
"269 338 CURVE",
"287 447 OFFCURVE",
"312 481 OFFCURVE",
"377 481 CURVE SMOOTH",
"419 481 OFFCURVE",
"448 461 OFFCURVE",
"448 417 CURVE SMOOTH",
"448 413 OFFCURVE",
"448 407 OFFCURVE",
"447 401 CURVE",
"620 401 LINE",
"623 415 OFFCURVE",
"623 429 OFFCURVE",
"623 438 CURVE SMOOTH",
"623 555 OFFCURVE",
"518 610 OFFCURVE",
"389 610 CURVE SMOOTH",
"196 610 OFFCURVE",
"100 522 OFFCURVE",
"59 297 CURVE SMOOTH",
"53 264 OFFCURVE",
"51 239 OFFCURVE",
"51 214 CURVE SMOOTH",
"51 70 OFFCURVE",
"132 -10 OFFCURVE",
"298 -10 CURVE SMOOTH"
);
},
{
closed = 1;
nodes = (
"263 118 OFFCURVE",
"238 137 OFFCURVE",
"238 175 CURVE SMOOTH",
"238 234 OFFCURVE",
"275 271 OFFCURVE",
"337 271 CURVE SMOOTH",
"381 271 OFFCURVE",
"407 251 OFFCURVE",
"407 211 CURVE SMOOTH",
"407 155 OFFCURVE",
"373 118 OFFCURVE",
"308 118 CURVE SMOOTH"
);
}
);
userData = {
RMXScaler = {
height = 87;
width = 87;
};
};
width = 667;
}
);
leftKerningGroup = six.osf;
rightKerningGroup = six.osf;
userData = {
RMXScaler = {
source = six;
};
};
},
{
glyphname = seven.osf;
lastChange = "2018-08-02 00:28:46 +0000";
layers = (
{
layerId = "9602D73B-DD3D-403F-8CEE-11CABA0497EF";
paths = (
{
closed = 1;
nodes = (
"350 0 LINE",
"361 53 OFFCURVE",
"358 43 OFFCURVE",
"361 56 CURVE SMOOTH",
"400 225 OFFCURVE",
"505 375 OFFCURVE",
"646 518 CURVE",
"660 599 LINE",
"123 599 LINE",
"92 429 LINE",
"364 429 LINE",
"231 298 OFFCURVE",
"136 153 OFFCURVE",
"108 0 CURVE"
);
}
);
userData = {
RMXScaler = {
height = 87;
width = 87;
};
};
width = 667;
}
);
leftKerningGroup = seven.osf;
rightKerningGroup = seven.osf;
userData = {
RMXScaler = {
source = seven;
};
};
},
{
glyphname = eight.osf;
lastChange = "2018-08-02 00:28:46 +0000";
layers = (
{
layerId = "9602D73B-DD3D-403F-8CEE-11CABA0497EF";
paths = (
{
closed = 1;
nodes = (
"436 -10 OFFCURVE",
"588 39 OFFCURVE",
"588 188 CURVE SMOOTH",
"588 247 OFFCURVE",
"550 284 OFFCURVE",
"514 303 CURVE",
"575 337 OFFCURVE",
"608 389 OFFCURVE",
"608 454 CURVE SMOOTH",
"608 557 OFFCURVE",
"497 610 OFFCURVE",
"384 610 CURVE SMOOTH",
"243 610 OFFCURVE",
"109 545 OFFCURVE",
"109 408 CURVE SMOOTH",
"109 370 OFFCURVE",
"124 332 OFFCURVE",
"159 303 CURVE",
"93 277 OFFCURVE",
"38 222 OFFCURVE",
"38 143 CURVE SMOOTH",
"38 41 OFFCURVE",
"145 -10 OFFCURVE",
"285 -10 CURVE SMOOTH"
);
},
{
closed = 1;
nodes = (
"261 118 OFFCURVE",
"230 135 OFFCURVE",
"230 170 CURVE SMOOTH",
"230 217 OFFCURVE",
"276 250 OFFCURVE",
"325 250 CURVE SMOOTH",
"363 250 OFFCURVE",
"402 231 OFFCURVE",
"402 193 CURVE SMOOTH",
"402 153 OFFCURVE",
"364 118 OFFCURVE",
"303 118 CURVE SMOOTH"
);
},
{
closed = 1;
nodes = (
"311 361 OFFCURVE",
"276 373 OFFCURVE",
"276 411 CURVE SMOOTH",
"276 452 OFFCURVE",
"309 481 OFFCURVE",
"366 481 CURVE SMOOTH",
"408 481 OFFCURVE",
"439 468 OFFCURVE",
"439 432 CURVE SMOOTH",
"439 384 OFFCURVE",
"395 361 OFFCURVE",
"346 361 CURVE SMOOTH"
);
}
);
userData = {
RMXScaler = {
height = 87;
width = 87;
};
};
width = 667;
}
);
leftKerningGroup = eight.osf;
rightKerningGroup = eight.osf;
userData = {
RMXScaler = {
source = eight;
};
};
},
{
glyphname = nine.osf;
lastChange = "2018-08-02 00:28:46 +0000";
layers = (
{
layerId = "9602D73B-DD3D-403F-8CEE-11CABA0497EF";
paths = (
{
closed = 1;
nodes = (
"477 -10 OFFCURVE",
"568 73 OFFCURVE",
"615 299 CURVE SMOOTH",
"621 328 OFFCURVE",
"624 359 OFFCURVE",
"624 384 CURVE SMOOTH",
"624 513 OFFCURVE",
"556 610 OFFCURVE",
"367 610 CURVE SMOOTH",
"206 610 OFFCURVE",
"74 526 OFFCURVE",
"74 372 CURVE SMOOTH",
"74 273 OFFCURVE",
"163 218 OFFCURVE",
"267 218 CURVE SMOOTH",
"290 218 OFFCURVE",
"353 220 OFFCURVE",
"405 261 CURVE",
"387 152 OFFCURVE",
"362 118 OFFCURVE",
"297 118 CURVE SMOOTH",
"256 118 OFFCURVE",
"226 138 OFFCURVE",
"226 182 CURVE SMOOTH",
"226 186 OFFCURVE",
"226 192 OFFCURVE",
"227 198 CURVE",
"54 198 LINE",
"51 185 OFFCURVE",
"51 173 OFFCURVE",
"51 162 CURVE SMOOTH",
"51 44 OFFCURVE",
"155 -10 OFFCURVE",
"294 -10 CURVE SMOOTH"
);
},
{
closed = 1;
nodes = (
"291 328 OFFCURVE",
"267 348 OFFCURVE",
"267 385 CURVE SMOOTH",
"267 446 OFFCURVE",
"305 481 OFFCURVE",
"365 481 CURVE SMOOTH",
"410 481 OFFCURVE",
"434 461 OFFCURVE",
"434 422 CURVE SMOOTH",
"434 368 OFFCURVE",
"403 328 OFFCURVE",
"336 328 CURVE SMOOTH"
);
}
);
userData = {
RMXScaler = {
height = 87;
width = 87;
};
};
width = 667;
}
);
leftKerningGroup = nine.osf;
rightKerningGroup = nine.osf;
userData = {
RMXScaler = {
source = nine;
};
};
},
{
glyphname = zero.osf.zero;
lastChange = "2018-08-07 00:43:09 +0000";
layers = (
{
components = (
{
alignment = 1;
name = zero.osf;
}
);
layerId = "9602D73B-DD3D-403F-8CEE-11CABA0497EF";
paths = (
{
closed = 1;
nodes = (
"249 68 LINE",
"492 528 LINE",
"423 528 LINE",
"180 68 LINE"
);
}
);
width = 667;
}
);
leftKerningGroup = zero.tf.zero;
leftMetricsKey = zero.osf;
rightKerningGroup = zero.tf.zero;
rightMetricsKey = zero.osf;
},
{
glyphname = zero.zero;
lastChange = "2018-07-30 00:30:16 +0000";
layers = (
{
components = (
{
alignment = 1;
name = zero;
}
);
layerId = "9602D73B-DD3D-403F-8CEE-11CABA0497EF";
paths = (
{
closed = 1;
nodes = (
"219 64 LINE",
"524 620 LINE",
"460 620 LINE",
"155 64 LINE"
);
}
);
width = 667;
}
);
leftKerningGroup = zero.zero;
rightKerningGroup = zero.zero;
},
{
glyphname = zerosuperior;
lastChange = "2018-07-30 00:30:16 +0000";
layers = (
{
layerId = "9602D73B-DD3D-403F-8CEE-11CABA0497EF";
paths = (
{
closed = 1;
nodes = (
"364 428 OFFCURVE",
"412 504 OFFCURVE",
"431 610 CURVE SMOOTH",
"435 630 OFFCURVE",
"437 649 OFFCURVE",
"437 668 CURVE SMOOTH",
"437 745 OFFCURVE",
"400 800 OFFCURVE",
"300 800 CURVE SMOOTH",
"175 800 OFFCURVE",
"124 724 OFFCURVE",
"105 618 CURVE SMOOTH",
"102 599 OFFCURVE",
"100 580 OFFCURVE",
"100 563 CURVE SMOOTH",
"100 484 OFFCURVE",
"138 428 OFFCURVE",
"240 428 CURVE SMOOTH"
);
},
{
closed = 1;
nodes = (
"227 513 OFFCURVE",
"214 523 OFFCURVE",
"214 553 CURVE SMOOTH",
"214 566 OFFCURVE",
"217 586 OFFCURVE",
"228 640 CURVE SMOOTH",
"239 698 OFFCURVE",
"255 714 OFFCURVE",
"287 714 CURVE SMOOTH",
"310 714 OFFCURVE",
"322 705 OFFCURVE",
"322 676 CURVE SMOOTH",
"322 663 OFFCURVE",
"319 643 OFFCURVE",
"308 588 CURVE SMOOTH",
"297 530 OFFCURVE",
"282 513 OFFCURVE",
"251 513 CURVE SMOOTH"
);
}
);
width = 420;
}
);
leftKerningGroup = zerosuperior;
rightKerningGroup = zerosuperior;
unicode = 2070;
},
{
glyphname = onesuperior;
lastChange = "2018-07-30 00:30:16 +0000";
layers = (
{
layerId = "9602D73B-DD3D-403F-8CEE-11CABA0497EF";
paths = (
{
closed = 1;
nodes = (
"411 434 LINE",
"427 526 LINE",
"324 526 LINE",
"372 794 LINE",
"328 794 LINE",
"271 763 OFFCURVE",
"184 733 OFFCURVE",
"122 729 CURVE",
"110 660 LINE",
"217 660 LINE",
"193 526 LINE",
"86 526 LINE",
"70 434 LINE"
);
}
);
width = 420;
}
);
leftKerningGroup = onesuperior;
note = uni00B9;
rightKerningGroup = onesuperior;
unicode = 00B9;
},
{
glyphname = twosuperior;
lastChange = "2018-07-30 00:30:16 +0000";
layers = (
{
background = {
paths = (
{
closed = 1;
nodes = (
"75 434 LINE",
"404 434 LINE",
"420 525 LINE",
"275 525 LINE",
"286 532 OFFCURVE",
"302 538 OFFCURVE",
"313 545 CURVE SMOOTH",
"390 594 OFFCURVE",
"433 615 OFFCURVE",
"445 685 CURVE SMOOTH",
"446 690 OFFCURVE",
"446 696 OFFCURVE",
"446 701 CURVE SMOOTH",
"446 758 OFFCURVE",
"392 799 OFFCURVE",
"306 799 CURVE SMOOTH",
"192 799 OFFCURVE",
"136 749 OFFCURVE",
"118 676 CURVE SMOOTH",
"117 672 OFFCURVE",
"117 669 OFFCURVE",
"118 665 CURVE",
"222 665 LINE",
"223 675 LINE SMOOTH",
"226 703 OFFCURVE",
"253 722 OFFCURVE",
"287 722 CURVE SMOOTH",
"315 722 OFFCURVE",
"326 710 OFFCURVE",
"326 694 CURVE SMOOTH",
"326 674 OFFCURVE",
"310 655 OFFCURVE",
"282 636 CURVE SMOOTH",
"251 615 OFFCURVE",
"207 584 OFFCURVE",
"150 549 CURVE SMOOTH",
"114 527 OFFCURVE",
"85 499 OFFCURVE",
"79 460 CURVE SMOOTH"
);
}
);
};
layerId = "9602D73B-DD3D-403F-8CEE-11CABA0497EF";
paths = (
{
closed = 1;
nodes = (
"404 434 LINE",
"420 525 LINE",
"275 525 LINE",
"352 570 OFFCURVE",
"446 611 OFFCURVE",
"446 701 CURVE SMOOTH",
"446 758 OFFCURVE",
"391 799 OFFCURVE",
"305 799 CURVE SMOOTH",
"210 799 OFFCURVE",
"128 759 OFFCURVE",
"118 665 CURVE",
"222 665 LINE",
"223 675 LINE SMOOTH",
"226 703 OFFCURVE",
"253 722 OFFCURVE",
"287 722 CURVE SMOOTH",
"315 722 OFFCURVE",
"326 710 OFFCURVE",
"326 694 CURVE SMOOTH",
"326 623 OFFCURVE",
"94 556 OFFCURVE",
"80 466 CURVE SMOOTH",
"75 434 LINE"
);
}
);
width = 420;
}
);
leftKerningGroup = twosuperior;
note = uni00B2;
rightKerningGroup = twosuperior;
unicode = 00B2;
},
{
glyphname = threesuperior;
lastChange = "2018-07-30 00:30:16 +0000";
layers = (
{
layerId = "9602D73B-DD3D-403F-8CEE-11CABA0497EF";
paths = (
{
closed = 1;
nodes = (
"345 427 OFFCURVE",
"434 462 OFFCURVE",
"434 549 CURVE SMOOTH",
"434 580 OFFCURVE",
"419 611 OFFCURVE",
"383 618 CURVE",
"384 624 LINE",
"426 634 OFFCURVE",
"451 667 OFFCURVE",
"451 710 CURVE SMOOTH",
"451 762 OFFCURVE",
"398 800 OFFCURVE",
"305 800 CURVE SMOOTH",
"204 800 OFFCURVE",
"138 755 OFFCURVE",
"128 692 CURVE SMOOTH",
"126 679 LINE",
"231 679 LINE",
"232 686 LINE SMOOTH",
"234 703 OFFCURVE",
"255 718 OFFCURVE",
"285 718 CURVE SMOOTH",
"309 718 OFFCURVE",
"327 710 OFFCURVE",
"327 693 CURVE SMOOTH",
"327 666 OFFCURVE",
"303 649 OFFCURVE",
"279 649 CURVE SMOOTH",
"250 649 LINE",
"239 584 LINE",
"276 584 LINE SMOOTH",
"297 584 OFFCURVE",
"312 577 OFFCURVE",
"312 558 CURVE SMOOTH",
"312 527 OFFCURVE",
"285 509 OFFCURVE",
"249 509 CURVE SMOOTH",
"215 509 OFFCURVE",
"201 521 OFFCURVE",
"201 543 CURVE SMOOTH",
"201 546 OFFCURVE",
"202 549 OFFCURVE",
"202 552 CURVE",
"90 552 LINE",
"88 541 OFFCURVE",
"87 534 OFFCURVE",
"87 522 CURVE SMOOTH",
"87 464 OFFCURVE",
"138 427 OFFCURVE",
"242 427 CURVE SMOOTH"
);
}
);
width = 420;
}
);
leftKerningGroup = threesuperior;
note = uni00B3;
rightKerningGroup = threesuperior;
unicode = 00B3;
},
{
glyphname = foursuperior;
lastChange = "2018-07-30 00:30:16 +0000";
layers = (
{
layerId = "9602D73B-DD3D-403F-8CEE-11CABA0497EF";
paths = (
{
closed = 1;
nodes = (
"371 434 LINE",
"381 494 LINE",
"444 494 LINE",
"460 582 LINE",
"397 582 LINE",
"428 760 LINE",
"372 760 LINE",
"357 726 OFFCURVE",
"310 668 OFFCURVE",
"283 638 CURVE",
"273 582 LINE",
"170 582 LINE",
"236 631 OFFCURVE",
"325 734 OFFCURVE",
"345 800 CURVE",
"210 800 LINE",
"169 706 OFFCURVE",
"119 631 OFFCURVE",
"73 583 CURVE",
"57 494 LINE",
"257 494 LINE",
"247 434 LINE"
);
}
);
width = 420;
}
);
leftKerningGroup = foursuperior;
rightKerningGroup = foursuperior;
unicode = 2074;
},
{
glyphname = fivesuperior;
lastChange = "2018-07-30 00:30:16 +0000";
layers = (
{
layerId = "9602D73B-DD3D-403F-8CEE-11CABA0497EF";
paths = (
{
closed = 1;
nodes = (
"346 427 OFFCURVE",
"434 476 OFFCURVE",
"434 575 CURVE SMOOTH",
"434 635 OFFCURVE",
"386 676 OFFCURVE",
"314 676 CURVE SMOOTH",
"282 676 OFFCURVE",
"251 669 OFFCURVE",
"225 650 CURVE",
"239 700 LINE",
"425 700 LINE",
"441 788 LINE",
"160 788 LINE",
"106 586 LINE",
"204 574 LINE",
"222 594 OFFCURVE",
"243 604 OFFCURVE",
"269 604 CURVE SMOOTH",
"295 604 OFFCURVE",
"310 587 OFFCURVE",
"310 566 CURVE SMOOTH",
"310 535 OFFCURVE",
"277 504 OFFCURVE",
"236 504 CURVE SMOOTH",
"212 504 OFFCURVE",
"191 521 OFFCURVE",
"191 544 CURVE SMOOTH",
"191 547 OFFCURVE",
"192 552 OFFCURVE",
"192 552 CURVE",
"82 552 LINE",
"81 544 OFFCURVE",
"80 536 OFFCURVE",
"80 529 CURVE SMOOTH",
"80 467 OFFCURVE",
"130 427 OFFCURVE",
"238 427 CURVE SMOOTH"
);
}
);
width = 420;
}
);
leftKerningGroup = fivesuperior;
rightKerningGroup = fivesuperior;
unicode = 2075;
},
{
glyphname = sixsuperior;
lastChange = "2018-07-30 00:30:16 +0000";
layers = (
{
background = {
paths = (
{
closed = 1;
nodes = (
"347 426 OFFCURVE",
"411 467 OFFCURVE",
"425 547 CURVE SMOOTH",
"438 619 OFFCURVE",
"390 663 OFFCURVE",
"307 663 CURVE SMOOTH",
"279 663 OFFCURVE",
"249 652 OFFCURVE",
"231 636 CURVE",
"243 702 OFFCURVE",
"251 724 OFFCURVE",
"293 724 CURVE SMOOTH",
"323 724 OFFCURVE",
"335 712 OFFCURVE",
"329 678 CURVE",
"438 678 LINE",
"452 758 OFFCURVE",
"396 799 OFFCURVE",
"301 800 CURVE SMOOTH",
"186 801 OFFCURVE",
"129 744 OFFCURVE",
"104 604 CURVE SMOOTH",
"82 482 OFFCURVE",
"129 428 OFFCURVE",
"244 427 CURVE SMOOTH"
);
},
{
closed = 1;
nodes = (
"225 502 OFFCURVE",
"211 521 OFFCURVE",
"216 549 CURVE SMOOTH",
"221 577 OFFCURVE",
"242 595 OFFCURVE",
"270 595 CURVE SMOOTH",
"298 595 OFFCURVE",
"312 576 OFFCURVE",
"307 548 CURVE SMOOTH",
"302 520 OFFCURVE",
"281 502 OFFCURVE",
"253 502 CURVE SMOOTH"
);
}
);
};
layerId = "9602D73B-DD3D-403F-8CEE-11CABA0497EF";
paths = (
{
closed = 1;
nodes = (
"352 427 OFFCURVE",
"427 476 OFFCURVE",
"427 568 CURVE SMOOTH",
"427 632 OFFCURVE",
"374 663 OFFCURVE",
"315 663 CURVE SMOOTH",
"284 663 OFFCURVE",
"256 655 OFFCURVE",
"231 636 CURVE",
"243 702 OFFCURVE",
"251 724 OFFCURVE",
"293 724 CURVE SMOOTH",
"318 724 OFFCURVE",
"330 716 OFFCURVE",
"331 693 CURVE SMOOTH",
"331 689 OFFCURVE",
"330 684 OFFCURVE",
"329 678 CURVE",
"438 678 LINE",
"439 686 OFFCURVE",
"440 694 OFFCURVE",
"440 701 CURVE SMOOTH",
"440 767 OFFCURVE",
"385 800 OFFCURVE",
"298 800 CURVE SMOOTH",
"185 800 OFFCURVE",
"129 743 OFFCURVE",
"104 604 CURVE SMOOTH",
"100 585 OFFCURVE",
"99 567 OFFCURVE",
"99 551 CURVE SMOOTH",
"99 465 OFFCURVE",
"150 427 OFFCURVE",
"250 427 CURVE SMOOTH"
);
},
{
closed = 1;
nodes = (
"231 502 OFFCURVE",
"214 516 OFFCURVE",
"215 538 CURVE SMOOTH",
"217 575 OFFCURVE",
"237 595 OFFCURVE",
"268 595 CURVE SMOOTH",
"292 595 OFFCURVE",
"309 581 OFFCURVE",
"308 559 CURVE SMOOTH",
"307 525 OFFCURVE",
"287 502 OFFCURVE",
"255 502 CURVE SMOOTH"
);
}
);
width = 420;
}
);
leftKerningGroup = sixsuperior;
rightKerningGroup = sixsuperior;
unicode = 2076;
},
{
glyphname = sevensuperior;
lastChange = "2018-07-30 00:30:16 +0000";
layers = (
{
layerId = "9602D73B-DD3D-403F-8CEE-11CABA0497EF";
paths = (
{
closed = 1;
nodes = (
"270 434 LINE",
"272 445 OFFCURVE",
"274 456 OFFCURVE",
"276 467 CURVE SMOOTH",
"297 581 OFFCURVE",
"365 648 OFFCURVE",
"458 736 CURVE",
"467 788 LINE",
"131 788 LINE",
"114 692 LINE",
"289 692 LINE",
"199 610 OFFCURVE",
"147 541 OFFCURVE",
"128 434 CURVE"
);
}
);
width = 420;
}
);
leftKerningGroup = sevensuperior;
rightKerningGroup = sevensuperior;
unicode = 2077;
},
{
glyphname = eightsuperior;
lastChange = "2018-07-30 00:30:16 +0000";
layers = (
{
layerId = "9602D73B-DD3D-403F-8CEE-11CABA0497EF";
paths = (
{
closed = 1;
nodes = (
"351 427 OFFCURVE",
"434 468 OFFCURVE",
"434 549 CURVE SMOOTH",
"434 575 OFFCURVE",
"422 600 OFFCURVE",
"385 618 CURVE",
"422 636 OFFCURVE",
"447 661 OFFCURVE",
"447 707 CURVE SMOOTH",
"447 766 OFFCURVE",
"381 799 OFFCURVE",
"303 799 CURVE SMOOTH",
"210 799 OFFCURVE",
"124 758 OFFCURVE",
"124 679 CURVE SMOOTH",
"124 649 OFFCURVE",
"141 631 OFFCURVE",
"161 618 CURVE",
"116 600 OFFCURVE",
"83 568 OFFCURVE",
"83 519 CURVE SMOOTH",
"83 460 OFFCURVE",
"147 427 OFFCURVE",
"241 427 CURVE SMOOTH"
);
},
{
closed = 1;
nodes = (
"224 498 OFFCURVE",
"205 509 OFFCURVE",
"205 533 CURVE SMOOTH",
"205 565 OFFCURVE",
"234 583 OFFCURVE",
"266 583 CURVE SMOOTH",
"294 583 OFFCURVE",
"318 568 OFFCURVE",
"313 541 CURVE SMOOTH",
"308 512 OFFCURVE",
"283 498 OFFCURVE",
"253 498 CURVE SMOOTH"
);
},
{
closed = 1;
nodes = (
"251 650 OFFCURVE",
"227 660 OFFCURVE",
"232 689 CURVE SMOOTH",
"237 717 OFFCURVE",
"259 728 OFFCURVE",
"291 728 CURVE SMOOTH",
"318 728 OFFCURVE",
"340 719 OFFCURVE",
"340 696 CURVE SMOOTH",
"340 662 OFFCURVE",
"310 650 OFFCURVE",
"280 650 CURVE SMOOTH"
);
}
);
width = 420;
}
);
leftKerningGroup = eightsuperior;
rightKerningGroup = eightsuperior;
unicode = 2078;
},
{
glyphname = ninesuperior;
lastChange = "2018-07-30 00:30:16 +0000";
layers = (
{
layerId = "9602D73B-DD3D-403F-8CEE-11CABA0497EF";
paths = (
{
closed = 1;
nodes = (
"359 427 OFFCURVE",
"415 479 OFFCURVE",
"440 618 CURVE SMOOTH",
"443 637 OFFCURVE",
"445 655 OFFCURVE",
"445 671 CURVE SMOOTH",
"445 758 OFFCURVE",
"395 800 OFFCURVE",
"296 800 CURVE SMOOTH",
"191 800 OFFCURVE",
"116 749 OFFCURVE",
"116 655 CURVE SMOOTH",
"116 597 OFFCURVE",
"159 564 OFFCURVE",
"233 564 CURVE SMOOTH",
"261 564 OFFCURVE",
"293 574 OFFCURVE",
"313 591 CURVE",
"301 525 OFFCURVE",
"293 503 OFFCURVE",
"251 503 CURVE SMOOTH",
"226 503 OFFCURVE",
"214 511 OFFCURVE",
"214 534 CURVE SMOOTH",
"213 538 OFFCURVE",
"214 543 OFFCURVE",
"215 549 CURVE",
"106 549 LINE",
"105 541 OFFCURVE",
"104 533 OFFCURVE",
"104 526 CURVE SMOOTH",
"104 460 OFFCURVE",
"159 427 OFFCURVE",
"246 427 CURVE SMOOTH"
);
},
{
closed = 1;
nodes = (
"251 632 OFFCURVE",
"236 647 OFFCURVE",
"236 670 CURVE SMOOTH",
"236 705 OFFCURVE",
"258 725 OFFCURVE",
"289 725 CURVE SMOOTH",
"314 725 OFFCURVE",
"329 710 OFFCURVE",
"329 687 CURVE SMOOTH",
"329 652 OFFCURVE",
"307 632 OFFCURVE",
"276 632 CURVE SMOOTH"
);
}
);
width = 420;
}
);
leftKerningGroup = ninesuperior;
rightKerningGroup = ninesuperior;
unicode = 2079;
},
{
glyphname = fraction;
lastChange = "2018-07-30 00:30:16 +0000";
layers = (
{
layerId = "9602D73B-DD3D-403F-8CEE-11CABA0497EF";
paths = (
{
closed = 1;
nodes = (
"-123 -12 LINE",
"414 700 LINE",
"318 700 LINE",
"-218 -12 LINE"
);
}
);
width = 167;
}
);
leftKerningGroup = fraction;
note = fraction;
rightKerningGroup = fraction;
unicode = 2044;
},
{
glyphname = onehalf;
lastChange = "2018-07-30 00:30:16 +0000";
layers = (
{
layerId = "9602D73B-DD3D-403F-8CEE-11CABA0497EF";
paths = (
{
closed = 1;
nodes = (
"292 -12 LINE",
"829 700 LINE",
"733 700 LINE",
"197 -12 LINE"
);
},
{
closed = 1;
nodes = (
"368 281 LINE",
"384 373 LINE",
"281 373 LINE",
"338 694 LINE",
"294 694 LINE",
"237 663 OFFCURVE",
"150 633 OFFCURVE",
"88 629 CURVE",
"76 560 LINE",
"183 560 LINE",
"150 373 LINE",
"43 373 LINE",
"27 281 LINE"
);
},
{
closed = 1;
nodes = (
"914 0 LINE",
"932 102 LINE",
"742 102 LINE",
"855 175 OFFCURVE",
"964 213 OFFCURVE",
"964 312 CURVE SMOOTH",
"964 376 OFFCURVE",
"902 420 OFFCURVE",
"804 420 CURVE SMOOTH",
"689 420 OFFCURVE",
"594 363 OFFCURVE",
"589 267 CURVE",
"706 267 LINE",
"709 279 LINE SMOOTH",
"714 311 OFFCURVE",
"741 335 OFFCURVE",
"781 335 CURVE SMOOTH",
"821 335 OFFCURVE",
"835 314 OFFCURVE",
"831 291 CURVE SMOOTH",
"817 223 OFFCURVE",
"564 154 OFFCURVE",
"546 38 CURVE SMOOTH",
"540 0 LINE"
);
}
);
width = 1000;
}
);
leftKerningGroup = onehalf;
note = onehalf;
rightKerningGroup = onehalf;
unicode = 00BD;
},
{
glyphname = onequarter;
lastChange = "2018-07-30 00:30:16 +0000";
layers = (
{
layerId = "9602D73B-DD3D-403F-8CEE-11CABA0497EF";
paths = (
{
closed = 1;
nodes = (
"292 -12 LINE",
"829 700 LINE",
"733 700 LINE",
"197 -12 LINE"
);
},
{
closed = 1;
nodes = (
"368 280 LINE",
"384 372 LINE",
"281 372 LINE",
"338 693 LINE",
"294 693 LINE",
"237 662 OFFCURVE",
"150 632 OFFCURVE",
"88 628 CURVE",
"76 559 LINE",
"183 559 LINE",
"150 372 LINE",
"43 372 LINE",
"27 280 LINE"
);
},
{
closed = 1;
nodes = (
"854 0 LINE",
"869 85 LINE",
"932 85 LINE",
"948 173 LINE",
"885 173 LINE",
"921 380 LINE",
"865 380 LINE",
"850 346 OFFCURVE",
"803 288 OFFCURVE",
"776 258 CURVE",
"761 173 LINE",
"637 173 LINE",
"709 231 OFFCURVE",
"818 354 OFFCURVE",
"838 420 CURVE",
"699 420 LINE",
"656 326 OFFCURVE",
"593 231 OFFCURVE",
"541 174 CURVE",
"525 85 LINE",
"745 85 LINE",
"730 0 LINE"
);
}
);
width = 1000;
}
);
leftKerningGroup = onehalf;
note = onequarter;
rightKerningGroup = onehalf;
unicode = 00BC;
},
{
glyphname = threequarters;
lastChange = "2018-07-30 00:30:16 +0000";
layers = (
{
layerId = "9602D73B-DD3D-403F-8CEE-11CABA0497EF";
paths = (
{
closed = 1;
nodes = (
"292 -12 LINE",
"829 700 LINE",
"733 700 LINE",
"197 -12 LINE"
);
},
{
closed = 1;
nodes = (
"327 275 OFFCURVE",
"422 321 OFFCURVE",
"422 412 CURVE SMOOTH",
"422 452 OFFCURVE",
"399 482 OFFCURVE",
"359 495 CURVE",
"359 499 LINE",
"406 513 OFFCURVE",
"442 551 OFFCURVE",
"442 599 CURVE SMOOTH",
"442 654 OFFCURVE",
"384 701 OFFCURVE",
"281 701 CURVE SMOOTH",
"166 701 OFFCURVE",
"97 650 OFFCURVE",
"86 589 CURVE SMOOTH",
"83 574 LINE",
"192 574 LINE",
"194 580 LINE SMOOTH",
"198 604 OFFCURVE",
"226 619 OFFCURVE",
"260 619 CURVE SMOOTH",
"297 619 OFFCURVE",
"314 596 OFFCURVE",
"310 572 CURVE SMOOTH",
"305 542 OFFCURVE",
"282 529 OFFCURVE",
"257 529 CURVE SMOOTH",
"219 529 LINE",
"205 455 LINE",
"253 455 LINE SMOOTH",
"276 455 OFFCURVE",
"293 444 OFFCURVE",
"293 421 CURVE SMOOTH",
"293 384 OFFCURVE",
"264 357 OFFCURVE",
"214 357 CURVE SMOOTH",
"174 357 OFFCURVE",
"154 369 OFFCURVE",
"154 395 CURVE SMOOTH",
"154 398 OFFCURVE",
"154 402 OFFCURVE",
"155 406 CURVE",
"39 406 LINE",
"36 394 OFFCURVE",
"35 384 OFFCURVE",
"35 376 CURVE SMOOTH",
"35 319 OFFCURVE",
"93 275 OFFCURVE",
"213 275 CURVE SMOOTH"
);
},
{
closed = 1;
nodes = (
"846 0 LINE",
"861 85 LINE",
"924 85 LINE",
"940 173 LINE",
"877 173 LINE",
"913 380 LINE",
"857 380 LINE",
"842 346 OFFCURVE",
"795 288 OFFCURVE",
"768 258 CURVE",
"753 173 LINE",
"623 173 LINE",
"695 231 OFFCURVE",
"810 354 OFFCURVE",
"830 420 CURVE",
"702 420 LINE",
"656 326 OFFCURVE",
"585 231 OFFCURVE",
"533 174 CURVE",
"517 85 LINE",
"737 85 LINE",
"722 0 LINE"
);
}
);
width = 1000;
}
);
leftKerningGroup = onehalf;
note = threequarters;
rightKerningGroup = onehalf;
unicode = 00BE;
},
{
glyphname = period;
lastChange = "2018-07-30 00:30:16 +0000";
layers = (
{
layerId = "9602D73B-DD3D-403F-8CEE-11CABA0497EF";
paths = (
{
closed = 1;
nodes = (
"231 0 LINE",
"267 199 LINE",
"55 199 LINE",
"19 0 LINE"
);
}
);
width = 348;
}
);
leftKerningGroup = period;
note = period;
rightKerningGroup = period;
unicode = 002E;
},
{
glyphname = comma;
lastChange = "2018-07-30 00:30:16 +0000";
layers = (
{
layerId = "9602D73B-DD3D-403F-8CEE-11CABA0497EF";
paths = (
{
closed = 1;
nodes = (
"95 -183 LINE",
"235 11 LINE",
"268 199 LINE",
"56 199 LINE",
"21 0 LINE",
"102 0 LINE",
"-13 -183 LINE"
);
}
);
width = 350;
}
);
leftKerningGroup = comma;
note = comma;
rightKerningGroup = period;
unicode = 002C;
},
{
glyphname = colon;
lastChange = "2018-07-30 00:30:16 +0000";
layers = (
{
layerId = "9602D73B-DD3D-403F-8CEE-11CABA0497EF";
paths = (
{
closed = 1;
nodes = (
"289 328 LINE",
"325 528 LINE",
"113 528 LINE",
"77 328 LINE"
);
},
{
closed = 1;
nodes = (
"231 0 LINE",
"267 199 LINE",
"55 199 LINE",
"19 0 LINE"
);
}
);
width = 348;
}
);
leftKerningGroup = colon;
note = colon;
rightKerningGroup = colon;
unicode = 003A;
},
{
glyphname = semicolon;
lastChange = "2018-07-30 00:30:16 +0000";
layers = (
{
layerId = "9602D73B-DD3D-403F-8CEE-11CABA0497EF";
paths = (
{
closed = 1;
nodes = (
"95 -183 LINE",
"235 11 LINE",
"268 199 LINE",
"56 199 LINE",
"21 0 LINE",
"102 0 LINE",
"-13 -183 LINE"
);
},
{
closed = 1;
nodes = (
"290 328 LINE",
"326 528 LINE",
"114 528 LINE",
"78 328 LINE"
);
}
);
width = 350;
}
);
leftKerningGroup = semicolon;
note = semicolon;
rightKerningGroup = colon;
unicode = 003B;
},
{
glyphname = ellipsis;
lastChange = "2018-07-30 00:30:16 +0000";
layers = (
{
layerId = "9602D73B-DD3D-403F-8CEE-11CABA0497EF";
paths = (
{
closed = 1;
nodes = (
"898 0 LINE",
"934 199 LINE",
"722 199 LINE",
"686 0 LINE"
);
},
{
closed = 1;
nodes = (
"231 0 LINE",
"267 199 LINE",
"55 199 LINE",
"19 0 LINE"
);
},
{
closed = 1;
nodes = (
"564 0 LINE",
"600 199 LINE",
"388 199 LINE",
"352 0 LINE"
);
}
);
width = 1015;
}
);
leftKerningGroup = period;
note = ellipsis;
rightKerningGroup = period;
unicode = 2026;
},
{
glyphname = exclam;
lastChange = "2018-07-30 00:30:16 +0000";
layers = (
{
layerId = "9602D73B-DD3D-403F-8CEE-11CABA0497EF";
paths = (
{
closed = 1;
nodes = (
"217 239 LINE",
"339 688 LINE",
"140 688 LINE",
"100 239 LINE"
);
},
{
closed = 1;
nodes = (
"207 0 LINE",
"237 167 LINE",
"57 167 LINE",
"27 0 LINE"
);
}
);
width = 350;
}
);
leftKerningGroup = exclam;
note = exclam;
rightKerningGroup = exclam;
unicode = 0021;
},
{
glyphname = exclamdown;
lastChange = "2018-07-30 00:30:16 +0000";
layers = (
{
layerId = "9602D73B-DD3D-403F-8CEE-11CABA0497EF";
paths = (
{
closed = 1;
nodes = (
"214 -160 LINE",
"254 289 LINE",
"137 289 LINE",
"15 -160 LINE"
);
},
{
closed = 1;
nodes = (
"297 361 LINE",
"327 528 LINE",
"147 528 LINE",
"117 361 LINE"
);
}
);
width = 350;
}
);
leftKerningGroup = exclam;
note = exclamdown;
rightKerningGroup = exclam;
unicode = 00A1;
},
{
glyphname = question;
lastChange = "2018-07-30 00:30:16 +0000";
layers = (
{
layerId = "9602D73B-DD3D-403F-8CEE-11CABA0497EF";
paths = (
{
closed = 1;
nodes = (
"382 246 LINE",
"385 267 LINE SMOOTH",
"394 313 OFFCURVE",
"600 363 OFFCURVE",
"600 520 CURVE SMOOTH",
"600 627 OFFCURVE",
"504 700 OFFCURVE",
"365 700 CURVE SMOOTH",
"200 700 OFFCURVE",
"76 618 OFFCURVE",
"63 451 CURVE",
"247 451 LINE",
"247 507 OFFCURVE",
"274 562 OFFCURVE",
"330 562 CURVE SMOOTH",
"366 562 OFFCURVE",
"385 537 OFFCURVE",
"385 507 CURVE SMOOTH",
"385 416 OFFCURVE",
"233 373 OFFCURVE",
"219 296 CURVE SMOOTH",
"211 246 LINE"
);
},
{
closed = 1;
nodes = (
"353 0 LINE",
"386 185 LINE",
"188 185 LINE",
"155 0 LINE"
);
}
);
width = 612;
}
);
leftKerningGroup = quesion;
note = question;
rightKerningGroup = question;
unicode = 003F;
},
{
glyphname = questiondown;
lastChange = "2018-07-30 00:30:16 +0000";
layers = (
{
layerId = "9602D73B-DD3D-403F-8CEE-11CABA0497EF";
paths = (
{
closed = 1;
nodes = (
"416 -173 OFFCURVE",
"540 -91 OFFCURVE",
"553 76 CURVE",
"369 76 LINE",
"369 20 OFFCURVE",
"342 -35 OFFCURVE",
"286 -35 CURVE SMOOTH",
"250 -35 OFFCURVE",
"231 -10 OFFCURVE",
"231 20 CURVE SMOOTH",
"231 111 OFFCURVE",
"383 154 OFFCURVE",
"397 231 CURVE SMOOTH",
"405 281 LINE",
"234 281 LINE",
"231 260 LINE SMOOTH",
"222 214 OFFCURVE",
"16 164 OFFCURVE",
"16 7 CURVE SMOOTH",
"16 -100 OFFCURVE",
"112 -173 OFFCURVE",
"251 -173 CURVE SMOOTH"
);
},
{
closed = 1;
nodes = (
"428 342 LINE",
"461 527 LINE",
"263 527 LINE",
"230 342 LINE"
);
}
);
width = 611;
}
);
leftKerningGroup = questiondown;
note = questiondown;
rightKerningGroup = questiondown;
unicode = 00BF;
},
{
glyphname = periodcentered;
lastChange = "2018-07-30 00:30:16 +0000";
layers = (
{
layerId = "9602D73B-DD3D-403F-8CEE-11CABA0497EF";
paths = (
{
closed = 1;
nodes = (
"256 235 LINE",
"288 418 LINE",
"97 418 LINE",
"65 235 LINE"
);
}
);
width = 343;
}
);
leftKerningGroup = hyphen;
note = periodcentered;
rightKerningGroup = hyphen;
unicode = 00B7;
},
{
glyphname = bullet;
lastChange = "2018-07-30 00:30:16 +0000";
layers = (
{
layerId = "9602D73B-DD3D-403F-8CEE-11CABA0497EF";
paths = (
{
closed = 1;
nodes = (
"292 184 OFFCURVE",
"395 252 OFFCURVE",
"395 371 CURVE SMOOTH",
"395 463 OFFCURVE",
"330 506 OFFCURVE",
"258 506 CURVE SMOOTH",
"168 506 OFFCURVE",
"65 438 OFFCURVE",
"65 319 CURVE SMOOTH",
"65 227 OFFCURVE",
"130 184 OFFCURVE",
"202 184 CURVE SMOOTH"
);
}
);
width = 450;
}
);
leftKerningGroup = hyphen;
note = bullet;
rightKerningGroup = hyphen;
unicode = 2022;
},
{
glyphname = asterisk;
lastChange = "2018-07-30 00:30:16 +0000";
layers = (
{
layerId = "9602D73B-DD3D-403F-8CEE-11CABA0497EF";
paths = (
{
closed = 1;
nodes = (
"283 322 LINE",
"292 444 LINE",
"381 373 LINE",
"442 454 LINE",
"339 505 LINE",
"460 557 LINE",
"427 637 LINE",
"314 567 LINE",
"347 688 LINE",
"254 688 LINE",
"245 566 LINE",
"156 637 LINE",
"95 557 LINE",
"198 505 LINE",
"77 454 LINE",
"110 373 LINE",
"223 444 LINE",
"190 322 LINE"
);
}
);
width = 476;
}
);
leftKerningGroup = asterisk;
note = asterisk;
rightKerningGroup = asterisk;
unicode = 002A;
},
{
glyphname = numbersign;
lastChange = "2018-07-30 00:30:16 +0000";
layers = (
{
layerId = "9602D73B-DD3D-403F-8CEE-11CABA0497EF";
paths = (
{
closed = 1;
nodes = (
"204 -11 LINE",
"240 159 LINE",
"355 159 LINE",
"318 -11 LINE",
"435 -11 LINE",
"472 159 LINE",
"606 159 LINE",
"606 268 LINE",
"500 268 LINE",
"526 391 LINE",
"639 391 LINE",
"639 502 LINE",
"546 502 LINE",
"592 700 LINE",
"472 700 LINE",
"428 502 LINE",
"317 502 LINE",
"362 700 LINE",
"240 700 LINE",
"196 502 LINE",
"66 502 LINE",
"66 391 LINE",
"174 391 LINE",
"146 268 LINE",
"20 268 LINE",
"20 159 LINE",
"120 159 LINE",
"84 -11 LINE"
);
},
{
closed = 1;
nodes = (
"292 390 LINE",
"406 391 LINE",
"379 267 LINE",
"265 267 LINE"
);
}
);
width = 650;
}
);
leftKerningGroup = numbersign;
note = numbersign;
rightKerningGroup = numbersign;
unicode = 0023;
},
{
glyphname = slash;
lastChange = "2018-07-30 00:30:16 +0000";
layers = (
{
layerId = "9602D73B-DD3D-403F-8CEE-11CABA0497EF";
paths = (
{
closed = 1;
nodes = (
"51 -48 LINE",
"348 736 LINE",
"227 736 LINE",
"-71 -48 LINE"
);
}
);
width = 278;
}
);
leftKerningGroup = slash;
note = slash;
rightKerningGroup = slash;
unicode = 002F;
},
{
glyphname = backslash;
lastChange = "2018-07-30 00:30:16 +0000";
layers = (
{
layerId = "9602D73B-DD3D-403F-8CEE-11CABA0497EF";
paths = (
{
closed = 1;
nodes = (
"210 -48 LINE",
"188 736 LINE",
"67 736 LINE",
"88 -48 LINE"
);
}
);
width = 278;
}
);
leftKerningGroup = backslash;
note = backslash;
rightKerningGroup = backslash;
unicode = 005C;
},
{
glyphname = uni203E;
lastChange = "2018-07-30 00:30:16 +0000";
layers = (
{
layerId = "9602D73B-DD3D-403F-8CEE-11CABA0497EF";
paths = (
{
closed = 1;
nodes = (
"496 780 LINE",
"506 842 LINE",
"6 842 LINE",
"-4 780 LINE"
);
}
);
width = 500;
}
);
leftKerningGroup = uni203E;
note = uni203E;
rightKerningGroup = uni203E;
unicode = 203E;
},
{
glyphname = periodcentered.loclCAT.case;
lastChange = "2018-07-30 00:30:16 +0000";
layers = (
{
anchors = (
{
name = _center;
position = "{120, 399}";
}
);
layerId = "9602D73B-DD3D-403F-8CEE-11CABA0497EF";
paths = (
{
closed = 1;
nodes = (
"201 310 LINE",
"233 489 LINE",
"40 489 LINE",
"8 310 LINE"
);
}
);
width = 193;
}
);
leftKerningGroup = periodcentered.loclCAT.case;
rightKerningGroup = periodcentered.loclCAT.case;
},
{
glyphname = periodcentered.loclCAT;
lastChange = "2018-07-30 00:30:16 +0000";
layers = (
{
anchors = (
{
name = _center;
position = "{114, 360}";
}
);
layerId = "9602D73B-DD3D-403F-8CEE-11CABA0497EF";
paths = (
{
closed = 1;
nodes = (
"178 290 LINE",
"203 429 LINE",
"50 429 LINE",
"25 290 LINE"
);
}
);
width = 193;
}
);
leftKerningGroup = period;
rightKerningGroup = period;
},
{
glyphname = parenleft;
lastChange = "2018-07-30 00:30:16 +0000";
layers = (
{
layerId = "9602D73B-DD3D-403F-8CEE-11CABA0497EF";
paths = (
{
closed = 1;
nodes = (
"276 -160 LINE",
"219 -37 OFFCURVE",
"197 146 OFFCURVE",
"222 288 CURVE SMOOTH",
"247 429 OFFCURVE",
"333 614 OFFCURVE",
"434 737 CURVE",
"314 737 LINE",
"177 614 OFFCURVE",
"84 452 OFFCURVE",
"55 288 CURVE SMOOTH",
"26 125 OFFCURVE",
"63 -37 OFFCURVE",
"156 -160 CURVE"
);
}
);
width = 389;
}
);
leftKerningGroup = parenleft;
note = parenleft;
rightKerningGroup = parenleft;
unicode = 0028;
},
{
glyphname = parenright;
lastChange = "2018-07-30 00:30:16 +0000";
layers = (
{
layerId = "9602D73B-DD3D-403F-8CEE-11CABA0497EF";
paths = (
{
closed = 1;
nodes = (
"80 -160 LINE",
"217 -37 OFFCURVE",
"310 125 OFFCURVE",
"339 288 CURVE SMOOTH",
"368 452 OFFCURVE",
"331 614 OFFCURVE",
"238 737 CURVE",
"118 737 LINE",
"175 614 OFFCURVE",
"197 429 OFFCURVE",
"172 288 CURVE SMOOTH",
"147 146 OFFCURVE",
"61 -37 OFFCURVE",
"-40 -160 CURVE"
);
}
);
width = 389;
}
);
leftKerningGroup = parenright;
note = parenright;
rightKerningGroup = parenright;
unicode = 0029;
},
{
glyphname = braceleft;
lastChange = "2018-07-30 00:30:16 +0000";
layers = (
{
layerId = "9602D73B-DD3D-403F-8CEE-11CABA0497EF";
paths = (
{
closed = 1;
nodes = (
"287 -62 LINE",
"258 -62 OFFCURVE",
"214 -58 OFFCURVE",
"219 -20 CURVE SMOOTH",
"227 47 OFFCURVE",
"246 192 OFFCURVE",
"246 206 CURVE SMOOTH",
"246 256 OFFCURVE",
"219 285 OFFCURVE",
"161 285 CURVE",
"163 294 LINE",
"230 294 OFFCURVE",
"268 332 OFFCURVE",
"282 397 CURVE SMOOTH",
"297 464 OFFCURVE",
"313 531 OFFCURVE",
"328 598 CURVE SMOOTH",
"336 635 OFFCURVE",
"383 639 OFFCURVE",
"411 639 CURVE",
"428 737 LINE",
"262 737 OFFCURVE",
"193 717 OFFCURVE",
"176 625 CURVE SMOOTH",
"134 386 LINE SMOOTH",
"127 346 OFFCURVE",
"77 329 OFFCURVE",
"37 329 CURVE",
"23 250 LINE",
"65 250 OFFCURVE",
"102 237 OFFCURVE",
"102 204 CURVE SMOOTH",
"102 192 OFFCURVE",
"55 -55 OFFCURVE",
"55 -74 CURVE SMOOTH",
"55 -143 OFFCURVE",
"119 -160 OFFCURVE",
"270 -160 CURVE"
);
}
);
width = 389;
}
);
leftKerningGroup = parenleft;
note = braceleft;
rightKerningGroup = parenleft;
unicode = 007B;
},
{
glyphname = braceright;
lastChange = "2018-07-30 00:30:16 +0000";
layers = (
{
layerId = "9602D73B-DD3D-403F-8CEE-11CABA0497EF";
paths = (
{
closed = 1;
nodes = (
"127 -160 OFFCURVE",
"196 -140 OFFCURVE",
"213 -48 CURVE SMOOTH",
"256 195 LINE SMOOTH",
"263 235 OFFCURVE",
"307 250 OFFCURVE",
"352 250 CURVE",
"366 329 LINE",
"329 329 OFFCURVE",
"288 344 OFFCURVE",
"288 378 CURVE SMOOTH",
"288 381 OFFCURVE",
"334 636 OFFCURVE",
"334 651 CURVE SMOOTH",
"334 720 OFFCURVE",
"270 737 OFFCURVE",
"119 737 CURVE",
"102 639 LINE",
"130 639 OFFCURVE",
"175 635 OFFCURVE",
"171 598 CURVE SMOOTH",
"161 521 OFFCURVE",
"144 401 OFFCURVE",
"144 374 CURVE SMOOTH",
"144 323 OFFCURVE",
"169 294 OFFCURVE",
"228 294 CURVE",
"226 285 LINE",
"159 285 OFFCURVE",
"122 247 OFFCURVE",
"107 182 CURVE SMOOTH",
"92 115 OFFCURVE",
"76 47 OFFCURVE",
"62 -20 CURVE SMOOTH",
"53 -58 OFFCURVE",
"7 -62 OFFCURVE",
"-22 -62 CURVE",
"-39 -160 LINE"
);
}
);
width = 389;
}
);
leftKerningGroup = parenright;
note = braceright;
rightKerningGroup = parenright;
unicode = 007D;
},
{
glyphname = bracketleft;
lastChange = "2018-07-30 00:30:16 +0000";
layers = (
{
layerId = "9602D73B-DD3D-403F-8CEE-11CABA0497EF";
paths = (
{
closed = 1;
nodes = (
"260 -160 LINE",
"278 -57 LINE",
"164 -57 LINE",
"286 634 LINE",
"400 634 LINE",
"418 737 LINE",
"145 737 LINE",
"-13 -160 LINE"
);
}
);
width = 389;
}
);
leftKerningGroup = parenleft;
note = bracketleft;
rightKerningGroup = parenleft;
unicode = 005B;
},
{
glyphname = bracketright;
lastChange = "2018-07-30 00:30:16 +0000";
layers = (
{
layerId = "9602D73B-DD3D-403F-8CEE-11CABA0497EF";
paths = (
{
closed = 1;
nodes = (
"260 -160 LINE",
"418 737 LINE",
"145 737 LINE",
"127 634 LINE",
"241 634 LINE",
"119 -57 LINE",
"5 -57 LINE",
"-13 -160 LINE"
);
}
);
width = 389;
}
);
leftKerningGroup = parenright;
note = bracketright;
rightKerningGroup = parenright;
unicode = 005D;
},
{
glyphname = hyphen;
lastChange = "2018-07-30 00:30:16 +0000";
layers = (
{
layerId = "9602D73B-DD3D-403F-8CEE-11CABA0497EF";
paths = (
{
closed = 1;
nodes = (
"285 196 LINE",
"313 354 LINE",
"58 354 LINE",
"30 196 LINE"
);
}
);
width = 351;
}
);
leftKerningGroup = hyphen;
note = hyphen;
rightKerningGroup = hyphen;
unicode = 002D;
},
{
glyphname = endash;
lastChange = "2018-07-30 00:30:16 +0000";
layers = (
{
layerId = "9602D73B-DD3D-403F-8CEE-11CABA0497EF";
paths = (
{
closed = 1;
nodes = (
"488 196 LINE",
"512 334 LINE",
"12 334 LINE",
"-12 196 LINE"
);
}
);
width = 500;
}
);
leftKerningGroup = hyphen;
note = endash;
rightKerningGroup = hyphen;
unicode = 2013;
},
{
glyphname = emdash;
lastChange = "2018-07-30 00:30:16 +0000";
layers = (
{
layerId = "9602D73B-DD3D-403F-8CEE-11CABA0497EF";
paths = (
{
closed = 1;
nodes = (
"988 196 LINE",
"1012 334 LINE",
"13 334 LINE",
"-11 196 LINE"
);
}
);
width = 1000;
}
);
leftKerningGroup = hyphen;
note = emdash;
rightKerningGroup = hyphen;
unicode = 2014;
},
{
glyphname = horizontalbar;
lastChange = "2018-07-30 00:30:16 +0000";
layers = (
{
layerId = "9602D73B-DD3D-403F-8CEE-11CABA0497EF";
paths = (
{
closed = 1;
nodes = (
"888 196 LINE",
"912 334 LINE",
"113 334 LINE",
"89 196 LINE"
);
}
);
width = 1000;
}
);
leftKerningGroup = horizontalbar;
note = uni2015;
rightKerningGroup = horizontalbar;
unicode = 2015;
},
{
glyphname = underscore;
lastChange = "2018-07-30 00:30:16 +0000";
layers = (
{
layerId = "9602D73B-DD3D-403F-8CEE-11CABA0497EF";
paths = (
{
closed = 1;
nodes = (
"472 -169 LINE",
"491 -62 LINE",
"-65 -62 LINE",
"-83 -169 LINE"
);
}
);
width = 542;
}
);
leftKerningGroup = period;
note = underscore;
rightKerningGroup = period;
unicode = 005F;
},
{
glyphname = underscoredbl;
lastChange = "2018-07-30 00:30:16 +0000";
layers = (
{
layerId = "9602D73B-DD3D-403F-8CEE-11CABA0497EF";
paths = (
{
closed = 1;
nodes = (
"431 -126 LINE",
"442 -64 LINE",
"-57 -64 LINE",
"-68 -126 LINE"
);
},
{
closed = 1;
nodes = (
"413 -221 LINE",
"425 -159 LINE",
"-74 -159 LINE",
"-85 -221 LINE"
);
}
);
width = 500;
}
);
leftKerningGroup = underscoredbl;
note = underscoredbl;
rightKerningGroup = underscoredbl;
unicode = 2017;
},
{
glyphname = quotesinglbase;
lastChange = "2018-07-30 00:30:16 +0000";
layers = (
{
layerId = "9602D73B-DD3D-403F-8CEE-11CABA0497EF";
paths = (
{
closed = 1;
nodes = (
"61 -182 LINE",
"185 10 LINE",
"214 175 LINE",
"28 175 LINE",
"-2 0 LINE",
"69 0 LINE",
"-34 -182 LINE"
);
}
);
width = 278;
}
);
leftKerningGroup = period;
note = quotesinglbase;
rightKerningGroup = period;
unicode = 201A;
},
{
glyphname = quotedblbase;
lastChange = "2018-07-30 00:30:16 +0000";
layers = (
{
layerId = "9602D73B-DD3D-403F-8CEE-11CABA0497EF";
paths = (
{
closed = 1;
nodes = (
"290 -182 LINE",
"414 10 LINE",
"443 175 LINE",
"257 175 LINE",
"227 0 LINE",
"298 0 LINE",
"195 -182 LINE"
);
},
{
closed = 1;
nodes = (
"61 -182 LINE",
"185 10 LINE",
"214 175 LINE",
"28 175 LINE",
"-2 0 LINE",
"69 0 LINE",
"-34 -182 LINE"
);
}
);
width = 517;
}
);
leftKerningGroup = period;
note = quotedblbase;
rightKerningGroup = period;
unicode = 201E;
},
{
glyphname = quotedblleft;
lastChange = "2018-07-30 00:30:16 +0000";
layers = (
{
layerId = "9602D73B-DD3D-403F-8CEE-11CABA0497EF";
paths = (
{
closed = 1;
nodes = (
"468 331 LINE",
"498 506 LINE",
"427 506 LINE",
"530 688 LINE",
"435 688 LINE",
"311 496 LINE",
"282 331 LINE"
);
},
{
closed = 1;
nodes = (
"239 331 LINE",
"269 506 LINE",
"198 506 LINE",
"301 688 LINE",
"206 688 LINE",
"82 496 LINE",
"53 331 LINE"
);
}
);
width = 500;
}
);
leftKerningGroup = quoteleft;
note = quotedblleft;
rightKerningGroup = quoteleft;
unicode = 201C;
},
{
glyphname = quotedblright;
lastChange = "2018-07-30 00:30:16 +0000";
layers = (
{
layerId = "9602D73B-DD3D-403F-8CEE-11CABA0497EF";
paths = (
{
closed = 1;
nodes = (
"381 331 LINE",
"505 523 LINE",
"534 688 LINE",
"348 688 LINE",
"318 513 LINE",
"389 513 LINE",
"286 331 LINE"
);
},
{
closed = 1;
nodes = (
"152 331 LINE",
"276 523 LINE",
"305 688 LINE",
"119 688 LINE",
"89 513 LINE",
"160 513 LINE",
"57 331 LINE"
);
}
);
width = 500;
}
);
leftKerningGroup = quoteright;
note = quotedblright;
rightKerningGroup = quoteright;
unicode = 201D;
},
{
glyphname = quoteleft;
lastChange = "2018-07-30 00:30:16 +0000";
layers = (
{
layerId = "9602D73B-DD3D-403F-8CEE-11CABA0497EF";
paths = (
{
closed = 1;
nodes = (
"239 331 LINE",
"269 506 LINE",
"198 506 LINE",
"301 688 LINE",
"206 688 LINE",
"82 496 LINE",
"53 331 LINE"
);
}
);
width = 271;
}
);
leftKerningGroup = quoteleft;
note = quoteleft;
rightKerningGroup = quoteleft;
unicode = 2018;
},
{
glyphname = quoteright;
lastChange = "2018-07-30 00:30:16 +0000";
layers = (
{
layerId = "9602D73B-DD3D-403F-8CEE-11CABA0497EF";
paths = (
{
closed = 1;
nodes = (
"152 331 LINE",
"276 523 LINE",
"305 688 LINE",
"119 688 LINE",
"89 513 LINE",
"160 513 LINE",
"57 331 LINE"
);
}
);
width = 278;
}
);
leftKerningGroup = quoteright;
note = quoteright;
rightKerningGroup = quoteright;
unicode = 2019;
},
{
glyphname = quotereversed;
lastChange = "2018-07-30 00:30:16 +0000";
layers = (
{
layerId = "9602D73B-DD3D-403F-8CEE-11CABA0497EF";
paths = (
{
closed = 1;
nodes = (
"221 331 LINE",
"182 513 LINE",
"253 513 LINE",
"283 688 LINE",
"97 688 LINE",
"68 523 LINE",
"126 331 LINE"
);
}
);
width = 278;
}
);
leftKerningGroup = quotereversed;
rightKerningGroup = quotereversed;
unicode = 201B;
},
{
glyphname = guillemetleft;
lastChange = "2018-07-29 23:24:57 +0000";
layers = (
{
layerId = "9602D73B-DD3D-403F-8CEE-11CABA0497EF";
paths = (
{
closed = 1;
nodes = (
"581 119 LINE",
"479 324 LINE",
"653 528 LINE",
"510 528 LINE",
"307 324 LINE",
"438 119 LINE"
);
},
{
closed = 1;
nodes = (
"345 119 LINE",
"243 324 LINE",
"417 528 LINE",
"274 528 LINE",
"71 324 LINE",
"202 119 LINE"
);
}
);
width = 668;
}
);
leftKerningGroup = guilsinglleft;
note = guillemotleft;
rightKerningGroup = guilsinglleft;
unicode = 00AB;
},
{
glyphname = guillemetright;
lastChange = "2018-07-29 23:24:57 +0000";
layers = (
{
layerId = "9602D73B-DD3D-403F-8CEE-11CABA0497EF";
paths = (
{
closed = 1;
nodes = (
"415 119 LINE",
"618 324 LINE",
"487 528 LINE",
"344 528 LINE",
"446 324 LINE",
"272 119 LINE"
);
},
{
closed = 1;
nodes = (
"179 119 LINE",
"382 324 LINE",
"251 528 LINE",
"108 528 LINE",
"210 324 LINE",
"36 119 LINE"
);
}
);
width = 667;
}
);
leftKerningGroup = guilsinglright;
note = guillemotright;
rightKerningGroup = guilsinglright;
unicode = 00BB;
},
{
glyphname = guilsinglleft;
lastChange = "2018-07-30 00:30:16 +0000";
layers = (
{
layerId = "9602D73B-DD3D-403F-8CEE-11CABA0497EF";
paths = (
{
closed = 1;
nodes = (
"345 119 LINE",
"243 324 LINE",
"417 528 LINE",
"274 528 LINE",
"71 324 LINE",
"202 119 LINE"
);
}
);
width = 432;
}
);
leftKerningGroup = guilsinglleft;
note = guilsinglleft;
rightKerningGroup = guilsinglleft;
unicode = 2039;
},
{
glyphname = guilsinglright;
lastChange = "2018-07-30 00:30:16 +0000";
layers = (
{
layerId = "9602D73B-DD3D-403F-8CEE-11CABA0497EF";
paths = (
{
closed = 1;
nodes = (
"179 119 LINE",
"382 324 LINE",
"251 528 LINE",
"108 528 LINE",
"210 324 LINE",
"36 119 LINE"
);
}
);
width = 431;
}
);
leftKerningGroup = guilsinglright;
note = guilsinglright;
rightKerningGroup = guilsinglright;
unicode = 203A;
},
{
glyphname = quotedbl;
lastChange = "2018-07-30 00:30:16 +0000";
layers = (
{
layerId = "9602D73B-DD3D-403F-8CEE-11CABA0497EF";
paths = (
{
closed = 1;
nodes = (
"403 398 LINE",
"477 541 LINE",
"503 688 LINE",
"340 688 LINE",
"314 541 LINE",
"335 398 LINE"
);
},
{
closed = 1;
nodes = (
"185 398 LINE",
"258 541 LINE",
"284 688 LINE",
"121 688 LINE",
"95 541 LINE",
"116 398 LINE"
);
}
);
width = 490;
}
);
leftKerningGroup = quotesingle;
note = quotedbl;
rightKerningGroup = quotesingle;
unicode = 0022;
},
{
glyphname = quotesingle;
lastChange = "2018-07-30 00:30:16 +0000";
layers = (
{
layerId = "9602D73B-DD3D-403F-8CEE-11CABA0497EF";
paths = (
{
closed = 1;
nodes = (
"184 398 LINE",
"258 541 LINE",
"284 688 LINE",
"121 688 LINE",
"95 541 LINE",
"116 398 LINE"
);
}
);
width = 271;
}
);
leftKerningGroup = quotesingle;
note = quotesingle;
rightKerningGroup = quotesingle;
unicode = 0027;
},
{
glyphname = "leftanglebracket-math";
lastChange = "2018-07-30 00:30:16 +0000";
layers = (
{
layerId = "9602D73B-DD3D-403F-8CEE-11CABA0497EF";
paths = (
{
closed = 1;
nodes = (
"435 -120 LINE",
"204 235 LINE",
"585 589 LINE",
"416 589 LINE",
"50 245 LINE",
"279 -120 LINE"
);
}
);
width = 583;
}
);
leftKerningGroup = "leftanglebracket-math";
rightKerningGroup = "leftanglebracket-math";
unicode = 27E8;
},
{
glyphname = "rightanglebracket-math";
lastChange = "2018-07-30 00:30:16 +0000";
layers = (
{
layerId = "9602D73B-DD3D-403F-8CEE-11CABA0497EF";
paths = (
{
closed = 1;
nodes = (
"156 -120 LINE",
"522 224 LINE",
"293 589 LINE",
"142 589 LINE",
"368 234 LINE",
"-13 -120 LINE"
);
}
);
width = 584;
}
);
leftKerningGroup = "rightanglebracket-math";
rightKerningGroup = "rightanglebracket-math";
unicode = 27E9;
},
{
glyphname = .notdef;
lastChange = "2018-07-30 00:30:16 +0000";
layers = (
{
layerId = "9602D73B-DD3D-403F-8CEE-11CABA0497EF";
paths = (
{
closed = 1;
nodes = (
"500 0 LINE",
"500 700 LINE",
"0 700 LINE",
"0 0 LINE"
);
},
{
closed = 1;
nodes = (
"250 305 LINE",
"420 50 LINE",
"80 50 LINE"
);
},
{
closed = 1;
nodes = (
"50 605 LINE",
"220 350 LINE",
"50 95 LINE"
);
},
{
closed = 1;
nodes = (
"280 350 LINE",
"450 605 LINE",
"450 95 LINE"
);
},
{
closed = 1;
nodes = (
"80 650 LINE",
"420 650 LINE",
"250 395 LINE"
);
}
);
width = 501;
}
);
leftKerningGroup = .notdef;
note = .notdef;
rightKerningGroup = .notdef;
},
{
glyphname = cedi;
lastChange = "2018-07-30 00:30:16 +0000";
layers = (
{
layerId = "9602D73B-DD3D-403F-8CEE-11CABA0497EF";
paths = (
{
closed = 1;
nodes = (
"177 -88 LINE",
"650 772 LINE",
"586 772 LINE",
"113 -88 LINE"
);
},
{
closed = 1;
nodes = (
"553 -12 OFFCURVE",
"662 90 OFFCURVE",
"695 279 CURVE",
"491 279 LINE",
"477 200 OFFCURVE",
"446 153 OFFCURVE",
"359 153 CURVE SMOOTH",
"293 153 OFFCURVE",
"272 188 OFFCURVE",
"272 244 CURVE SMOOTH",
"272 264 OFFCURVE",
"275 287 OFFCURVE",
"279 312 CURVE SMOOTH",
"309 487 OFFCURVE",
"332 535 OFFCURVE",
"428 535 CURVE SMOOTH",
"489 535 OFFCURVE",
"511 504 OFFCURVE",
"511 453 CURVE SMOOTH",
"511 439 OFFCURVE",
"509 423 OFFCURVE",
"506 405 CURVE",
"717 405 LINE",
"721 429 OFFCURVE",
"723 452 OFFCURVE",
"723 474 CURVE SMOOTH",
"723 621 OFFCURVE",
"623 700 OFFCURVE",
"448 700 CURVE SMOOTH",
"213 700 OFFCURVE",
"97 591 OFFCURVE",
"58 356 CURVE SMOOTH",
"52 321 OFFCURVE",
"49 287 OFFCURVE",
"49 257 CURVE SMOOTH",
"49 84 OFFCURVE",
"143 -12 OFFCURVE",
"343 -12 CURVE SMOOTH"
);
}
);
width = 738;
}
);
leftKerningGroup = O;
rightKerningGroup = C;
unicode = 20B5;
},
{
glyphname = cent;
lastChange = "2018-07-30 00:30:16 +0000";
layers = (
{
layerId = "9602D73B-DD3D-403F-8CEE-11CABA0497EF";
paths = (
{
closed = 1;
nodes = (
"314 -67 LINE",
"339 71 LINE",
"488 84 OFFCURVE",
"603 152 OFFCURVE",
"628 296 CURVE",
"443 296 LINE",
"434 244 OFFCURVE",
"406 217 OFFCURVE",
"362 207 CURVE",
"410 481 LINE",
"439 473 OFFCURVE",
"455 452 OFFCURVE",
"455 418 CURVE SMOOTH",
"455 411 OFFCURVE",
"454 404 OFFCURVE",
"453 396 CURVE",
"646 396 LINE",
"649 412 OFFCURVE",
"650 427 OFFCURVE",
"650 441 CURVE SMOOTH",
"650 553 OFFCURVE",
"564 606 OFFCURVE",
"435 618 CURVE",
"460 756 LINE",
"382 756 LINE",
"357 619 LINE",
"160 601 OFFCURVE",
"43 479 OFFCURVE",
"43 287 CURVE SMOOTH",
"43 159 OFFCURVE",
"122 84 OFFCURVE",
"261 71 CURVE",
"237 -67 LINE"
);
},
{
closed = 1;
nodes = (
"254 220 OFFCURVE",
"240 245 OFFCURVE",
"240 282 CURVE SMOOTH",
"240 298 OFFCURVE",
"242 311 OFFCURVE",
"253 373 CURVE SMOOTH",
"263 429 OFFCURVE",
"288 468 OFFCURVE",
"334 481 CURVE",
"286 209 LINE"
);
}
);
width = 667;
}
);
leftKerningGroup = o;
note = cent;
rightKerningGroup = c;
unicode = 00A2;
},
{
glyphname = colonsign;
lastChange = "2018-07-30 00:30:16 +0000";
layers = (
{
layerId = "9602D73B-DD3D-403F-8CEE-11CABA0497EF";
paths = (
{
closed = 1;
nodes = (
"253 -88 LINE",
"726 772 LINE",
"662 772 LINE",
"189 -88 LINE"
);
},
{
closed = 1;
nodes = (
"133 -88 LINE",
"606 772 LINE",
"542 772 LINE",
"69 -88 LINE"
);
},
{
closed = 1;
nodes = (
"553 -12 OFFCURVE",
"662 90 OFFCURVE",
"695 279 CURVE",
"491 279 LINE",
"477 200 OFFCURVE",
"446 153 OFFCURVE",
"359 153 CURVE SMOOTH",
"293 153 OFFCURVE",
"272 188 OFFCURVE",
"272 244 CURVE SMOOTH",
"272 264 OFFCURVE",
"275 287 OFFCURVE",
"279 312 CURVE SMOOTH",
"309 487 OFFCURVE",
"332 535 OFFCURVE",
"428 535 CURVE SMOOTH",
"489 535 OFFCURVE",
"511 504 OFFCURVE",
"511 453 CURVE SMOOTH",
"511 439 OFFCURVE",
"509 423 OFFCURVE",
"506 405 CURVE",
"717 405 LINE",
"721 429 OFFCURVE",
"723 452 OFFCURVE",
"723 474 CURVE SMOOTH",
"723 621 OFFCURVE",
"623 700 OFFCURVE",
"448 700 CURVE SMOOTH",
"213 700 OFFCURVE",
"97 591 OFFCURVE",
"58 356 CURVE SMOOTH",
"52 321 OFFCURVE",
"49 287 OFFCURVE",
"49 257 CURVE SMOOTH",
"49 84 OFFCURVE",
"143 -12 OFFCURVE",
"343 -12 CURVE SMOOTH"
);
}
);
width = 738;
}
);
leftKerningGroup = O;
rightKerningGroup = C;
unicode = 20A1;
},
{
glyphname = currency;
lastChange = "2018-07-30 00:30:16 +0000";
layers = (
{
layerId = "9602D73B-DD3D-403F-8CEE-11CABA0497EF";
paths = (
{
closed = 1;
nodes = (
"172 137 LINE",
"201 106 OFFCURVE",
"252 91 OFFCURVE",
"306 91 CURVE SMOOTH",
"362 91 OFFCURVE",
"419 107 OFFCURVE",
"456 139 CURVE",
"504 81 LINE",
"575 141 LINE",
"529 197 LINE",
"573 241 OFFCURVE",
"604 323 OFFCURVE",
"604 392 CURVE SMOOTH",
"604 426 OFFCURVE",
"596 457 OFFCURVE",
"580 479 CURVE",
"646 535 LINE",
"590 603 LINE",
"522 545 LINE",
"493 573 OFFCURVE",
"444 587 OFFCURVE",
"392 587 CURVE SMOOTH",
"339 587 OFFCURVE",
"284 572 OFFCURVE",
"246 543 CURVE",
"199 600 LINE",
"124 537 LINE",
"172 479 LINE",
"126 436 OFFCURVE",
"97 361 OFFCURVE",
"97 293 CURVE SMOOTH",
"97 258 OFFCURVE",
"105 225 OFFCURVE",
"123 199 CURVE",
"55 141 LINE",
"105 80 LINE"
);
},
{
closed = 1;
nodes = (
"261 201 OFFCURVE",
"219 248 OFFCURVE",
"219 311 CURVE SMOOTH",
"219 399 OFFCURVE",
"291 477 OFFCURVE",
"374 477 CURVE SMOOTH",
"441 477 OFFCURVE",
"480 428 OFFCURVE",
"480 366 CURVE SMOOTH",
"480 282 OFFCURVE",
"411 201 OFFCURVE",
"325 201 CURVE SMOOTH"
);
}
);
width = 660;
}
);
leftKerningGroup = currency;
note = currency;
rightKerningGroup = currency;
unicode = 00A4;
},
{
glyphname = dollar;
lastChange = "2018-07-30 00:30:16 +0000";
layers = (
{
layerId = "9602D73B-DD3D-403F-8CEE-11CABA0497EF";
paths = (
{
closed = 1;
nodes = (
"306 -67 LINE",
"331 70 LINE",
"483 80 OFFCURVE",
"601 138 OFFCURVE",
"601 280 CURVE SMOOTH",
"601 389 OFFCURVE",
"482 411 OFFCURVE",
"392 425 CURVE",
"405 497 LINE",
"421 492 OFFCURVE",
"436 482 OFFCURVE",
"436 463 CURVE SMOOTH",
"436 465 OFFCURVE",
"435 451 OFFCURVE",
"435 451 CURVE",
"618 451 LINE",
"619 456 OFFCURVE",
"622 474 OFFCURVE",
"622 488 CURVE SMOOTH",
"622 573 OFFCURVE",
"533 611 OFFCURVE",
"427 619 CURVE",
"452 756 LINE",
"374 756 LINE",
"349 618 LINE",
"207 607 OFFCURVE",
"97 553 OFFCURVE",
"97 420 CURVE SMOOTH",
"97 317 OFFCURVE",
"208 292 OFFCURVE",
"296 276 CURVE",
"281 192 LINE",
"247 200 OFFCURVE",
"237 216 OFFCURVE",
"237 239 CURVE SMOOTH",
"237 244 OFFCURVE",
"237 248 OFFCURVE",
"238 253 CURVE",
"55 253 LINE",
"52 237 OFFCURVE",
"51 230 OFFCURVE",
"51 220 CURVE SMOOTH",
"51 127 OFFCURVE",
"143 82 OFFCURVE",
"253 71 CURVE",
"228 -67 LINE"
);
},
{
closed = 1;
nodes = (
"364 263 LINE",
"388 256 OFFCURVE",
"403 247 OFFCURVE",
"403 231 CURVE SMOOTH",
"403 204 OFFCURVE",
"376 194 OFFCURVE",
"351 190 CURVE"
);
},
{
closed = 1;
nodes = (
"303 442 OFFCURVE",
"292 451 OFFCURVE",
"292 463 CURVE SMOOTH",
"292 486 OFFCURVE",
"311 496 OFFCURVE",
"335 499 CURVE",
"324 438 LINE"
);
}
);
width = 667;
}
);
leftKerningGroup = S;
note = dollar;
rightKerningGroup = S;
unicode = 0024;
},
{
glyphname = dong;
lastChange = "2018-07-30 00:30:16 +0000";
layers = (
{
background = {
paths = (
{
closed = 1;
nodes = (
"450 -191 LINE",
"470 -73 LINE",
"36 -73 LINE",
"16 -191 LINE"
);
},
{
closed = 1;
nodes = (
"721 575 LINE",
"737 668 LINE",
"316 668 LINE",
"300 575 LINE"
);
},
{
closed = 1;
nodes = (
"276 -12 OFFCURVE",
"337 14 OFFCURVE",
"381 66 CURVE",
"388 66 LINE",
"389 0 LINE",
"551 0 LINE",
"679 725 LINE",
"480 725 LINE",
"437 471 LINE",
"430 471 LINE",
"403 517 OFFCURVE",
"350 540 OFFCURVE",
"289 540 CURVE SMOOTH",
"105 540 OFFCURVE",
"20 382 OFFCURVE",
"20 188 CURVE SMOOTH",
"20 58 OFFCURVE",
"92 -12 OFFCURVE",
"210 -12 CURVE SMOOTH"
);
},
{
closed = 1;
nodes = (
"235 125 OFFCURVE",
"219 162 OFFCURVE",
"219 215 CURVE SMOOTH",
"219 308 OFFCURVE",
"246 409 OFFCURVE",
"331 409 CURVE SMOOTH",
"391 409 OFFCURVE",
"407 369 OFFCURVE",
"407 313 CURVE SMOOTH",
"407 226 OFFCURVE",
"375 125 OFFCURVE",
"294 125 CURVE SMOOTH"
);
},
{
closed = 1;
nodes = (
"269 133 LINE",
"374 133 LINE",
"374 446 LINE",
"269 446 LINE"
);
},
{
closed = 1;
nodes = (
"259 126 LINE",
"384 126 LINE",
"384 458 LINE",
"259 458 LINE"
);
},
{
closed = 1;
nodes = (
"279 141 LINE",
"364 141 LINE",
"364 433 LINE",
"279 433 LINE"
);
},
{
closed = 1;
nodes = (
"289 148 LINE",
"354 148 LINE",
"354 421 LINE",
"289 421 LINE"
);
},
{
closed = 1;
nodes = (
"299 155 LINE",
"344 155 LINE",
"344 409 LINE",
"299 409 LINE"
);
}
);
};
layerId = "9602D73B-DD3D-403F-8CEE-11CABA0497EF";
paths = (
{
closed = 1;
nodes = (
"297 38 OFFCURVE",
"360 65 OFFCURVE",
"407 125 CURVE",
"414 125 LINE",
"415 50 LINE",
"567 50 LINE",
"684 725 LINE",
"495 725 LINE",
"450 465 LINE",
"443 465 LINE",
"419 502 OFFCURVE",
"355 526 OFFCURVE",
"300 526 CURVE SMOOTH",
"148 526 OFFCURVE",
"51 419 OFFCURVE",
"51 230 CURVE SMOOTH",
"51 115 OFFCURVE",
"122 38 OFFCURVE",
"228 38 CURVE SMOOTH"
);
},
{
closed = 1;
nodes = (
"540 -93 LINE",
"556 0 LINE",
"6 0 LINE",
"-10 -93 LINE"
);
},
{
closed = 1;
nodes = (
"255 155 OFFCURVE",
"230 188 OFFCURVE",
"230 237 CURVE SMOOTH",
"230 326 OFFCURVE",
"258 409 OFFCURVE",
"338 409 CURVE SMOOTH",
"388 409 OFFCURVE",
"412 374 OFFCURVE",
"412 326 CURVE SMOOTH",
"412 238 OFFCURVE",
"381 155 OFFCURVE",
"305 155 CURVE SMOOTH"
);
},
{
closed = 1;
nodes = (
"719 575 LINE",
"735 668 LINE",
"324 668 LINE",
"308 575 LINE"
);
}
);
width = 678;
}
);
leftKerningGroup = o;
rightKerningGroup = d;
unicode = 20AB;
},
{
glyphname = euro;
lastChange = "2018-07-30 00:30:16 +0000";
layers = (
{
layerId = "9602D73B-DD3D-403F-8CEE-11CABA0497EF";
paths = (
{
closed = 1;
nodes = (
"480 -12 OFFCURVE",
"535 -3 OFFCURVE",
"589 13 CURVE",
"613 154 LINE",
"613 154 OFFCURVE",
"558 127 OFFCURVE",
"486 127 CURVE SMOOTH",
"400 127 OFFCURVE",
"349 165 OFFCURVE",
"330 227 CURVE",
"538 227 LINE",
"555 320 LINE",
"325 320 LINE",
"325 331 OFFCURVE",
"328 354 OFFCURVE",
"332 368 CURVE",
"563 368 LINE",
"580 461 LINE",
"371 461 LINE",
"411 523 OFFCURVE",
"475 561 OFFCURVE",
"562 561 CURVE SMOOTH",
"634 561 OFFCURVE",
"681 536 OFFCURVE",
"681 536 CURVE",
"706 681 LINE",
"655 695 OFFCURVE",
"603 702 OFFCURVE",
"553 702 CURVE SMOOTH",
"381 702 OFFCURVE",
"229 618 OFFCURVE",
"166 461 CURVE",
"63 461 LINE",
"46 368 LINE",
"136 368 LINE",
"134 358 OFFCURVE",
"129 332 OFFCURVE",
"128 320 CURVE",
"38 320 LINE",
"21 227 LINE",
"124 227 LINE",
"140 69 OFFCURVE",
"270 -12 OFFCURVE",
"429 -12 CURVE SMOOTH"
);
}
);
width = 667;
}
);
leftKerningGroup = O;
note = Euro;
rightKerningGroup = C;
unicode = 20AC;
},
{
glyphname = florin;
lastChange = "2018-07-30 00:30:16 +0000";
layers = (
{
layerId = "9602D73B-DD3D-403F-8CEE-11CABA0497EF";
paths = (
{
closed = 1;
nodes = (
"223 -210 OFFCURVE",
"304 -167 OFFCURVE",
"348 -23 CURVE SMOOTH",
"461 354 LINE",
"563 354 LINE",
"604 489 LINE",
"502 489 LINE",
"520 549 LINE SMOOTH",
"531 586 OFFCURVE",
"548 602 OFFCURVE",
"592 602 CURVE SMOOTH",
"638 602 LINE",
"673 719 LINE",
"649 729 OFFCURVE",
"589 737 OFFCURVE",
"560 737 CURVE SMOOTH",
"446 737 OFFCURVE",
"365 694 OFFCURVE",
"321 550 CURVE SMOOTH",
"303 489 LINE",
"229 489 LINE",
"188 354 LINE",
"262 354 LINE",
"149 -22 LINE SMOOTH",
"138 -59 OFFCURVE",
"121 -75 OFFCURVE",
"77 -75 CURVE SMOOTH",
"31 -75 LINE",
"-4 -192 LINE",
"20 -202 OFFCURVE",
"80 -210 OFFCURVE",
"109 -210 CURVE SMOOTH"
);
}
);
width = 667;
}
);
leftKerningGroup = florin;
note = florin;
rightKerningGroup = florin;
unicode = 0192;
},
{
glyphname = franc;
lastChange = "2018-07-30 00:30:16 +0000";
layers = (
{
layerId = "9602D73B-DD3D-403F-8CEE-11CABA0497EF";
paths = (
{
closed = 1;
nodes = (
"248 0 LINE",
"292 247 LINE",
"560 247 LINE",
"588 405 LINE",
"320 405 LINE",
"341 523 LINE",
"656 523 LINE",
"685 688 LINE",
"149 688 LINE",
"27 0 LINE"
);
},
{
closed = 1;
nodes = (
"418 101 LINE",
"432 186 LINE",
"-4 186 LINE",
"-18 101 LINE"
);
}
);
width = 647;
}
);
leftKerningGroup = Hbar;
note = franc;
rightKerningGroup = F;
unicode = 20A3;
},
{
glyphname = guarani;
lastChange = "2018-07-30 00:30:16 +0000";
layers = (
{
layerId = "9602D73B-DD3D-403F-8CEE-11CABA0497EF";
paths = (
{
closed = 1;
nodes = (
"462 -12 OFFCURVE",
"520 15 OFFCURVE",
"592 68 CURVE",
"602 0 LINE",
"716 0 LINE",
"783 384 LINE",
"436 384 LINE",
"412 244 LINE",
"548 244 LINE",
"538 189 OFFCURVE",
"492 153 OFFCURVE",
"422 153 CURVE SMOOTH",
"338 153 OFFCURVE",
"307 191 OFFCURVE",
"307 258 CURVE SMOOTH",
"307 274 OFFCURVE",
"309 292 OFFCURVE",
"312 312 CURVE SMOOTH",
"338 483 OFFCURVE",
"372 535 OFFCURVE",
"489 535 CURVE SMOOTH",
"551 535 OFFCURVE",
"584 506 OFFCURVE",
"584 459 CURVE SMOOTH",
"584 453 OFFCURVE",
"583 446 OFFCURVE",
"582 439 CURVE",
"793 439 LINE",
"796 456 OFFCURVE",
"797 472 OFFCURVE",
"797 488 CURVE SMOOTH",
"797 628 OFFCURVE",
"677 700 OFFCURVE",
"503 700 CURVE SMOOTH",
"265 700 OFFCURVE",
"132 587 OFFCURVE",
"91 352 CURVE SMOOTH",
"84 312 OFFCURVE",
"80 275 OFFCURVE",
"80 241 CURVE SMOOTH",
"80 77 OFFCURVE",
"167 -12 OFFCURVE",
"357 -12 CURVE SMOOTH"
);
},
{
closed = 1;
nodes = (
"412 -79 LINE",
"558 753 LINE",
"477 753 LINE",
"331 -79 LINE"
);
}
);
width = 833;
}
);
leftKerningGroup = O;
note = uni20B2;
rightKerningGroup = C;
unicode = 20B2;
},
{
glyphname = kip;
lastChange = "2018-07-30 00:30:16 +0000";
layers = (
{
layerId = "9602D73B-DD3D-403F-8CEE-11CABA0497EF";
paths = (
{
closed = 1;
nodes = (
"875 688 LINE",
"598 688 LINE",
"356 396 LINE",
"449 277 LINE"
);
},
{
closed = 1;
nodes = (
"254 0 LINE",
"376 688 LINE",
"155 688 LINE",
"33 0 LINE"
);
},
{
closed = 1;
nodes = (
"753 0 LINE",
"463 424 LINE",
"346 295 LINE",
"489 0 LINE"
);
},
{
closed = 1;
nodes = (
"784 287 LINE",
"804 399 LINE",
"46 399 LINE",
"26 287 LINE"
);
}
);
width = 813;
}
);
leftKerningGroup = Hbar;
rightKerningGroup = K;
unicode = 20AD;
},
{
glyphname = lira;
lastChange = "2018-07-30 00:30:16 +0000";
layers = (
{
layerId = "9602D73B-DD3D-403F-8CEE-11CABA0497EF";
paths = (
{
closed = 1;
nodes = (
"536 0 LINE",
"562 147 LINE",
"263 147 LINE",
"284 215 LINE",
"429 215 LINE",
"444 298 LINE",
"311 298 LINE",
"324 341 LINE",
"451 341 LINE",
"466 425 LINE",
"339 425 LINE",
"351 494 LINE SMOOTH",
"357 526 OFFCURVE",
"389 552 OFFCURVE",
"421 552 CURVE SMOOTH",
"449 552 OFFCURVE",
"469 532 OFFCURVE",
"469 505 CURVE SMOOTH",
"469 501 OFFCURVE",
"468 492 OFFCURVE",
"464 470 CURVE",
"663 470 LINE",
"668 498 OFFCURVE",
"670 512 OFFCURVE",
"670 528 CURVE SMOOTH",
"670 626 OFFCURVE",
"590 700 OFFCURVE",
"438 700 CURVE SMOOTH",
"260 700 OFFCURVE",
"174 608 OFFCURVE",
"154 493 CURVE SMOOTH",
"142 425 LINE",
"48 425 LINE",
"34 342 LINE",
"128 342 LINE",
"120 298 LINE",
"26 298 LINE",
"11 215 LINE",
"105 215 LINE",
"93 147 LINE",
"29 147 LINE",
"3 0 LINE"
);
}
);
width = 667;
}
);
leftKerningGroup = sterling;
note = lira;
rightKerningGroup = sterling;
unicode = 20A4;
},
{
glyphname = liraTurkish;
lastChange = "2018-07-30 00:30:16 +0000";
layers = (
{
layerId = "9602D73B-DD3D-403F-8CEE-11CABA0497EF";
paths = (
{
closed = 1;
nodes = (
"324 0 LINE SMOOTH",
"499 0 OFFCURVE",
"621 88 OFFCURVE",
"649 262 CURVE SMOOTH",
"657 311 LINE",
"450 311 LINE",
"442 263 LINE SMOOTH",
"431 199 OFFCURVE",
"402 176 OFFCURVE",
"355 176 CURVE SMOOTH",
"280 176 LINE",
"371 688 LINE",
"150 688 LINE",
"28 0 LINE"
);
},
{
closed = 1;
nodes = (
"459 369 LINE",
"474 454 LINE",
"9 254 LINE",
"-6 169 LINE"
);
},
{
closed = 1;
nodes = (
"483 504 LINE",
"498 589 LINE",
"33 389 LINE",
"18 304 LINE"
);
}
);
width = 667;
}
);
leftKerningGroup = Hbar;
rightKerningGroup = L;
unicode = 20BA;
},
{
glyphname = manat;
lastChange = "2018-07-30 00:30:16 +0000";
layers = (
{
layerId = "9602D73B-DD3D-403F-8CEE-11CABA0497EF";
paths = (
{
closed = 1;
nodes = (
"237 0 LINE",
"310 376 LINE SMOOTH",
"328 470 OFFCURVE",
"369 535 OFFCURVE",
"465 535 CURVE SMOOTH",
"540 535 OFFCURVE",
"567 496 OFFCURVE",
"567 435 CURVE SMOOTH",
"567 417 OFFCURVE",
"565 397 OFFCURVE",
"561 376 CURVE SMOOTH",
"488 0 LINE",
"714 0 LINE",
"789 386 LINE SMOOTH",
"794 411 OFFCURVE",
"796 434 OFFCURVE",
"796 456 CURVE SMOOTH",
"796 608 OFFCURVE",
"687 700 OFFCURVE",
"485 700 CURVE SMOOTH",
"255 700 OFFCURVE",
"123 579 OFFCURVE",
"86 386 CURVE SMOOTH",
"11 0 LINE"
);
},
{
closed = 1;
nodes = (
"424 121 LINE",
"551 773 LINE",
"470 773 LINE",
"343 121 LINE"
);
}
);
width = 814;
}
);
leftKerningGroup = U;
rightKerningGroup = U;
unicode = 20BC;
},
{
glyphname = naira;
lastChange = "2018-07-30 00:30:16 +0000";
layers = (
{
layerId = "9602D73B-DD3D-403F-8CEE-11CABA0497EF";
paths = (
{
closed = 1;
nodes = (
"242 0 LINE",
"292 282 LINE SMOOTH",
"295 300 OFFCURVE",
"300 342 OFFCURVE",
"300 342 CURVE",
"305 345 LINE",
"305 345 OFFCURVE",
"329 312 OFFCURVE",
"345 285 CURVE SMOOTH",
"515 0 LINE",
"704 0 LINE",
"826 688 LINE",
"623 688 LINE",
"571 400 LINE SMOOTH",
"569 389 OFFCURVE",
"563 342 OFFCURVE",
"563 342 CURVE",
"558 339 LINE",
"558 339 OFFCURVE",
"508 414 OFFCURVE",
"498 431 CURVE SMOOTH",
"351 688 LINE",
"161 688 LINE",
"29 0 LINE"
);
},
{
closed = 1;
nodes = (
"176 215 LINE",
"189 287 LINE",
"22 287 LINE",
"9 215 LINE"
);
},
{
closed = 1;
nodes = (
"209 395 LINE",
"223 467 LINE",
"54 467 LINE",
"41 395 LINE"
);
},
{
closed = 1;
nodes = (
"810 215 LINE",
"823 287 LINE",
"662 287 LINE",
"650 215 LINE"
);
},
{
closed = 1;
nodes = (
"842 395 LINE",
"855 467 LINE",
"692 467 LINE",
"680 395 LINE"
);
}
);
width = 833;
}
);
leftKerningGroup = Hbar;
rightKerningGroup = Hbar;
unicode = 20A6;
},
{
glyphname = peseta;
lastChange = "2018-07-30 00:30:16 +0000";
layers = (
{
layerId = "9602D73B-DD3D-403F-8CEE-11CABA0497EF";
paths = (
{
closed = 1;
nodes = (
"245 0 LINE",
"284 222 LINE",
"432 222 LINE SMOOTH",
"584 222 OFFCURVE",
"695 348 OFFCURVE",
"695 502 CURVE SMOOTH",
"695 613 OFFCURVE",
"622 688 OFFCURVE",
"508 688 CURVE SMOOTH",
"146 688 LINE",
"24 0 LINE"
);
},
{
closed = 1;
nodes = (
"338 525 LINE",
"405 525 LINE SMOOTH",
"445 525 OFFCURVE",
"468 505 OFFCURVE",
"468 470 CURVE SMOOTH",
"468 421 OFFCURVE",
"443 383 OFFCURVE",
"387 383 CURVE SMOOTH",
"313 383 LINE"
);
},
{
closed = 1;
nodes = (
"751 422 LINE",
"762 487 LINE",
"46 487 LINE",
"35 422 LINE"
);
}
);
width = 731;
}
);
leftKerningGroup = P;
note = peseta;
rightKerningGroup = s;
unicode = 20A7;
},
{
glyphname = peso;
lastChange = "2018-07-30 00:30:16 +0000";
layers = (
{
layerId = "9602D73B-DD3D-403F-8CEE-11CABA0497EF";
paths = (
{
closed = 1;
nodes = (
"236 0 LINE",
"275 222 LINE",
"426 222 LINE SMOOTH",
"582 222 OFFCURVE",
"686 341 OFFCURVE",
"686 494 CURVE SMOOTH",
"686 608 OFFCURVE",
"610 688 OFFCURVE",
"495 688 CURVE SMOOTH",
"137 688 LINE",
"15 0 LINE"
);
},
{
closed = 1;
nodes = (
"196 347 LINE",
"207 412 LINE",
"24 412 LINE",
"13 347 LINE"
);
},
{
closed = 1;
nodes = (
"220 484 LINE",
"231 549 LINE",
"48 549 LINE",
"37 484 LINE"
);
},
{
closed = 1;
nodes = (
"329 525 LINE",
"397 525 LINE SMOOTH",
"437 525 OFFCURVE",
"459 506 OFFCURVE",
"459 471 CURVE SMOOTH",
"459 422 OFFCURVE",
"435 383 OFFCURVE",
"379 383 CURVE SMOOTH",
"304 383 LINE"
);
},
{
closed = 1;
nodes = (
"729 347 LINE",
"740 412 LINE",
"531 412 LINE",
"520 347 LINE"
);
},
{
closed = 1;
nodes = (
"753 484 LINE",
"764 549 LINE",
"555 549 LINE",
"544 484 LINE"
);
}
);
width = 714;
}
);
leftKerningGroup = Hbar;
rightKerningGroup = P;
unicode = 20B1;
},
{
glyphname = ruble;
lastChange = "2018-07-30 00:30:16 +0000";
layers = (
{
layerId = "9602D73B-DD3D-403F-8CEE-11CABA0497EF";
paths = (
{
closed = 1;
nodes = (
"245 0 LINE",
"284 222 LINE",
"432 222 LINE SMOOTH",
"584 222 OFFCURVE",
"695 348 OFFCURVE",
"695 502 CURVE SMOOTH",
"695 613 OFFCURVE",
"622 688 OFFCURVE",
"508 688 CURVE SMOOTH",
"146 688 LINE",
"24 0 LINE"
);
},
{
closed = 1;
nodes = (
"418 88 LINE",
"434 173 LINE",
"-2 173 LINE",
"-18 88 LINE"
);
},
{
closed = 1;
nodes = (
"244 222 LINE",
"275 383 LINE",
"39 383 LINE",
"8 222 LINE"
);
},
{
closed = 1;
nodes = (
"338 525 LINE",
"405 525 LINE SMOOTH",
"445 525 OFFCURVE",
"468 505 OFFCURVE",
"468 470 CURVE SMOOTH",
"468 421 OFFCURVE",
"443 383 OFFCURVE",
"387 383 CURVE SMOOTH",
"313 383 LINE"
);
}
);
width = 731;
}
);
leftKerningGroup = Hbar;
rightKerningGroup = P;
unicode = 20BD;
},
{
glyphname = rupeeIndian;
lastChange = "2018-07-30 00:30:16 +0000";
layers = (
{
layerId = "9602D73B-DD3D-403F-8CEE-11CABA0497EF";
paths = (
{
closed = 1;
nodes = (
"229 222 LINE SMOOTH",
"382 222 OFFCURVE",
"496 354 OFFCURVE",
"496 506 CURVE SMOOTH",
"496 616 OFFCURVE",
"425 688 OFFCURVE",
"312 688 CURVE SMOOTH",
"115 688 LINE",
"86 525 LINE",
"209 525 LINE SMOOTH",
"248 525 OFFCURVE",
"268 508 OFFCURVE",
"268 475 CURVE SMOOTH",
"268 424 OFFCURVE",
"242 383 OFFCURVE",
"184 383 CURVE SMOOTH",
"61 383 LINE",
"32 222 LINE"
);
},
{
closed = 1;
nodes = (
"459 0 LINE",
"271 255 LINE",
"32 222 LINE",
"198 0 LINE"
);
},
{
closed = 1;
nodes = (
"605 409 LINE",
"621 495 LINE",
"81 495 LINE",
"65 409 LINE"
);
},
{
closed = 1;
nodes = (
"639 601 LINE",
"655 688 LINE",
"115 688 LINE",
"99 601 LINE"
);
}
);
width = 606;
}
);
leftKerningGroup = I;
rightKerningGroup = rupeeIndian;
unicode = 20B9;
},
{
glyphname = sterling;
lastChange = "2018-07-30 00:30:16 +0000";
layers = (
{
layerId = "9602D73B-DD3D-403F-8CEE-11CABA0497EF";
paths = (
{
closed = 1;
nodes = (
"538 0 LINE",
"564 147 LINE",
"270 147 LINE",
"309 276 LINE",
"426 276 LINE",
"448 403 LINE",
"332 403 LINE",
"348 494 LINE SMOOTH",
"354 526 OFFCURVE",
"385 552 OFFCURVE",
"417 552 CURVE SMOOTH",
"445 552 OFFCURVE",
"465 532 OFFCURVE",
"465 505 CURVE SMOOTH",
"465 501 OFFCURVE",
"464 491 OFFCURVE",
"459 466 CURVE",
"658 466 LINE",
"664 497 OFFCURVE",
"666 512 OFFCURVE",
"666 528 CURVE SMOOTH",
"666 626 OFFCURVE",
"586.006 700 OFFCURVE",
"434 700 CURVE SMOOTH",
"256 700 OFFCURVE",
"170 608 OFFCURVE",
"150 493 CURVE SMOOTH",
"134 403 LINE",
"40 403 LINE",
"18 276 LINE",
"112 276 LINE",
"89 147 LINE",
"25 147 LINE",
"-1 0 LINE"
);
}
);
width = 667;
}
);
leftKerningGroup = sterling;
note = sterling;
rightKerningGroup = sterling;
unicode = 00A3;
},
{
glyphname = won;
lastChange = "2018-07-30 00:30:16 +0000";
layers = (
{
layerId = "9602D73B-DD3D-403F-8CEE-11CABA0497EF";
paths = (
{
closed = 1;
nodes = (
"373 0 LINE",
"488 322 LINE SMOOTH",
"498 351 OFFCURVE",
"526 419 OFFCURVE",
"526 419 CURVE",
"530 419 LINE",
"530 419 OFFCURVE",
"534 357 OFFCURVE",
"534 322 CURVE SMOOTH",
"535 0 LINE",
"778 0 LINE",
"1051 688 LINE",
"823 688 LINE",
"725 394 LINE SMOOTH",
"713 359 OFFCURVE",
"690 298 OFFCURVE",
"690 298 CURVE SMOOTH",
"686 298 LINE SMOOTH",
"686 298 OFFCURVE",
"683 367 OFFCURVE",
"683 394 CURVE SMOOTH",
"682 688 LINE",
"464 688 LINE",
"363 394 LINE SMOOTH",
"353 365 OFFCURVE",
"327 298 OFFCURVE",
"327 298 CURVE SMOOTH",
"323 298 LINE SMOOTH",
"323 298 OFFCURVE",
"321 364 OFFCURVE",
"321 394 CURVE SMOOTH",
"323 688 LINE",
"101 688 LINE",
"130 0 LINE"
);
},
{
closed = 1;
nodes = (
"986 320 LINE",
"1001 402 LINE",
"33 402 LINE",
"18 320 LINE"
);
}
);
width = 1000;
}
);
leftKerningGroup = V;
rightKerningGroup = V;
unicode = 20A9;
},
{
glyphname = yen;
lastChange = "2018-07-30 00:30:16 +0000";
layers = (
{
layerId = "9602D73B-DD3D-403F-8CEE-11CABA0497EF";
paths = (
{
closed = 1;
nodes = (
"389 0 LINE",
"415 143 LINE",
"617 143 LINE",
"633 239 LINE",
"431 239 LINE",
"439 281 LINE",
"641 281 LINE",
"658 377 LINE",
"505 377 LINE",
"530 410 OFFCURVE",
"557 444 OFFCURVE",
"581 476 CURVE SMOOTH",
"740 688 LINE",
"516 688 LINE",
"414 529 LINE SMOOTH",
"400 507 OFFCURVE",
"384 482 OFFCURVE",
"369 459 CURVE",
"365 459 LINE",
"358 482 OFFCURVE",
"351 505 OFFCURVE",
"345 528 CURVE SMOOTH",
"300 688 LINE",
"77 688 LINE",
"174 447 LINE SMOOTH",
"183 424 OFFCURVE",
"194 400 OFFCURVE",
"203 377 CURVE",
"52 377 LINE",
"35 281 LINE",
"238 281 LINE",
"230 239 LINE",
"27 239 LINE",
"11 143 LINE",
"214 143 LINE",
"188 0 LINE"
);
}
);
width = 667;
}
);
leftKerningGroup = Y;
note = yen;
rightKerningGroup = Y;
unicode = 00A5;
},
{
glyphname = bulletoperator;
lastChange = "2018-07-30 00:30:16 +0000";
layers = (
{
layerId = "9602D73B-DD3D-403F-8CEE-11CABA0497EF";
paths = (
{
closed = 1;
nodes = (
"198 177 OFFCURVE",
"245 220 OFFCURVE",
"245 269 CURVE SMOOTH",
"245 305 OFFCURVE",
"218 333 OFFCURVE",
"181 333 CURVE SMOOTH",
"133 333 OFFCURVE",
"87 288 OFFCURVE",
"87 241 CURVE SMOOTH",
"87 204 OFFCURVE",
"113 177 OFFCURVE",
"151 177 CURVE SMOOTH"
);
}
);
width = 333;
}
);
leftKerningGroup = hyphen;
note = uni2219;
rightKerningGroup = hyphen;
unicode = 2219;
},
{
glyphname = divisionslash;
lastChange = "2018-07-30 00:30:16 +0000";
layers = (
{
layerId = "9602D73B-DD3D-403F-8CEE-11CABA0497EF";
paths = (
{
closed = 1;
nodes = (
"-138 -12 LINE",
"399 700 LINE",
"303 700 LINE",
"-233 -12 LINE"
);
}
);
width = 110;
}
);
leftKerningGroup = slash;
note = uni2215;
rightKerningGroup = slash;
unicode = 2215;
},
{
glyphname = equivalence;
lastChange = "2018-07-30 00:30:16 +0000";
layers = (
{
layerId = "9602D73B-DD3D-403F-8CEE-11CABA0497EF";
paths = (
{
closed = 1;
nodes = (
"527 208 LINE",
"547 320 LINE",
"72 320 LINE",
"52 208 LINE"
);
},
{
closed = 1;
nodes = (
"494 22 LINE",
"514 134 LINE",
"39 134 LINE",
"19 22 LINE"
);
},
{
closed = 1;
nodes = (
"560 394 LINE",
"580 506 LINE",
"105 506 LINE",
"85 394 LINE"
);
}
);
width = 600;
}
);
leftKerningGroup = equivalence;
note = equivalence;
rightKerningGroup = equivalence;
unicode = 2261;
},
{
glyphname = integralbt;
lastChange = "2018-07-30 00:30:16 +0000";
layers = (
{
layerId = "9602D73B-DD3D-403F-8CEE-11CABA0497EF";
paths = (
{
closed = 1;
nodes = (
"222 -256 OFFCURVE",
"291 -222 OFFCURVE",
"307 -132 CURVE SMOOTH",
"320 -57 OFFCURVE",
"394 396 OFFCURVE",
"467 848 CURVE",
"328 848 LINE",
"169 -135 LINE SMOOTH",
"163 -175 OFFCURVE",
"108 -176 OFFCURVE",
"81 -176 CURVE",
"69 -244 LINE"
);
}
);
width = 600;
}
);
leftKerningGroup = integralbt;
note = integralbt;
rightKerningGroup = integralbt;
unicode = 2321;
},
{
glyphname = integraltp;
lastChange = "2018-07-30 00:30:16 +0000";
layers = (
{
layerId = "9602D73B-DD3D-403F-8CEE-11CABA0497EF";
paths = (
{
closed = 1;
nodes = (
"271 -250 LINE",
"430 733 LINE SMOOTH",
"436 773 OFFCURVE",
"491 774 OFFCURVE",
"518 774 CURVE",
"530 842 LINE",
"377 854 OFFCURVE",
"308 820 OFFCURVE",
"292 730 CURVE SMOOTH",
"279 655 OFFCURVE",
"205 202 OFFCURVE",
"132 -250 CURVE"
);
}
);
width = 600;
}
);
leftKerningGroup = integraltp;
note = integraltp;
rightKerningGroup = integraltp;
unicode = 2320;
},
{
glyphname = plus;
lastChange = "2018-07-30 00:30:16 +0000";
layers = (
{
layerId = "9602D73B-DD3D-403F-8CEE-11CABA0497EF";
paths = (
{
closed = 1;
nodes = (
"349 0 LINE",
"384 198 LINE",
"582 198 LINE",
"606 330 LINE",
"408 330 LINE",
"443 528 LINE",
"311 528 LINE",
"276 330 LINE",
"78 330 LINE",
"54 198 LINE",
"252 198 LINE",
"217 0 LINE"
);
}
);
width = 660;
}
);
leftKerningGroup = plus;
note = plus;
rightKerningGroup = plus;
unicode = 002B;
},
{
glyphname = minus;
lastChange = "2018-07-30 00:30:16 +0000";
layers = (
{
layerId = "9602D73B-DD3D-403F-8CEE-11CABA0497EF";
paths = (
{
closed = 1;
nodes = (
"582 198 LINE",
"606 330 LINE",
"78 330 LINE",
"54 198 LINE"
);
}
);
width = 660;
}
);
leftKerningGroup = plus;
note = minus;
rightKerningGroup = plus;
unicode = 2212;
},
{
glyphname = multiply;
lastChange = "2018-07-30 00:30:16 +0000";
layers = (
{
layerId = "9602D73B-DD3D-403F-8CEE-11CABA0497EF";
paths = (
{
closed = 1;
nodes = (
"321 171 LINE",
"459 2 LINE",
"562 96 LINE",
"420 264 LINE",
"622 432 LINE",
"536 526 LINE",
"338 357 LINE",
"200 526 LINE",
"98 432 LINE",
"240 264 LINE",
"38 96 LINE",
"123 2 LINE"
);
}
);
width = 660;
}
);
leftKerningGroup = plus;
note = multiply;
rightKerningGroup = plus;
unicode = 00D7;
},
